<svg width="422" height="97" viewBox="0 0 422 97" fill="none" xmlns="http://www.w3.org/2000/svg">
<path d="M417.139 77.0382H406.445C401.442 77.0382 397.471 75.8083 394.532 73.3486C391.656 70.8888 390.217 66.8207 390.217 61.1443V19.7065H400.254V60.5767C400.254 63.4779 400.942 65.4331 402.318 66.4423C403.694 67.3883 405.82 67.8614 408.697 67.8614H417.139V77.0382ZM417.139 38.5333H380.968V30.0187H417.139V38.5333Z" fill="#DC143C"/>
<path d="M342.395 92.1775H335.735V82.906H344.834C346.898 82.906 348.43 82.5591 349.43 81.8653C350.493 81.2346 351.369 80.1309 352.057 78.5541L353.209 76.1296L330.2 30.0244H341.551L358.06 65.3092H358.811L374.194 30.0244H385.357L361.062 81.2031C359.811 83.9782 358.342 86.1542 356.653 87.731C354.965 89.3708 352.963 90.5061 350.65 91.1368C348.336 91.8306 345.584 92.1775 342.395 92.1775Z" fill="#DC143C"/>
<path d="M333.565 77.0386H321.652L307.863 57.8334H290.04V48.6566H307.863L321.84 30.0191H333.659L316.118 52.6301L333.565 77.0386ZM294.543 77.0386H284.412V13.6521H294.543V77.0386Z" fill="#DC143C"/>
<path d="M260.527 77.0406C253.023 77.0406 247.207 75.5899 243.08 72.6887C239.015 69.7874 236.982 65.6247 236.982 60.2006V59.9168H247.113V60.6736C247.113 63.7641 248.114 65.9085 250.115 67.1069C252.179 68.2422 255.649 68.8098 260.527 68.8098C265.092 68.8098 268.188 68.3368 269.814 67.3907C271.502 66.3816 272.346 64.8363 272.346 62.755C272.346 60.7998 271.69 59.4122 270.377 58.5923C269.126 57.7723 266.812 57.1416 263.435 56.7001L250.678 54.9972C246.238 54.4296 242.767 53.1681 240.266 51.2129C237.764 49.1947 236.513 46.1988 236.513 42.2253C236.513 39.4502 237.326 37.0219 238.952 34.9406C240.578 32.7962 243.017 31.1248 246.269 29.9264C249.521 28.7281 253.523 28.1289 258.276 28.1289C263.029 28.1289 267.093 28.7596 270.47 30.021C273.91 31.2825 276.536 33.1746 278.35 35.6974C280.226 38.2203 281.164 41.3423 281.164 45.0635V45.3473H271.127V44.7797C271.127 42.9506 270.752 41.4054 270.001 40.144C269.251 38.8825 267.906 37.9365 265.968 37.3058C264.092 36.612 261.434 36.2651 257.994 36.2651C253.68 36.2651 250.678 36.7697 248.989 37.7788C247.301 38.7879 246.457 40.3962 246.457 42.6037C246.457 44.4328 247.082 45.7573 248.333 46.5772C249.583 47.3971 251.929 48.0594 255.368 48.564L266.155 50.0777C271.659 50.7714 275.723 52.1275 278.35 54.1457C280.976 56.164 282.29 59.1284 282.29 63.0388C282.29 65.9401 281.383 68.4629 279.569 70.6073C277.756 72.6887 275.223 74.297 271.971 75.4323C268.719 76.5045 264.905 77.0406 260.527 77.0406Z" fill="#DC143C"/>
<path d="M210.539 77.0406C205.474 77.0406 201.034 76.0945 197.219 74.2024C193.404 72.3102 190.434 69.5351 188.308 65.877C186.244 62.2189 185.212 57.8039 185.212 52.632C185.212 47.7125 186.244 43.4237 188.308 39.7655C190.434 36.1074 193.373 33.2692 197.125 31.2509C200.877 29.1696 205.286 28.1289 210.352 28.1289C215.167 28.1289 219.388 29.0119 223.015 30.7779C226.705 32.4808 229.55 35.0037 231.551 38.3464C233.615 41.6261 234.647 45.6627 234.647 50.4561C234.647 51.276 234.615 52.0644 234.553 52.8213C234.49 53.515 234.397 54.2088 234.271 54.9026H191.685V49.2262H227.611L224.985 52.7266C225.047 52.0959 225.079 51.4968 225.079 50.9291C225.079 50.2984 225.079 49.6677 225.079 49.037C225.079 44.6851 223.828 41.4685 221.327 39.3871C218.888 37.2427 215.167 36.1705 210.164 36.1705C204.598 36.1705 200.627 37.4634 198.251 40.0494C195.874 42.6353 194.686 46.3565 194.686 51.2129V53.6727C194.686 58.5923 195.874 62.345 198.251 64.9309C200.627 67.5168 204.629 68.8098 210.258 68.8098C215.136 68.8098 218.638 68.0529 220.764 66.5392C222.952 64.9625 224.047 62.7865 224.047 60.0114V59.2545H234.178V60.106C234.178 63.4487 233.146 66.4131 231.082 68.999C229.081 71.5219 226.298 73.5086 222.734 74.9592C219.232 76.3468 215.167 77.0406 210.539 77.0406Z" fill="#DC143C"/>
<path d="M138.68 77.0386H128.549V13.6521H161.193C165.946 13.6521 170.042 14.3774 173.481 15.8281C176.983 17.2787 179.641 19.3916 181.455 22.1667C183.331 24.9418 184.269 28.3161 184.269 32.2896C184.269 35.8216 183.518 38.849 182.018 41.3719C180.579 43.8947 178.453 45.8815 175.639 47.3321C172.887 48.7827 169.542 49.6342 165.602 49.8865V50.5487C168.041 51.1794 169.917 52.2201 171.23 53.6707C172.606 55.0583 173.857 56.7612 174.982 58.7795L185.488 77.0386H173.857L163.82 59.5364C162.882 57.8334 161.85 56.4774 160.724 55.4683C159.661 54.3961 158.317 53.6392 156.691 53.1977C155.065 52.6931 152.907 52.4409 150.218 52.4409H138.68V77.0386ZM138.68 22.8289V44.5885H161.099C165.289 44.5885 168.447 43.7686 170.574 42.1287C172.7 40.4889 173.763 37.6822 173.763 33.7087C173.763 29.8614 172.7 27.0863 170.574 25.3833C168.447 23.6804 165.289 22.8289 161.099 22.8289H138.68Z" fill="#DC143C"/>
<path fill-rule="evenodd" clip-rule="evenodd" d="M57.243 5.20679H46.8751L5.88843 46.1129V66.2588L27.2103 86.9575H87.2756L108.597 66.2588V46.1129L67.6108 5.20679H57.243ZM87.2756 67.0543V54.0975L57.243 24.0936L27.2103 54.0975V67.0543L87.2756 67.0543Z" fill="#DC143C"/>
</svg>
