<svg width="420" height="99" viewBox="0 0 420 99" fill="none" xmlns="http://www.w3.org/2000/svg">
<path d="M419.047 82.8334H408.151C403.053 82.8334 399.007 81.5908 396.012 79.1057C393.081 76.6205 391.615 72.5105 391.615 66.7756V24.9106H401.842V66.2021C401.842 69.1333 402.543 71.1086 403.945 72.1282C405.347 73.084 407.514 73.5619 410.445 73.5619H419.047V82.8334ZM419.047 43.9315H382.191V35.3291H419.047V43.9315Z" fill="#DC143C"/>
<path d="M342.886 98.1283H336.1V88.7613H345.371C347.474 88.7613 349.035 88.4108 350.055 87.7099C351.138 87.0726 352.03 85.9575 352.731 84.3645L353.905 81.915L330.461 35.3345H342.026L358.848 70.983H359.613L375.289 35.3345H386.663L361.907 87.0408C360.633 89.8445 359.135 92.0429 357.415 93.6359C355.694 95.2927 353.655 96.4397 351.297 97.0769C348.94 97.7778 346.136 98.1283 342.886 98.1283Z" fill="#DC143C"/>
<path d="M333.889 82.8334H321.75L307.7 63.4303H289.539V54.1588H307.7L321.942 35.3292H333.985L316.111 58.1733L333.889 82.8334ZM294.127 82.8334H283.804V18.7935H294.127V82.8334Z" fill="#DC143C"/>
<path d="M259.466 82.8353C251.82 82.8353 245.894 81.3698 241.688 78.4386C237.546 75.5074 235.475 71.3018 235.475 65.8217V65.535H245.798V66.2997C245.798 69.422 246.818 71.5885 248.857 72.7992C250.96 73.9462 254.496 74.5197 259.466 74.5197C264.118 74.5197 267.272 74.0418 268.929 73.086C270.65 72.0664 271.51 70.5053 271.51 68.4025C271.51 66.4271 270.841 65.0252 269.503 64.1969C268.228 63.3685 265.87 62.7313 262.43 62.2852L249.43 60.5647C244.906 59.9912 241.37 58.7168 238.821 56.7415C236.272 54.7024 234.997 51.6756 234.997 47.6612C234.997 44.8574 235.826 42.4041 237.483 40.3013C239.139 38.1348 241.625 36.4462 244.938 35.2355C248.252 34.0248 252.33 33.4194 257.173 33.4194C262.015 33.4194 266.157 34.0567 269.598 35.3311C273.103 36.6055 275.779 38.5171 277.627 41.066C279.539 43.6149 280.495 46.7691 280.495 50.5286V50.8154H270.267V50.2419C270.267 48.394 269.885 46.8328 269.12 45.5584C268.356 44.2839 266.986 43.3281 265.01 42.6909C263.099 41.99 260.39 41.6395 256.886 41.6395C252.489 41.6395 249.43 42.1493 247.71 43.1688C245.989 44.1883 245.129 45.8132 245.129 48.0435C245.129 49.8914 245.766 51.2296 247.041 52.0579C248.315 52.8863 250.705 53.5554 254.209 54.0652L265.201 55.5945C270.809 56.2954 274.951 57.6654 277.627 59.7045C280.303 61.7436 281.642 64.7385 281.642 68.6892C281.642 71.6204 280.718 74.1692 278.87 76.3358C277.022 78.4386 274.441 80.0635 271.128 81.2105C267.814 82.2937 263.927 82.8353 259.466 82.8353Z" fill="#DC143C"/>
<path d="M208.531 82.8353C203.369 82.8353 198.845 81.8795 194.958 79.9679C191.071 78.0562 188.044 75.2525 185.878 71.5567C183.775 67.8608 182.724 63.4003 182.724 58.1752C182.724 53.2049 183.775 48.8719 185.878 45.176C188.044 41.4802 191.039 38.6127 194.863 36.5736C198.686 34.4708 203.178 33.4194 208.34 33.4194C213.246 33.4194 217.547 34.3115 221.243 36.0957C225.003 37.8162 227.902 40.3651 229.941 43.7423C232.044 47.0558 233.095 51.134 233.095 55.9768C233.095 56.8052 233.064 57.6017 233 58.3663C232.936 59.0673 232.841 59.7682 232.713 60.4692H189.319V54.7342H225.927L223.25 58.2708C223.314 57.6335 223.346 57.0282 223.346 56.4547C223.346 55.8175 223.346 55.1803 223.346 54.5431C223.346 50.1463 222.072 46.8965 219.523 44.7937C217.038 42.6272 213.246 41.5439 208.149 41.5439C202.477 41.5439 198.431 42.8502 196.01 45.4628C193.588 48.0753 192.377 51.8349 192.377 56.7415V59.2266C192.377 64.1968 193.588 67.9883 196.01 70.6008C198.431 73.2134 202.509 74.5197 208.244 74.5197C213.214 74.5197 216.783 73.7551 218.949 72.2257C221.18 70.6327 222.295 68.4343 222.295 65.6306V64.8659H232.618V65.7262C232.618 69.1034 231.566 72.0983 229.463 74.7109C227.424 77.2597 224.589 79.267 220.957 80.7325C217.388 82.1344 213.246 82.8353 208.531 82.8353Z" fill="#DC143C"/>
<path d="M135.31 82.8334H124.987V18.7935H158.249C163.092 18.7935 167.266 19.5263 170.771 20.9918C174.339 22.4574 177.047 24.5921 178.895 27.3958C180.807 30.1996 181.763 33.6087 181.763 37.6231C181.763 41.1915 180.998 44.2501 179.469 46.799C178.003 49.3479 175.836 51.3551 172.969 52.8207C170.165 54.2863 166.756 55.1465 162.742 55.4014V56.0705C165.227 56.7077 167.138 57.7591 168.477 59.2247C169.879 60.6265 171.153 62.347 172.3 64.3861L183.005 82.8334H171.153L160.926 65.1507C159.97 63.4303 158.918 62.0603 157.771 61.0407C156.688 59.9575 155.318 59.1928 153.661 58.7468C152.005 58.237 149.806 57.9821 147.066 57.9821H135.31V82.8334ZM135.31 28.0649V50.0488H158.154C162.423 50.0488 165.641 49.2204 167.808 47.5637C169.974 45.9069 171.057 43.0713 171.057 39.0568C171.057 35.1698 169.974 32.3661 167.808 30.6456C165.641 28.9252 162.423 28.0649 158.154 28.0649H135.31Z" fill="#DC143C"/>
<path fill-rule="evenodd" clip-rule="evenodd" d="M52.3281 0.260742H41.7637L0 41.5885V61.9421L21.7261 82.8542H82.9301L104.656 61.9421V41.5885L62.8924 0.260742H52.3281ZM82.9301 62.7458V49.6555L52.3281 19.3423L21.7261 49.6555V62.7458L82.9301 62.7458Z" fill="#DC143C"/>
</svg>
