<svg width="100" height="35" viewBox="0 0 100 35" fill="none" xmlns="http://www.w3.org/2000/svg">
<path d="M31.0931 9.84242V26.6754C31.3014 31.1642 25.3086 33.8945 21.1437 34.7737C18.6033 34.9396 16.0643 34.4286 13.7858 33.2929L1.67305 27.034C1.35324 26.8455 1.09535 26.5677 0.930966 26.2349C0.76658 25.902 0.702832 25.5284 0.747528 25.1598V7.59803C0.747528 5.13382 3.06134 7.11213 4.81983 7.80627L14.0751 12.2951C16.0258 13.1388 18.1173 13.6097 20.2414 13.6833C24.1839 13.6538 28.0065 12.324 31.1163 9.90026L31.0931 9.84242Z" fill="white"/>
<path d="M62.3643 20.4973H49.083V24.5928H62.3643V20.4973Z" fill="white"/>
<path d="M64.597 5.93169H38.9253V24.662H45.08V17.3156H64.597C65.4625 17.3005 66.2876 16.9468 66.8953 16.3304C67.503 15.714 67.845 14.8841 67.8479 14.0185V9.24044C67.8451 8.37373 67.5035 7.54249 66.896 6.92426C66.2886 6.30602 65.4635 5.94981 64.597 5.93169ZM62.3642 12.0749C62.3611 12.5085 62.1867 12.9234 61.8789 13.229C61.5712 13.5346 61.1551 13.7061 60.7214 13.7061H44.9759V9.56437H60.7214C61.1522 9.56729 61.5649 9.73815 61.8717 10.0406C62.1785 10.3431 62.3551 10.7533 62.3642 11.184V12.0749ZM98.5637 12.0749V9.76104C98.5073 8.67658 98.0365 7.65522 97.2484 6.90808C96.4604 6.16093 95.4154 5.74512 94.3294 5.74659H73.7597C72.6396 5.75269 71.5674 6.20112 70.7764 6.99421C69.9855 7.7873 69.54 8.86079 69.537 9.98086V20.2195C69.54 21.3395 69.9855 22.413 70.7764 23.2061C71.5674 23.9992 72.6396 24.4476 73.7597 24.4537H94.3294C95.4057 24.4498 96.4401 24.0362 97.2223 23.2969C98.0045 22.5577 98.4759 21.5483 98.5406 20.474V20.474V18.1602H92.49V20.474H77.2304C76.7967 20.4709 76.3818 20.2965 76.0762 19.9887C75.7706 19.681 75.5991 19.2649 75.5992 18.8312V11.3691C75.5991 10.9354 75.7706 10.5193 76.0762 10.2116C76.3818 9.90382 76.7967 9.72939 77.2304 9.72634H92.4784V12.0401H98.5637V12.0749Z" fill="white"/>
<path d="M41.8522 29.8684V29.5792C41.8558 29.4457 41.8362 29.3126 41.7944 29.1858C41.7797 29.1384 41.7544 29.0949 41.7203 29.0588C41.6862 29.0227 41.6442 28.9949 41.5977 28.9776C41.4776 28.9222 41.348 28.8908 41.2159 28.885H40.6143C40.3909 28.8698 40.1667 28.8698 39.9433 28.885C39.7931 28.9058 39.6524 28.9702 39.5384 29.0701C39.435 29.1807 39.3736 29.324 39.3649 29.4751C39.3238 29.7002 39.3044 29.9288 39.307 30.1576V31.4534C39.292 31.6884 39.292 31.9241 39.307 32.1591C39.3296 32.3136 39.3891 32.4605 39.4806 32.5871C39.5903 32.6888 39.7268 32.757 39.8739 32.7838C40.1083 32.8118 40.3452 32.8118 40.5796 32.7838H41.239C41.3818 32.7746 41.5223 32.7434 41.6555 32.6913C41.7633 32.6347 41.8458 32.5397 41.8869 32.4252C41.9469 32.2745 41.9744 32.1129 41.9679 31.9508V31.6616H43.067V32.0434C43.1023 32.3862 43.0506 32.7324 42.9166 33.0499C42.8114 33.2659 42.6416 33.4438 42.4307 33.5589C42.1904 33.6691 41.9311 33.7319 41.6671 33.744H40.6722C40.2578 33.7757 39.841 33.7484 39.4343 33.6631C39.1616 33.6032 38.9099 33.4714 38.7054 33.2813C38.5265 33.0739 38.4066 32.8221 38.3584 32.5524C38.2836 32.1949 38.2487 31.8302 38.2542 31.4649V30.1923C38.2433 29.802 38.2901 29.4121 38.3931 29.0354C38.4734 28.7682 38.6255 28.5282 38.8327 28.3413C39.0479 28.1605 39.3075 28.0407 39.5847 27.9942C39.9663 27.9255 40.3538 27.8945 40.7416 27.9017H41.7018C41.9548 27.9135 42.2027 27.9765 42.4307 28.0868C42.6312 28.2025 42.7924 28.3758 42.8934 28.5842C43.0232 28.8877 43.0901 29.2144 43.0901 29.5445V29.8568H41.9332L41.8522 29.8684ZM47.1161 27.9479C47.3906 27.98 47.6529 28.0793 47.8797 28.2372C48.0975 28.3998 48.2593 28.6262 48.3424 28.885C48.4619 29.2584 48.5129 29.6504 48.4928 30.0419V31.6038C48.5058 31.9942 48.459 32.3844 48.354 32.7607C48.2761 33.0224 48.1232 33.2557 47.9144 33.4317C47.6918 33.6032 47.4289 33.7147 47.1508 33.7556C46.7689 33.8219 46.3816 33.8529 45.9939 33.8482C45.6068 33.8499 45.2201 33.8228 44.837 33.7672C44.5629 33.7325 44.3031 33.6246 44.085 33.4548C43.8715 33.2802 43.7212 33.0404 43.657 32.7722C43.5525 32.3958 43.5057 32.0058 43.5182 31.6153V29.9957C43.509 29.629 43.5519 29.2629 43.6454 28.9082C43.708 28.6546 43.8498 28.4276 44.0503 28.2603C44.2728 28.0906 44.5363 27.9828 44.8139 27.9479C45.1968 27.8913 45.5839 27.868 45.9708 27.8785C46.3326 27.8468 46.6965 27.8468 47.0583 27.8785L47.1161 27.9479ZM45.3114 28.885C45.1612 28.9058 45.0204 28.9702 44.9064 29.0701C44.811 29.1675 44.7501 29.2935 44.7329 29.4288C44.6981 29.6158 44.6788 29.8054 44.6751 29.9957V31.5575C44.6648 31.7866 44.6843 32.016 44.7329 32.2401C44.7549 32.3854 44.824 32.5196 44.9296 32.6218C45.0434 32.7201 45.1848 32.7807 45.3345 32.7954C45.5579 32.8101 45.7821 32.8101 46.0055 32.7954C46.2171 32.8157 46.4302 32.8157 46.6418 32.7954C46.7956 32.7771 46.9425 32.7215 47.0698 32.6334C47.1781 32.5278 47.2578 32.3965 47.3012 32.2516C47.3243 32.0286 47.3243 31.8037 47.3012 31.5806V30.0188C47.3134 29.8005 47.29 29.5817 47.2318 29.3709C47.1959 29.2325 47.1144 29.1103 47.0004 29.0239C46.8722 28.9394 46.7252 28.8878 46.5724 28.8735C46.3566 28.8604 46.1403 28.8604 45.9245 28.8735C45.6878 28.8646 45.4509 28.884 45.2188 28.9313L45.3114 28.885ZM53.1783 33.7209H52.1834L50.3323 28.8619L50.4364 33.7325H49.3374V27.9479H51.1306L52.704 32.2632L54.2542 27.9479H56.0706V33.7325H54.9137L55.0178 28.8388L53.1899 33.7325L53.1783 33.7209ZM56.9961 27.9364H59.5528C59.8826 27.9291 60.2121 27.9563 60.5362 28.0174C60.771 28.0603 60.9903 28.164 61.1725 28.3182C61.3436 28.4858 61.4639 28.6983 61.5196 28.9313C61.5966 29.2611 61.6316 29.5993 61.6237 29.9378C61.6326 30.2688 61.5976 30.5994 61.5196 30.9212C61.4629 31.1498 61.3378 31.3556 61.1609 31.5112C60.9739 31.6603 60.7501 31.7562 60.5131 31.7889C60.1968 31.8502 59.8749 31.8773 59.5528 31.8699H58.1067V33.744H56.9498V27.9595L56.9961 27.9364ZM59.5528 30.9096H60.0503C60.1591 30.8883 60.2595 30.836 60.3395 30.7592C60.4154 30.6813 60.4606 30.5786 60.4668 30.47C60.4874 30.3087 60.4874 30.1454 60.4668 29.9841C60.4812 29.8147 60.4812 29.6444 60.4668 29.4751C60.4499 29.3587 60.4063 29.2479 60.3395 29.1511C60.2606 29.0706 60.1602 29.0144 60.0503 28.9892C59.8812 28.9687 59.7103 28.9687 59.5413 28.9892H58.1067V31.0022L59.5528 30.9096ZM65.696 27.9595C65.9705 27.9916 66.2327 28.0909 66.4596 28.2487C66.6774 28.4113 66.8392 28.6378 66.9223 28.8966C67.0418 29.27 67.0928 29.662 67.0727 30.0535V31.6153C67.0888 32.0052 67.0459 32.3952 66.9455 32.7722C66.8675 33.034 66.7147 33.2673 66.5058 33.4432C66.2777 33.6127 66.0116 33.7239 65.7307 33.7672C65.3488 33.8343 64.9615 33.8652 64.5738 33.8597C64.1867 33.8617 63.8 33.8346 63.4169 33.7787C63.1393 33.7438 62.8758 33.6361 62.6533 33.4664C62.4474 33.2853 62.2986 33.0481 62.2253 32.7838C62.1312 32.4056 62.0884 32.0165 62.098 31.6269V29.9957C62.0889 29.629 62.1318 29.2629 62.2253 28.9082C62.2878 28.6546 62.4297 28.4276 62.6302 28.2603C62.8571 28.0906 63.1242 27.983 63.4053 27.9479C63.7882 27.8913 64.1753 27.868 64.5622 27.8785C64.9279 27.8472 65.2956 27.8472 65.6613 27.8785L65.696 27.9595ZM63.8912 28.8966C63.7411 28.9174 63.6003 28.9817 63.4863 29.0817C63.391 29.1807 63.3267 29.3053 63.3012 29.4404C63.3012 29.5907 63.3012 29.7759 63.3012 30.0072V31.5691C63.2777 31.796 63.2777 32.0247 63.3012 32.2516C63.3232 32.397 63.3923 32.5311 63.4979 32.6334C63.6132 32.7292 63.7539 32.7895 63.9028 32.8069C64.1262 32.821 64.3504 32.821 64.5738 32.8069C64.7854 32.8278 64.9985 32.8278 65.2101 32.8069C65.3608 32.7908 65.5045 32.7349 65.6266 32.645C65.7422 32.5434 65.8265 32.411 65.8695 32.2632C65.9177 32.043 65.9371 31.8174 65.9274 31.5922V30.0188C65.9425 29.8011 65.923 29.5825 65.8695 29.3709C65.8297 29.2313 65.7442 29.1091 65.6266 29.0239C65.5036 28.9376 65.3598 28.8857 65.2101 28.8735C64.9982 28.8608 64.7857 28.8608 64.5738 28.8735C64.3333 28.8641 64.0925 28.8835 63.8565 28.9313L63.8912 28.8966ZM72.14 27.9364H73.239V33.7209H71.3995L68.9238 28.8735L69.0047 33.7209H67.8478V27.9364H69.6989L72.1862 32.7838L72.0937 27.9364H72.14ZM75.2867 30.3427H78.0055V31.2451H75.2867V32.7838H78.1674V33.7325H74.1645V27.9479H78.1327V28.8966H75.2752V30.3427H75.2867ZM83.2809 27.9364H84.4378V33.7209H82.5868L80.111 28.8735L80.2036 33.7209H79.0467V27.9364H80.8746L83.3619 32.7838L83.2578 27.9364H83.2809ZM87.7235 33.7209H86.5666V28.8735H84.9122V27.9248H89.4357V28.8735H87.735V33.7209H87.7235ZM90.9859 30.3312H93.6931V31.2336H90.9859V32.7722H93.8666V33.7209H89.829V27.9364H93.8088V28.885H90.9859V30.3312ZM95.6135 31.893V32.1591C95.5867 32.2888 95.5867 32.4227 95.6135 32.5524C95.6544 32.6455 95.7287 32.7199 95.8218 32.7607C95.9501 32.8157 96.0873 32.847 96.2267 32.8532H96.8514C97.0517 32.8684 97.2528 32.8684 97.453 32.8532C97.5834 32.8423 97.7079 32.7941 97.8117 32.7144C97.8894 32.6426 97.9455 32.5504 97.9736 32.4483C97.9881 32.3099 97.9881 32.1703 97.9736 32.0318C97.9802 31.8698 97.9526 31.7082 97.8926 31.5575C97.8275 31.467 97.7397 31.3952 97.6381 31.3492C97.5052 31.2988 97.3637 31.2752 97.2216 31.2798H96.6548L95.7755 31.2104C95.5303 31.1883 95.2911 31.1217 95.0698 31.0137C94.8545 30.9101 94.6825 30.734 94.5839 30.5163C94.4511 30.2103 94.3917 29.8775 94.4104 29.5445C94.3921 29.2252 94.4558 28.9066 94.5955 28.619C94.7022 28.4059 94.8774 28.2348 95.0929 28.1331C95.3269 28.015 95.5832 27.948 95.8449 27.9364H96.8052H97.6497C97.8858 27.9527 98.117 28.0115 98.3323 28.1099C98.5326 28.2154 98.6945 28.3814 98.795 28.5842C98.9198 28.8601 98.9792 29.161 98.9686 29.4635V29.5792H97.9274V29.3941C97.9472 29.2715 97.9472 29.1465 97.9274 29.0239C97.896 28.9418 97.8337 28.8754 97.7538 28.8388C97.6524 28.7902 97.5422 28.7626 97.4299 28.7578H96.9324H96.273C96.1407 28.7703 96.0115 28.8055 95.8912 28.8619C95.806 28.9117 95.7406 28.9893 95.7061 29.0817C95.6862 29.2082 95.6862 29.337 95.7061 29.4635C95.6904 29.6019 95.6904 29.7416 95.7061 29.88C95.7329 29.9731 95.7952 30.0521 95.8796 30.0998C96.0006 30.1669 96.1349 30.2064 96.273 30.2155L96.944 30.2733C97.3952 30.2733 97.7654 30.2733 98.1009 30.3659C98.3484 30.3916 98.5883 30.4663 98.8066 30.5857C98.9753 30.7049 99.1011 30.8753 99.1652 31.0716C99.2442 31.3538 99.2794 31.6464 99.2694 31.9393C99.2847 32.2662 99.2336 32.5929 99.119 32.8995C99.044 33.1187 98.8972 33.3062 98.7025 33.4317C98.4845 33.5633 98.239 33.6426 97.9852 33.6631C97.6577 33.6826 97.3293 33.6826 97.0018 33.6631H96.0879C95.8212 33.6622 95.5575 33.6071 95.3127 33.5011C95.0881 33.3999 94.9017 33.2297 94.7806 33.0152C94.6241 32.7246 94.5519 32.396 94.5723 32.0665V31.893H95.7292H95.6135Z" fill="white"/>
<path d="M15.1741 7.85231C16.7753 8.68068 18.5036 9.23591 20.2876 9.49512H20.4149C22.5404 9.23165 24.6015 8.58904 26.5002 7.59779C26.9051 7.3317 27.553 6.68384 25.9796 5.88557C23.2146 4.46258 18.4366 2.11406 18.4366 2.11406C16.6434 1.41992 14.3643 -0.569953 14.3643 1.88268V7.44739L15.1741 7.85231Z" fill="white"/>
</svg>
