<svg width="400" height="112" viewBox="0 0 400 112" fill="none" xmlns="http://www.w3.org/2000/svg">
<path d="M279.581 18.283C258.284 7.64591 237.25 6.51561 224.163 10.3167C199.974 17.3598 192.475 47.143 214.885 61.7354C216.241 62.618 215.39 64.4766 213.689 67.4492C211.59 71.1379 207.691 78.4044 200.813 83.6417C196.665 86.8065 193.976 88.1128 197.385 92.014C197.385 92.014 204.964 100.228 210.559 102.623C217.308 105.482 218.997 105.006 224.021 100.446C227.177 97.5816 233.438 89.744 240.991 77.2768C244.907 70.7927 250.15 70.6682 249.435 81.3364C249.435 81.3364 248.403 91.6039 248.121 93.7264C247.276 99.8463 247.933 101.97 253.586 102.023C253.586 102.023 265.742 101.365 269.958 100.794C275.892 100.011 275.57 99.0815 277.124 94.5454C285.427 70.3393 286.131 28.7819 286.131 28.7819C286.482 23.2198 284.665 20.8305 279.581 18.283ZM264.03 40.6941C264.03 40.6941 256.49 45.7067 256.301 45.8367C255.662 46.3254 254.782 46.8952 254.665 49.2141C254.619 50.1792 254.325 57.022 254.307 57.8694C254.29 58.8156 253.868 61.3943 250.794 58.7628C250.794 58.7628 245.657 54.4026 244.895 53.7502C244.725 53.6094 242.959 51.6791 240.215 52.8256L232.171 55.9377C232.171 55.9377 227.326 57.8504 229.133 53.6378C230.881 49.543 232.053 46.1304 232.439 45.0353C232.839 43.8942 232.697 42.282 231.719 41.1517C231.267 40.6454 227.41 35.7032 226.522 34.4795C226.522 34.4795 223.351 30.8192 228.639 31.0669C228.639 31.0669 237.67 31.2605 237.81 31.2781C237.962 31.2903 239.651 31.4013 240.86 29.5603C242.349 27.2956 246.712 21.9879 245.803 23.1115C246.565 22.1883 248.336 19.8694 249.509 23.7057C249.509 23.7057 251.168 28.7657 251.955 30.8842C252.494 32.3204 252.834 33.3018 255.52 34.1316L263.817 37.0379C263.82 37.0406 267.695 38.1993 264.03 40.6941Z" fill="#FAF8F8"/>
<path d="M104.75 50.5082C100.883 44.2895 94.685 40.2881 87.2989 39.2769C77.8677 37.9882 68.74 41.7311 63.4801 49.0084C59.6191 54.3743 58.3753 60.8231 59.9914 67.1893C63.8767 82.5276 79.4286 86.8052 89.162 84.0153C100.145 80.8626 106.287 74.6304 107.956 64.9991C108.756 60.352 107.589 55.0795 104.75 50.5082ZM78.0053 71.2314C74.9295 70.2364 72.6428 65.4891 73.7545 60.3344C74.8593 55.1729 78.6003 51.5966 82.0754 52.6619C85.162 53.6203 87.4312 58.664 86.3587 63.8296C85.2093 69.3254 81.5304 72.3793 78.0053 71.2314Z" fill="#FAF8F8"/>
<path d="M301.271 38.7706C300.38 40.0945 293.354 50.4202 292.475 66.3013C292.093 73.362 295.296 79.5861 301.052 82.9689C307.437 86.7226 315.73 86.4167 323.224 82.1161C339.321 72.8841 341.127 49.6378 340.675 39.1469C340.575 36.7171 339.103 35.2633 336.635 35.1577C335.692 35.1103 333.65 35.182 331.346 35.3756C329.007 35.5692 327.605 37.153 327.495 39.7181L327.47 40.4004C327.365 50.144 326.684 58.7993 322.31 64.1178C319.449 67.6319 316.031 69.0316 313.779 68.1193C311.768 67.3192 310.478 64.7067 310.794 62.0291C311.561 55.3691 314.466 50.1318 316.26 46.7842L317.027 45.3318C318.124 43.0779 317.573 40.6779 315.731 39.7533C314.664 39.2119 312.335 38.3767 310.278 37.6403L307.797 36.7455C306.033 36.0754 303.429 35.5516 301.271 38.7706Z" fill="#FAF8F8"/>
<path d="M357.681 31.9807C350.69 35.6058 347.102 40.5534 346.364 47.5545C345.36 56.999 358.619 63.5818 361.773 65.2414C365.573 67.2462 365.713 69.565 364.729 70.943C363.174 73.0967 358.87 72.4902 355.698 71.2489C352.216 69.9142 350.443 68.2953 347.577 65.0654C345.893 63.1717 340.78 68.5958 339.983 72.3792C339.615 74.1079 340.311 74.9268 341.397 76.4727C344.181 80.4268 353.142 87.4576 366.129 88.4052C369.712 88.6692 379.035 88.8763 385.327 83.1977C387.872 80.9141 390.645 77.1143 391.607 72.5891C392.263 69.4526 392.217 65.3578 389.695 61.6204C386.16 56.3668 380.267 52.8893 373.721 49.9004C364.175 45.5403 366.017 42.9629 368.151 41.7757C370.156 40.6468 376.947 41.44 382.272 46.3416C384.968 48.8242 390.563 41.1165 388.241 38.4931C379.739 28.9322 365.303 28.032 357.681 31.9807Z" fill="#FAF8F8"/>
<path d="M161.444 32.6452C156.123 49.3494 133.422 87.5415 124.558 91.2004C123.304 91.7189 123.052 91.8651 121.75 91.6878C117.041 91.0299 111.174 85.1212 109.29 82.9391C108.448 81.9739 106.636 79.7512 108.093 78.5722C113.631 74.143 120.507 67.3815 120.835 63.4166C120.908 62.5516 120.638 61.6392 120.318 61.2101C119.803 60.5211 105.415 41.4982 103.968 39.4744C101.519 35.9969 101.531 35.1793 104.246 33.8554C106.957 32.5193 111.277 30.7081 114.303 29.5305C117.334 28.3717 117.797 29.1893 118.651 30.1491L131.548 46.4228C132.477 47.059 133.319 46.8817 133.996 46.0816C135.644 44.1337 142.607 31.519 143.7 29.5305C144.984 27.324 147.104 27.9304 149.235 27.9183C151.499 27.9007 155 27.9304 158.665 28.1064C162.189 28.2905 162.511 29.2854 161.444 32.6452Z" fill="#FAF8F8"/>
<path d="M167.897 36.617C162.092 40.2421 159.33 44.7958 159.198 50.9265C159.01 59.2055 170.444 64.6891 173.314 65.9291C176.759 67.4181 177.246 69.1955 176.628 70.5302C175.728 72.5187 173.676 72.8828 171.265 72.3955C166.894 71.4953 163.484 67.6591 160.045 65.7288C158.098 64.658 155.228 68.3765 154.809 71.7255C154.615 73.2429 155.085 74.0957 156.339 75.1665C159.558 77.9726 166.193 84.5216 179.354 85.105C182.483 85.2404 190.613 84.6164 195.667 79.2626C197.716 77.0914 199.862 74.2203 200.367 70.2188C200.707 67.4655 200.074 64.1057 197.908 60.8231C196.096 58.0819 192.785 55.3394 186.986 52.9218C177.577 49.0381 180.549 45.1193 182.782 44.3843C184.694 43.7494 188.041 44.2435 193.61 47.6033C196.629 49.4266 200.626 42.2671 198.136 40.4722C185.646 31.4446 174.245 32.6629 167.897 36.617Z" fill="#FAF8F8"/>
<path d="M16.0635 27.5732C36.4841 27.4148 43.3886 27.0196 61.8099 23.9847C65.9623 23.2957 66.3022 25.3668 66.9808 26.6974C67.5433 27.8033 68.6253 33.5808 68.5524 35.0644C68.4755 36.5344 69.2094 38.6881 66.7231 39.3893C58.9661 41.5606 56.9331 42.2374 51.7824 43.767C49.404 44.4845 49.5537 45.4848 49.6212 47.3096C49.9868 57.4295 53.3446 70.8091 55.7216 78.2867C56.7239 81.4407 57.1732 83.6878 54.9769 84.523C51.9254 85.6465 43.4169 87.9653 41.1357 88.4432C37.1856 89.2716 36.615 86.3653 36.2427 84.8763C32.8916 71.4155 31.2296 57.7057 30.9031 52.5807C30.7358 49.9681 29.8832 47.5207 27.4347 47.5857C24.916 47.6331 22.1019 47.9444 16.6247 48.0446C13.696 48.1096 12.1445 47.9268 11.7547 45.4144C11.3608 42.8831 11.47 31.4447 11.9004 29.6687C12.3348 27.867 14.4096 27.5908 16.0635 27.5732Z" fill="#FAF8F8"/>
<path d="M396.604 35.9631C396.604 34.2033 395.125 32.7793 393.296 32.7793C391.479 32.7793 390.002 34.2033 390.002 35.9631C390.002 37.7459 391.48 39.1577 393.296 39.1577C395.127 39.1591 396.604 37.7459 396.604 35.9631Z" fill="#FAF8F8"/>
<path d="M391.973 37.9882V33.6809H393.32C393.743 33.6809 394.072 33.7743 394.295 33.9571C394.529 34.133 394.641 34.3929 394.641 34.7571C394.641 35.327 394.342 35.7344 393.744 35.9808L395.221 37.9869H394.448L393.187 36.1689H392.605V37.9869L391.973 37.9882ZM392.605 35.7222H392.805C393.602 35.7222 393.99 35.4041 393.99 34.8044C393.99 34.3632 393.66 34.133 393.005 34.133H392.605V35.7222Z" fill="#FAF8F8"/>
</svg>
