<svg width="161" height="36" viewBox="0 0 161 36" fill="none" xmlns="http://www.w3.org/2000/svg">
<path d="M124.546 14.3893V24.4532H126.447V12.8109L124.122 13.5237L124.597 14.3893H124.546ZM125.564 9.04334C125.237 9.03261 124.917 9.14527 124.669 9.35901C124.42 9.57275 124.262 9.87197 124.223 10.1974C124.219 10.3376 124.243 10.4773 124.294 10.608C124.345 10.7387 124.422 10.8576 124.52 10.9576C124.619 11.0576 124.736 11.1366 124.866 11.1897C124.996 11.2428 125.135 11.2689 125.276 11.2666C125.6 11.2814 125.917 11.1719 126.163 10.9606C126.409 10.7493 126.565 10.452 126.599 10.1295C126.606 9.98932 126.585 9.84921 126.536 9.71767C126.487 9.58614 126.412 9.46592 126.315 9.36433C126.218 9.26274 126.101 9.1819 125.972 9.12672C125.843 9.07154 125.704 9.04317 125.564 9.04334ZM115.992 7.48199H113.464L113.99 8.38147V24.4532H122.017L122.577 22.9088H115.992V7.48199ZM136.511 22.8918C135.997 23.1929 135.408 23.3402 134.813 23.3161C134.217 23.3109 133.627 23.1867 133.079 22.9506C132.532 22.7145 132.036 22.3714 131.623 21.9414V15.2548C131.911 14.9344 132.264 14.6805 132.66 14.5105C133.056 14.3406 133.484 14.2586 133.914 14.2705C134.522 14.2902 135.12 14.4298 135.673 14.6812C136.227 14.9327 136.726 15.2911 137.14 15.7358C137.555 16.1805 137.878 16.7028 138.09 17.2726C138.302 17.8425 138.4 18.4486 138.377 19.0563C138.402 19.7993 138.245 20.5371 137.919 21.2055C137.594 21.874 137.11 22.4528 136.511 22.8918ZM134.983 12.8109C133.741 12.8571 132.548 13.3103 131.589 14.1008V7.17651L129.213 7.87233L129.688 8.73786V23.8761C129.921 23.9443 130.159 23.9898 130.401 24.0119C130.537 24.0119 130.571 23.5537 130.672 23.5537C130.774 23.5537 130.757 23.5537 130.825 23.6725C130.988 23.7899 131.158 23.8976 131.334 23.9949C132.192 24.4875 133.162 24.7505 134.152 24.7586C135.075 24.7515 135.981 24.506 136.782 24.0459L137.648 23.5198C138.486 22.9904 139.173 22.2522 139.64 21.3774C140.107 20.5027 140.339 19.5215 140.312 18.5302C140.342 17.8039 140.227 17.0788 139.974 16.3971C139.722 15.7154 139.336 15.0906 138.841 14.5587C138.345 14.0268 137.749 13.5985 137.087 13.2985C136.425 12.9985 135.71 12.8328 134.983 12.8109V12.8109ZM157.724 22.3657C157.549 22.5588 157.356 22.7349 157.147 22.8918C156.624 23.1675 156.042 23.313 155.45 23.3161C154.845 23.2943 154.251 23.1529 153.701 22.9C153.151 22.6472 152.657 22.2879 152.247 21.8429C151.836 21.3979 151.518 20.8761 151.311 20.3075C151.103 19.7389 151.011 19.1349 151.038 18.5302C151.013 17.7848 151.17 17.0447 151.496 16.3736C151.821 15.7024 152.304 15.1204 152.905 14.6778C153.419 14.3808 154.009 14.2393 154.602 14.2705C155.207 14.2923 155.803 14.4336 156.353 14.6863C156.904 14.9389 157.4 15.2979 157.811 15.7427C158.223 16.1874 158.543 16.7091 158.752 17.2778C158.961 17.8464 159.056 18.4509 159.031 19.0563C159.017 20.2763 158.566 21.4507 157.758 22.3657H157.724ZM155.416 12.8109C154.429 12.8066 153.459 13.0769 152.616 13.5916L151.751 14.1008C150.908 14.6187 150.217 15.3494 149.746 16.2193C149.275 17.0892 149.042 18.0676 149.069 19.0563C149.027 20.0471 149.255 21.0307 149.727 21.9024C150.2 22.774 150.901 23.5011 151.754 24.0062C152.607 24.5113 153.582 24.7754 154.573 24.7704C155.565 24.7654 156.537 24.4916 157.385 23.978L158.234 23.4519C159.073 22.9393 159.764 22.2146 160.234 21.3506C160.705 20.4866 160.94 19.5138 160.915 18.5302C160.94 17.791 160.817 17.0542 160.552 16.3635C160.287 15.6728 159.887 15.0422 159.374 14.509C158.861 13.9758 158.247 13.5508 157.567 13.2591C156.887 12.9675 156.156 12.8151 155.416 12.8109ZM145.726 13.4728C145.28 13.7499 144.875 14.0868 144.521 14.4741V12.777L142.179 13.4898L142.637 14.3553V24.4532H144.487V15.7809C144.669 15.3287 144.984 14.9423 145.39 14.6726C145.796 14.4029 146.274 14.2627 146.761 14.2705C147.35 14.309 147.925 14.4587 148.458 14.7117L148.95 13.0146C148.612 12.8719 148.248 12.8025 147.881 12.8109C147.114 12.7834 146.36 13.0167 145.743 13.4728H145.726ZM103.943 13.2861V24.4532H105.284V12.183L103.586 12.6752L103.909 13.2861H103.943ZM95.8646 19.5485C95.9048 19.13 96.0329 18.7247 96.2406 18.3592C96.4482 17.9936 96.7307 17.676 97.0695 17.4271C97.4342 17.2336 97.8456 17.1454 98.2575 17.1725C98.9177 17.172 99.5553 17.4135 100.049 17.8513C100.544 18.2892 100.86 18.893 100.939 19.5485H95.8646ZM98.7497 16.1543C97.8639 16.1798 97.0112 16.4958 96.3228 17.0537C95.7352 17.43 95.2537 17.9503 94.9239 18.5652C94.5942 19.1801 94.4273 19.8691 94.439 20.5668C94.4254 21.0901 94.5167 21.6109 94.7077 22.0983C94.8986 22.5858 95.1852 23.03 95.5506 23.4049C95.916 23.7798 96.3528 24.0777 96.8352 24.2811C97.3176 24.4844 97.8358 24.5891 98.3593 24.5889C99.1722 24.5817 99.9686 24.3592 100.667 23.944C101.135 23.6938 101.573 23.3921 101.974 23.0446L101.669 22.4506C100.962 23.1618 100.007 23.5697 99.0042 23.5876C98.3421 23.5803 97.6991 23.365 97.1661 22.9721C96.6331 22.5792 96.2372 22.0287 96.0343 21.3984C95.9304 21.1381 95.8674 20.8633 95.8476 20.5837C95.841 20.5444 95.841 20.5043 95.8476 20.4649H102.093C102.153 19.9575 102.153 19.4449 102.093 18.9375C101.95 18.1555 101.537 17.4485 100.926 16.9399C100.315 16.4312 99.5447 16.1532 98.7497 16.1543V16.1543ZM61.5149 16.1543C61.5056 15.888 61.5592 15.6232 61.6712 15.3814C61.7832 15.1397 61.9506 14.9277 62.1598 14.7626C62.4368 14.6602 62.73 14.6084 63.0254 14.6099C64.016 14.6655 64.957 15.0611 65.6898 15.73L66.2838 14.0329C65.4948 13.4301 64.5274 13.1076 63.5345 13.1164C62.9715 13.14 62.4233 13.3033 61.9392 13.5916L61.0737 14.1177C60.6216 14.3804 60.2489 14.7604 59.995 15.2175C59.7411 15.6745 59.6154 16.1917 59.6311 16.7143C59.6311 20.6686 64.8243 18.6999 64.8582 21.9754C64.8818 22.1855 64.8615 22.3983 64.7986 22.6001C64.7357 22.802 64.6315 22.9886 64.4927 23.1482C64.3539 23.3077 64.1835 23.4367 63.9923 23.5269C63.801 23.6172 63.5931 23.6668 63.3818 23.6725C62.2405 23.6202 61.1537 23.1699 60.31 22.3997L59.6651 24.0968C60.5459 24.7422 61.6109 25.0873 62.7029 25.0811C63.3037 25.0801 63.8919 24.9095 64.4 24.5889L65.2486 24.0798C65.7158 23.7904 66.1004 23.3853 66.365 22.9036C66.6296 22.4219 66.7654 21.88 66.759 21.3305C66.759 17.2913 61.5658 19.1751 61.5319 16.1203L61.5149 16.1543ZM72.8517 23.5876C72.5334 23.6182 72.2122 23.5823 71.9085 23.4823C71.6049 23.3822 71.3253 23.2201 71.0875 23.0063C70.8498 22.7925 70.6591 22.5316 70.5274 22.2402C70.3958 21.9488 70.3262 21.6332 70.323 21.3135C70.3002 20.9286 70.3683 20.5438 70.5216 20.1901C70.6749 19.8363 70.9091 19.5236 71.2055 19.277C72.4153 18.8244 73.6984 18.6 74.99 18.6151V22.0093C74.7833 22.4213 74.4757 22.7742 74.0959 23.0354C73.7161 23.2965 73.2764 23.4573 72.8177 23.5028L72.8517 23.5876ZM76.9247 21.7378V16.1543C76.94 15.7164 76.8605 15.2804 76.6914 14.8762C76.5224 14.4721 76.268 14.1092 75.9455 13.8126C75.6231 13.5159 75.2404 13.2926 74.8235 13.1578C74.4066 13.0229 73.9656 12.9799 73.5305 13.0316C72.041 13.0649 70.5969 13.5503 69.3895 14.4232L69.712 15.2718C70.5619 14.7876 71.5176 14.5195 72.4953 14.4911C72.7883 14.4608 73.0844 14.4899 73.3659 14.5768C73.6474 14.6637 73.9085 14.8064 74.1335 14.9966C74.3586 15.1868 74.5429 15.4204 74.6755 15.6834C74.8081 15.9465 74.8862 16.2336 74.9052 16.5276C74.9233 16.8328 74.9233 17.1389 74.9052 17.4441C73.5028 17.4271 72.119 17.7657 70.883 18.4284L70.0005 18.9715C69.4864 19.2754 69.0657 19.7147 68.7844 20.2414C68.5031 20.7682 68.3719 21.3621 68.4052 21.9584C68.4016 22.3796 68.4855 22.7969 68.6518 23.1839C68.8181 23.5708 69.063 23.919 69.371 24.2063C69.679 24.4935 70.0434 24.7136 70.441 24.8525C70.8386 24.9915 71.2608 25.0462 71.6807 25.0132C73.0313 24.8393 74.2732 24.1822 75.1767 23.1634C75.4143 24.4532 76.161 24.7586 77.3321 24.7586H77.943L78.4521 23.384C77.2642 23.384 76.9078 22.9936 76.8908 21.6869L76.9247 21.7378ZM52.6051 23.8422C52.2859 23.8703 51.9644 23.8321 51.6606 23.73C51.3569 23.628 51.0776 23.4642 50.8402 23.2491C50.6027 23.034 50.4123 22.7721 50.2809 22.4799C50.1494 22.1877 50.0798 21.8715 50.0764 21.5511C50.055 21.1689 50.1237 20.787 50.277 20.4362C50.4303 20.0854 50.6639 19.7755 50.9589 19.5315C52.1658 19.067 53.4502 18.8366 54.7434 18.8527V22.3318C54.537 22.7387 54.2343 23.089 53.8616 23.3523C53.4889 23.6155 53.0576 23.7837 52.6051 23.8422ZM56.6781 21.9923V16.3919C56.6938 15.9546 56.6143 15.5192 56.4452 15.1157C56.276 14.7122 56.0213 14.3503 55.6985 14.0549C55.3757 13.7596 54.9926 13.5378 54.5757 13.4051C54.1588 13.2724 53.718 13.2318 53.2839 13.2861C51.7975 13.3219 50.3556 13.8005 49.1429 14.6608L49.4654 15.5263C50.3153 15.0422 51.271 14.7741 52.2487 14.7457C52.5443 14.7104 52.8441 14.7359 53.1296 14.8205C53.4151 14.9051 53.6803 15.0471 53.9091 15.2377C54.1378 15.4284 54.3253 15.6636 54.46 15.9292C54.5947 16.1948 54.6738 16.485 54.6925 16.7822C54.7106 17.0817 54.7106 17.3821 54.6925 17.6817C53.2921 17.6809 51.9122 18.0186 50.6703 18.666L49.7878 19.226C49.2698 19.5255 48.8458 19.964 48.5639 20.4918C48.282 21.0197 48.1534 21.6159 48.1926 22.213C48.1913 22.6349 48.2774 23.0526 48.4456 23.4396C48.6138 23.8266 48.8603 24.1746 49.1696 24.4616C49.4789 24.7486 49.8443 24.9684 50.2429 25.1072C50.6414 25.2459 51.0643 25.3006 51.485 25.2678C52.8272 25.0827 54.0601 24.4272 54.9641 23.4179C55.2016 24.7077 55.9484 25.0132 57.1194 24.9962H57.7473L58.2395 23.6046C57.0515 23.6046 56.6951 23.2312 56.6781 21.9923V21.9923ZM91.4521 22.8918C91.2348 23.1206 90.9707 23.2997 90.6777 23.4168C90.3848 23.534 90.07 23.5865 89.7549 23.5707C89.3255 23.5554 88.9032 23.4553 88.5126 23.2762C88.122 23.097 87.7706 22.8424 87.4788 22.5269C87.187 22.2114 86.9604 21.8413 86.8122 21.4379C86.664 21.0345 86.5971 20.6058 86.6153 20.1764C86.5989 19.6504 86.7109 19.1282 86.9415 18.6551C87.1721 18.182 87.5145 17.7722 87.939 17.461C88.2978 17.2494 88.7112 17.149 89.127 17.1725C89.5549 17.1718 89.9782 17.2605 90.3698 17.433C90.7615 17.6054 91.1127 17.8577 91.4012 18.1738V22.8748L91.4521 22.8918ZM91.4521 13.2861V16.6804C90.9221 16.3005 90.2881 16.0931 89.6362 16.0864C88.9832 16.0906 88.3438 16.2725 87.7863 16.6125L87.1753 16.9859C86.5866 17.3609 86.1042 17.881 85.7743 18.4962C85.4444 19.1113 85.2782 19.801 85.2915 20.4989C85.2284 21.2402 85.3892 21.9833 85.7531 22.6322C86.117 23.2811 86.6673 23.8058 87.3327 24.1385C87.9981 24.4712 88.748 24.5966 89.4855 24.4984C90.2229 24.4001 90.9139 24.0829 91.469 23.5876V24.4532H92.7928V12.183L91.0957 12.6752L91.4351 13.2861H91.4521ZM41.9302 23.9271C39.9617 23.9002 38.0842 23.0936 36.7097 21.6841C35.3352 20.2746 34.576 18.3774 34.5987 16.4088C34.5579 15.183 34.8218 13.9661 35.3668 12.8673C35.9118 11.7685 36.7208 10.822 37.7213 10.1125C38.6645 9.53359 39.7546 9.23897 40.861 9.26397C42.48 9.22706 44.072 9.68277 45.4263 10.5707L46.0542 8.66998C44.6815 7.99856 43.1696 7.66127 41.6417 7.68565C40.2003 7.75677 38.7998 8.18859 37.5686 8.94152L36.6522 9.48459C35.3653 10.2611 34.3033 11.3599 33.5712 12.6725C32.839 13.9851 32.4619 15.466 32.4773 16.9689C32.4773 19.2194 33.3713 21.3777 34.9626 22.9691C36.554 24.5604 38.7123 25.4545 40.9628 25.4545C42.9344 25.523 44.8715 24.9251 46.4615 23.7573L46.2918 22.6882C44.986 23.509 43.4725 23.9389 41.9302 23.9271Z" fill="white"/>
<path d="M28.981 26.778C29.0421 27.5009 29.0421 28.2275 28.981 28.9504C27.65 30.8183 25.8942 32.3433 23.8583 33.3997C21.8224 34.456 19.5646 35.0134 17.2709 35.026C13.1469 35.026 11.1443 32.0561 5.5778 32.3276C3.7128 32.4246 1.92305 33.0942 0.452503 34.2454C0.272837 33.8345 0.197067 33.3857 0.231878 32.9386C0.778617 31.9957 1.52603 31.1845 2.42116 30.5626C4.78015 26.7102 6.23967 12.3526 5.32323 2.6111C6.10538 1.71225 7.12183 1.04833 8.25924 0.693359C8.55809 1.37878 8.71401 2.11794 8.71746 2.86567C8.97203 7.48183 7.3428 22.2637 4.91592 29.171C6.20166 28.847 7.534 28.7494 8.85323 28.8825C12.2475 29.3746 14.8441 32.5482 19.2905 32.3616C21.2201 32.2131 23.0919 31.6345 24.7687 30.6684C26.4456 29.7022 27.8849 28.3729 28.981 26.778" fill="white"/>
<path d="M24.8061 26.7273L23.8387 27.1176C23.4489 27.2862 23.0459 27.4225 22.6338 27.5249C22.1586 27.6268 21.6834 27.7286 21.2082 27.8644H20.9706C20.8431 27.9282 20.7281 28.0144 20.6312 28.1189C20.5071 28.2502 20.4223 28.4135 20.3864 28.5905C20.3504 28.7675 20.3646 28.951 20.4275 29.1202C20.4872 29.2977 20.598 29.4536 20.7459 29.5683C20.8938 29.683 21.0724 29.7515 21.2591 29.7651C21.5434 29.7666 21.8235 29.6965 22.0737 29.5615C22.3478 29.4472 22.6094 29.305 22.8544 29.1372C23.1822 28.931 23.4792 28.6796 23.7369 28.3905C24.2023 27.9013 24.5657 27.3244 24.8061 26.6934V26.6934" fill="white"/>
</svg>
