<svg width="400" height="76" viewBox="0 0 400 76" fill="none" xmlns="http://www.w3.org/2000/svg">
<g clip-path="url(#clip0_108_1286)">
<path fill-rule="evenodd" clip-rule="evenodd" d="M366.577 75.1499C348.363 75.1499 333.576 58.5477 333.576 38.0979C333.576 17.6481 348.41 1.0459 366.577 1.0459C384.744 1.0459 399.578 17.6481 399.578 38.0979C399.578 58.5477 384.791 75.1499 366.577 75.1499ZM366.577 6.26375C350.945 6.26375 338.223 20.547 338.223 38.0979C338.223 55.6489 350.945 69.9321 366.577 69.9321C382.209 69.9321 394.93 55.6489 394.93 38.0979C394.93 20.547 382.209 6.26375 366.577 6.26375ZM117.029 75.1499C98.8147 75.1499 84.0277 58.5477 84.0277 38.0979C84.0277 17.6481 98.8616 1.0459 117.029 1.0459C135.195 1.0459 150.029 17.6481 150.029 38.0979C150.029 58.5477 135.242 75.1499 117.029 75.1499ZM117.029 6.26375C101.397 6.26375 88.675 20.547 88.675 38.0979C88.675 55.6489 101.397 69.9321 117.029 69.9321C132.661 69.9321 145.382 55.6489 145.382 38.0979C145.382 20.547 132.661 6.26375 117.029 6.26375ZM226.499 60.6032C221.382 66.3481 214.294 69.9321 206.455 69.9321C190.823 69.9321 178.101 55.6489 178.101 38.0979C178.101 20.547 190.823 6.26375 206.455 6.26375C214.294 6.26375 221.382 9.84773 226.499 15.5926L229.785 11.9032C223.824 5.20964 215.562 1.0459 206.455 1.0459C188.241 1.0459 173.454 17.6481 173.454 38.0979C173.454 58.5477 188.241 75.1499 206.455 75.1499C215.562 75.1499 223.824 70.9862 229.785 64.2926L226.499 60.6032ZM307.616 60.6032C302.5 66.3481 295.411 69.9321 287.572 69.9321C271.94 69.9321 259.218 55.6489 259.218 38.0979C259.218 20.547 271.94 6.26375 287.572 6.26375C295.411 6.26375 302.5 9.84773 307.616 15.5926L310.902 11.9032C304.941 5.20964 296.679 1.0459 287.572 1.0459C269.358 1.0459 254.571 17.6481 254.571 38.0979C254.571 58.5477 269.358 75.1499 287.572 75.1499C296.679 75.1499 304.941 70.9862 310.902 64.2926L307.616 60.6032ZM52.0596 62.0262C47.0837 66.9278 40.5117 69.9321 33.3764 69.9321C17.7444 69.9321 5.02289 55.6489 5.02289 38.0979C5.02289 20.547 17.7444 6.26375 33.3764 6.26375C41.2158 6.26375 48.3042 9.84773 53.421 15.5926L56.707 11.9032C50.7452 5.20964 42.4833 1.0459 33.3764 1.0459C15.2095 1.0459 0.375549 17.7009 0.375549 38.0979C0.375549 58.495 15.1625 75.1499 33.3764 75.1499C42.4833 75.1499 50.7452 70.9862 56.707 64.2926V38.8885H52.0596V62.0262Z" fill="#FAF8F8" stroke="#FAF8F8" stroke-width="0.17"/>
</g>
<defs>
<clipPath id="clip0_108_1286">
<rect width="400" height="75" fill="white" transform="translate(0 0.624268)"/>
</clipPath>
</defs>
</svg>
