<svg width="117" height="22" viewBox="0 0 117 22" fill="none" xmlns="http://www.w3.org/2000/svg">
<path d="M59.7826 0.0991211H54.2483L53.207 3.9172L59.0306 2.89519L59.7826 0.0991211Z" fill="white"/>
<path d="M51.3364 5.55634C50.0637 5.53706 47.3834 5.45992 45.4358 8.06315L46.0143 5.65276H40.615L40.075 8.14029L37.5682 17.2998H43.0832L44.433 12.3633C44.7994 11.1099 45.7636 9.23943 49.1574 9.23943C49.5431 9.23943 49.6974 9.25871 50.3144 9.31656C50.2951 9.278 51.3364 5.55634 51.3364 5.55634ZM52.7248 5.63347L49.5238 17.2805H55.0581L58.2591 5.63347H52.7248V5.63347ZM70.6389 5.38279C67.5729 5.38279 66.0688 6.53978 65.1432 7.42681L65.5867 5.63347H60.0524L59.5125 8.12101L57.0057 17.2805H62.5207L64.3526 10.6085C64.4683 10.1843 65.0468 8.15957 67.515 8.15957C69.7905 8.15957 69.3277 9.79865 69.0963 10.6085L67.2644 17.2805H72.7986L74.7462 10.2229C75.1705 8.64165 76.0575 5.38279 70.6389 5.38279ZM82.7488 12.4983L83.8479 8.4681H87.4153L88.1674 5.69132H84.6578L85.4291 2.89526L79.837 3.8787L79.3357 5.69132H76.7324L75.9804 8.4681H78.4872L76.9638 14.0602C76.3275 16.3164 76.8867 17.4734 81.3025 17.4734C83.1923 17.4734 84.195 17.3577 84.9663 17.2612L85.7184 14.523C85.0435 14.6002 84.7735 14.6002 84.33 14.6002C82.2089 14.6002 82.4017 13.9445 82.7488 12.4983ZM102.495 12.4019C103.054 10.3771 103.189 9.278 102.803 8.29456C102.244 6.65548 100.721 5.36351 96.5941 5.36351C91.137 5.36351 88.0131 7.87032 86.9525 11.727C85.8727 15.545 88.1095 17.5698 93.2581 17.5698C97.0955 17.5698 100.875 16.4514 102.09 13.5589H96.9412C96.4977 14.6387 95.3986 15.2365 93.933 15.2365C91.0984 15.2365 91.7348 13.0575 91.889 12.4404L102.495 12.4019ZM95.9385 7.63893C98.3489 7.63893 98.0596 9.3937 97.9247 10.0493H92.5832C92.8146 9.49012 93.5281 7.63893 95.9385 7.63893ZM110.42 8.06315L110.999 5.65276H105.599L105.059 8.14029L102.553 17.2998H108.068L109.417 12.3633C109.784 11.1099 110.748 9.23943 114.142 9.23943C114.528 9.23943 114.682 9.25871 115.299 9.31656L116.34 5.57562C115.048 5.51777 112.368 5.45992 110.42 8.06315ZM33.1331 5.34422C30.0092 5.34422 28.3894 6.71333 27.7145 7.29183L28.1002 5.65276H22.6237C22.508 6.13484 22.508 6.26982 22.1995 7.5618L18.3043 21.7157L24.1857 20.6744L25.4969 15.9114C25.979 16.4899 26.8853 17.5312 29.5271 17.5312C32.921 17.5312 36.6812 15.7764 37.9153 11.2449C39.2459 6.46265 35.6206 5.34422 33.1331 5.34422ZM32.4003 11.1485C31.9182 12.9032 30.8962 14.928 28.4665 14.928C25.8055 14.928 26.3454 12.4019 26.6154 11.4763C26.7889 10.8014 27.5988 7.87032 30.5491 7.87032C32.9981 7.85104 32.7088 10.03 32.4003 11.1485ZM14.8912 7.52323L11.1888 6.55907C10.3789 6.34695 9.18333 5.98057 9.58828 4.78501C9.89681 3.80157 11.2274 3.10737 12.9436 3.16522C13.6956 3.20379 14.197 3.35805 14.5441 3.57017L14.5633 3.58945C14.5826 3.60874 14.6019 3.60874 14.6212 3.62802C15.4504 4.2258 15.084 5.26709 14.949 5.67204H21.0232C21.0811 5.45992 21.1389 5.22853 21.1968 4.97784C21.4475 3.70515 21.2932 2.06608 18.9021 1.06335C17.8029 0.600555 16.2217 0.272741 13.9849 0.157042C7.62139 -0.112923 4.22755 2.31676 3.3598 4.97784C2.24138 8.42954 5.80877 9.37441 7.17788 9.72151L12.0372 10.9942C13.3678 11.3606 13.6185 11.9005 13.3678 12.6718C12.7507 14.5423 10.0896 14.4266 9.58828 14.4073C6.09802 14.2531 6.61866 12.3055 6.88863 11.5341H0.872268C0.69872 11.9969 0.563736 12.7104 0.640869 13.4625C0.698719 14.0024 0.891552 14.6002 1.35435 15.1401C2.74274 16.9142 6.233 17.3962 8.45057 17.4926C13.7727 17.724 18.3621 16.2007 19.5384 12.5369C20.6761 9.0466 17.533 8.21742 14.8912 7.52323Z" fill="white"/>
</svg>
