<svg width="400" height="67" viewBox="0 0 400 67" fill="none" xmlns="http://www.w3.org/2000/svg">
<g clip-path="url(#clip0_108_664)">
<path d="M70.0216 52.0842C63.8513 52.0842 59.8588 47.0028 59.8588 39.2428C59.8661 31.0328 63.7933 25.9514 70.116 25.9514C76.112 25.9514 79.8505 30.8731 79.8505 38.7855C79.8505 46.8649 75.9886 52.0988 70.0216 52.0988M69.9417 18.91C57.427 18.91 49.0209 26.9822 49.0209 39.0178C49.0209 51.4237 56.8753 59.1329 69.5062 59.1329C82.3766 59.1329 90.6883 51.1478 90.6883 38.8654C90.6883 26.5829 82.7033 18.91 69.9417 18.91ZM238.528 19.2802C227.254 19.2802 222.652 24.0422 222.652 35.7367V36.6441C222.652 43.6999 222.478 51.4817 222.224 55.5614L222.122 58.0585H233.446L233.221 55.7864C233.033 52.1931 232.938 48.7959 232.938 45.4276V43.4386L233.018 37.762V35.7367C233.2 31.6861 234.564 26.8515 240.038 26.8515C241.836 26.861 243.618 27.1904 245.301 27.8242L245.874 28.1654L247.014 20.5506L246.629 20.4489C243.988 19.7236 241.266 19.331 238.528 19.2802ZM166.946 26.7716L167.998 19.2657H156.282V16.7032C156.529 11.1572 158.743 8.3407 162.866 8.3407C165.339 8.23892 167.811 8.57309 170.169 9.32794L170.669 9.46587L171.693 1.99622L171.33 1.87281C168.082 1.05038 164.75 0.604639 161.4 0.544391C151.781 0.544391 146.235 6.26459 145.792 16.6669V23.7736L145.88 37.37L145.705 54.1458L145.531 64.3086V66.6025H156.456V64.178L156.195 54.3418L156.115 43.5185V34.8075C156.115 34.8075 156.209 28.5356 156.231 26.8225L166.946 26.7716ZM193.376 52.0842C187.206 52.0842 183.213 47.0028 183.213 39.2428C183.213 31.0328 187.148 25.9514 193.47 25.9514C199.474 25.9514 203.205 30.8731 203.205 38.7855C203.205 46.8649 199.343 52.0988 193.376 52.0988M193.296 18.91C180.781 18.91 172.383 26.9822 172.383 39.0178C172.383 51.4237 180.23 59.1329 192.861 59.1329C205.731 59.1329 214.036 51.1478 214.036 38.8654C214.036 26.5829 206.094 18.91 193.296 18.91ZM134.642 48.5273V42.1247L134.729 35.7076C134.729 25.4287 129.038 19.302 119.485 19.302H113.221C103.689 19.302 97.9765 25.4287 97.9765 35.7004V38.016C97.9765 48.0772 97.9765 50.4582 97.541 57.5649V58.0585H108.793L108.691 55.104L108.444 47.0028L108.284 39.0178V38.0959C108.284 33.7404 108.56 32.441 109.446 30.5682C110.528 28.2815 113.221 26.8079 116.313 26.8079C119.405 26.8079 122.12 28.2598 123.18 30.5682C124.066 32.441 124.342 33.7186 124.342 38.0959V39.0178L124.167 47.0028L123.913 55.1258L123.812 58.0803H134.86L134.737 55.438C134.737 55.5251 134.664 48.549 134.664 48.549M357.411 48.4547V43.6636L357.585 35.6205C357.585 28.6663 355.944 24.7318 351.937 22.0024C349.411 20.2094 345.767 19.2221 341.673 19.2221C336.003 19.2221 331.263 21.0151 328.185 24.2309C325.521 21.0224 321.551 19.302 316.607 19.302H310.35C300.811 19.302 295.105 25.4287 295.105 35.7004L295.069 38.016C295.069 48.0772 295.069 50.4582 294.641 57.5649L294.605 58.0585H305.878L305.776 55.104L305.537 47.0028L305.37 39.0178V38.0959C305.37 33.7404 305.646 32.441 306.531 30.5609C307.613 28.2815 310.306 26.8079 313.399 26.8079C316.491 26.8079 319.206 28.2598 320.266 30.5609C321.144 32.441 321.42 33.7186 321.42 38.0959V39.0178L321.253 47.0028L320.977 55.104L320.875 58.0585H331.924L331.8 55.4162C331.8 55.5033 331.728 48.5273 331.728 48.5273V42.1247L331.8 35.0398C331.888 33.705 332.207 32.3957 332.744 31.1707C333.194 30.1392 333.863 29.2178 334.704 28.4703C336.072 27.2628 337.845 26.6148 339.669 26.6555C341.168 26.6095 342.641 27.049 343.869 27.9085C345.098 28.7679 346.015 30.0013 346.486 31.4247C346.899 32.9637 346.979 34.4228 346.979 39.6493C346.979 45.718 346.907 49.8557 346.464 55.6194L346.297 57.5431L346.253 58.0513H357.592L357.476 55.8735L357.411 48.4547ZM389.982 40.7092V41.6529C389.982 45.2824 389.874 46.5165 389.133 47.9901C388.645 48.897 387.883 49.6263 386.955 50.0735C385.257 50.9458 383.36 51.3563 381.453 51.264C379.456 51.3209 377.516 50.5969 376.045 49.2459C374.549 47.707 374.753 45.2969 375.704 43.8088C377.155 41.5585 380.575 40.6438 387.587 40.6438L389.975 40.7092M399.964 32.8621V32.0563C399.964 25.8788 398.055 22.5033 393.38 20.4417C390.527 19.1713 387.507 18.6269 383.26 18.6269C378.344 18.6269 373.454 19.3384 368.742 20.7393L368.365 20.8482L369.461 28.4195L370.005 28.1872C373.648 26.5588 377.58 25.6776 381.569 25.5957C387.558 25.5957 390.004 27.817 390.004 33.2468L389.939 34.1251C381.547 33.6751 375.232 34.2485 371.704 35.802C366.775 37.9797 364.263 41.4061 364.263 45.9648C364.309 48.3486 365.044 50.6682 366.38 52.6431C367.716 54.618 369.595 56.1636 371.791 57.093C376.872 59.3506 384.24 58.7844 387.166 58.4432C389.561 58.1456 397.517 56.7301 399.267 50.4582C400.044 47.707 399.993 36.5061 399.993 32.833M277.763 41.4133V42.357C277.763 45.9866 277.655 47.2206 276.907 48.6942C276.421 49.603 275.658 50.3329 274.729 50.7776C273.032 51.6538 271.134 52.0646 269.227 51.9681C267.232 52.0262 265.294 51.3019 263.826 49.9501C262.331 48.4111 262.534 46.0083 263.477 44.513C264.929 42.2626 268.356 41.3552 275.361 41.3552L277.756 41.4133M287.737 32.7677C287.737 26.5829 285.828 23.2074 281.161 21.1531C278.308 19.8827 275.281 19.3383 271.041 19.3383C266.126 19.3358 261.236 20.0449 256.523 21.4434L256.146 21.5596L257.242 29.1309L257.779 28.8913C261.427 27.2719 265.36 26.3935 269.35 26.3071C275.339 26.3071 277.785 28.4848 277.785 33.9582C277.784 34.2615 277.765 34.5646 277.727 34.8656C269.336 34.4155 263.02 34.9962 259.499 36.5497C254.563 38.7274 252.059 42.1537 252.059 46.7125C252.107 49.0967 252.845 51.4159 254.184 53.3895C255.522 55.3632 257.404 56.9067 259.601 57.8335C264.682 60.0911 272.051 59.5248 274.983 59.1764C277.379 58.886 285.327 57.4778 287.077 51.1914C287.854 48.4402 287.803 37.2466 287.803 33.5662L287.737 32.7677ZM30.8513 8.52944C31.9111 8.52944 39.9688 8.79803 45.3696 11.8033L45.8487 12.0356V2.82376L45.7035 2.7802C40.3393 1.07505 34.7188 0.318446 29.0946 0.544391C19.6577 0.885571 11.9921 4.10137 6.85988 9.8869C2.13418 15.2151 -0.232292 22.5468 0.0145185 31.1126C0.25407 39.2936 2.91817 46.11 7.61483 50.8212C12.943 56.1203 20.8555 58.7409 30.5029 58.436C33.8887 58.3252 37.2569 57.8999 40.564 57.1656L41.0722 57.0422L38.2629 49.6307L37.8999 49.7105C36.05 50.144 34.1646 50.4088 32.2668 50.5018C20.2748 50.8937 13.4584 43.9105 13.081 30.844C12.689 17.4727 19.498 8.93595 30.8513 8.52944Z" fill="#FAF8F8"/>
</g>
<defs>
<clipPath id="clip0_108_664">
<rect width="400" height="66.1162" fill="white" transform="translate(0 0.508057)"/>
</clipPath>
</defs>
</svg>
