<svg width="117" height="22" viewBox="0 0 117 22" fill="none" xmlns="http://www.w3.org/2000/svg">
<path d="M23.547 0.106397C21.5457 0.0953118 19.5839 0.662592 17.8974 1.74001C18.4032 2.13854 18.8602 2.5955 19.2587 3.10136C20.564 2.38654 22.0317 2.02079 23.5198 2.03951C24.6746 2.01168 25.8227 2.22274 26.8921 2.65945C27.9615 3.09616 28.9292 3.74911 29.7344 4.57735C30.5397 5.40559 31.1651 6.39126 31.5715 7.47256C31.978 8.55386 32.1566 9.70747 32.0962 10.861C32.1531 12.0106 31.9715 13.1594 31.5629 14.2354C31.1543 15.3113 30.5276 16.2911 29.7222 17.1132C28.9167 17.9353 27.9499 18.5819 26.8825 19.0124C25.8151 19.4428 24.6702 19.6478 23.5198 19.6145C22.3761 19.6386 21.2398 19.4265 20.1819 18.9915C19.1239 18.5565 18.1671 17.908 17.3711 17.0865C16.5751 16.265 15.9572 15.2881 15.5558 14.2169C15.1545 13.1458 14.9784 12.0033 15.0386 10.861C15.0222 9.39786 15.3388 7.9501 15.9643 6.62725C15.609 6.05052 15.147 5.54688 14.6029 5.14338C13.529 6.85801 12.9539 8.83789 12.9421 10.861C12.8819 12.2726 13.1126 13.6815 13.6198 15.0002C14.1271 16.3188 14.9001 17.5191 15.8908 18.5264C16.8815 19.5337 18.0688 20.3265 19.3788 20.8557C20.6889 21.3848 22.0938 21.6388 23.5061 21.6021C24.9223 21.6341 26.3301 21.3776 27.644 20.8482C28.9578 20.3189 30.1502 19.5278 31.1487 18.523C32.1471 17.5182 32.9306 16.3208 33.4516 15.0036C33.9726 13.6864 34.2201 12.2769 34.1791 10.861C34.2218 9.44753 33.9768 8.04009 33.4592 6.72408C32.9416 5.40806 32.162 4.21092 31.1678 3.20524C30.1736 2.19957 28.9854 1.40634 27.6754 0.873655C26.3654 0.340971 24.9609 0.0799411 23.547 0.106397V0.106397ZM49.821 13.1753C49.8244 14.0444 49.7099 14.91 49.4807 15.7483C49.1459 16.9281 48.4149 17.9567 47.4107 18.6608C46.4066 19.365 45.1905 19.7018 43.9672 19.6145C42.7551 19.6857 41.555 19.3414 40.565 18.6385C39.575 17.9356 38.8542 16.9161 38.5218 15.7483C38.2741 14.9125 38.1413 14.0469 38.127 13.1753V0.528415H36.085V13.3932C36.0833 14.4754 36.2346 15.5524 36.5342 16.5923C37.528 19.737 40.1282 21.6021 43.9944 21.6021C45.6269 21.7232 47.2523 21.2888 48.6066 20.3694C49.961 19.45 50.9647 18.0997 51.4546 16.5379C51.7419 15.496 51.884 14.4194 51.8766 13.3387V0.528415H49.821V13.1753ZM14.0312 18.4301C13.4758 18.685 12.8903 18.868 12.2886 18.9747C11.2031 19.1806 10.0988 19.2719 8.99417 19.247H2.74558V2.4343H8.99417C10.0988 2.40935 11.2031 2.50061 12.2886 2.70657C16.2365 3.55061 18.4147 6.42305 18.4147 10.8747C18.4408 12.3214 18.1529 13.7566 17.5707 15.0812C17.9407 15.6744 18.3998 16.207 18.932 16.6604C19.9657 14.9044 20.4978 12.8985 20.4703 10.861C20.4703 5.55179 17.6251 1.91699 12.7923 0.855138C11.6409 0.623224 10.4681 0.513708 9.29366 0.528415H0.689941V21.1801H9.29366C10.4674 21.21 11.6408 21.1096 12.7923 20.8806C13.6993 20.6926 14.5748 20.3763 15.3925 19.9412C14.8629 19.5114 14.4036 19.0015 14.0312 18.4301V18.4301ZM112.048 10.0987L109.87 9.05045C108.019 8.15196 106.97 7.03566 106.97 5.30675C106.95 4.85813 107.025 4.41029 107.19 3.99262C107.355 3.57495 107.606 3.19688 107.928 2.88321C108.249 2.56955 108.633 2.32738 109.055 2.17259C109.476 2.0178 109.926 1.95389 110.374 1.98506C112.525 1.98506 113.736 3.48254 114.063 5.87851H115.996C115.669 1.88976 113.355 0.106397 110.428 0.106397C109.719 0.0767755 109.011 0.1919 108.348 0.444752C107.685 0.697603 107.08 1.08288 106.57 1.57711C106.061 2.07133 105.657 2.66414 105.384 3.3194C105.111 3.97466 104.975 4.67864 104.983 5.38843C104.983 8.11112 106.616 9.81281 109.176 11.0108L111.381 12.0318C112.242 12.319 112.992 12.8661 113.528 13.5975C114.065 14.329 114.361 15.2089 114.376 16.1158C114.389 16.6029 114.299 17.0873 114.113 17.5376C113.927 17.988 113.649 18.3943 113.296 18.7305C112.943 19.0666 112.524 19.3249 112.065 19.4889C111.606 19.6529 111.118 19.7189 110.632 19.6826C108.209 19.6826 106.467 18.3212 106.099 14.9995H104.016C104.357 19.5601 106.943 21.6701 110.564 21.6701C111.334 21.7271 112.107 21.6197 112.833 21.3551C113.558 21.0904 114.219 20.6746 114.771 20.1352C115.323 19.5958 115.754 18.9451 116.036 18.2263C116.318 17.5076 116.443 16.7371 116.405 15.9661C116.405 12.6716 114.322 11.1878 112.089 10.0987H112.048ZM94.0784 0.569255L86.1145 21.1801H88.4016L90.852 14.632H99.3741L101.852 21.1801H104.152L96.1749 0.528415L94.0784 0.569255ZM98.707 12.6989H91.5736L93.9695 6.35498C94.3915 5.23868 94.7455 4.12237 95.1131 3.00607C95.4806 4.13599 95.8754 5.25229 96.2838 6.35498L98.707 12.6989ZM78.3821 0.528415H76.3265V21.1801H84.6034L85.4203 19.247H78.3821V0.528415ZM62.3182 11.7051V13.6382H72.079C71.7177 15.3892 70.7428 16.9535 69.33 18.0492C67.9173 19.145 66.1596 19.7001 64.3738 19.6145C63.2254 19.6431 62.0836 19.4327 61.0209 18.9966C59.9581 18.5606 58.9976 17.9085 58.2001 17.0816C57.4027 16.2548 56.7858 15.2712 56.3886 14.1933C55.9914 13.1155 55.8225 11.9668 55.8926 10.8202C55.8306 9.67618 56.0052 8.53166 56.4056 7.45818C56.8059 6.38469 57.4234 5.40531 58.2193 4.58125C59.0153 3.75718 59.9726 3.10614 61.0316 2.6688C62.0906 2.23147 63.2283 2.01724 64.3738 2.03951C65.9161 1.98014 67.4392 2.39799 68.7353 3.23608C70.0315 4.07416 71.0375 5.29168 71.6162 6.72255H73.8216C73.1863 4.73872 71.9186 3.01768 70.2123 1.8228C68.5061 0.627921 66.4553 0.025032 64.3738 0.106397C62.9642 0.0760223 61.5632 0.333319 60.2564 0.862572C58.9496 1.39183 57.7643 2.18192 56.7731 3.18461C55.7819 4.1873 55.0055 5.38153 54.4913 6.69435C53.9771 8.00718 53.7359 9.41105 53.7825 10.8202C53.7065 12.2353 53.9251 13.6507 54.4244 14.977C54.9238 16.3032 55.693 17.5113 56.6835 18.5248C57.674 19.5383 58.8641 20.3351 60.1785 20.8648C61.4929 21.3945 62.9029 21.6456 64.3194 21.6021C65.6407 21.6674 66.9612 21.4568 68.1967 20.9839C69.4323 20.5109 70.5558 19.7858 71.4957 18.8548C72.4357 17.9238 73.1715 16.8073 73.6563 15.5764C74.1411 14.3454 74.3643 13.027 74.3117 11.7051H62.3182Z" fill="white"/>
</svg>
