<svg width="117" height="40" viewBox="0 0 117 40" fill="none" xmlns="http://www.w3.org/2000/svg">
<path d="M64.0863 12.251C68.7309 9.37429 73.6109 6.89692 78.6738 4.8455C69.6231 3.22285 60.3259 3.62427 51.4485 6.02097C51.5797 5.98995 51.7133 5.97029 51.8478 5.9622C56.4229 4.42403 61.1469 3.37206 65.942 2.82369C70.2848 2.30484 74.6696 2.23787 79.0261 2.62386C80.4003 2.7414 81.751 2.96474 83.1135 3.12931C83.4114 3.1946 83.7199 3.1946 84.0178 3.12931C87.8305 1.8394 91.7666 0.949105 95.763 0.472743C99.4795 -0.0779758 103.269 0.142085 106.897 1.11925C109.299 1.76243 111.451 3.11652 113.071 5.0042C114.691 6.89188 115.704 9.22515 115.976 11.6985C116.543 15.6665 116.36 19.7057 115.436 23.606C114.399 28.2745 112.961 32.8445 111.137 37.265C111.079 37.3943 111.02 37.5236 111.137 37.6294C111.137 35.972 111.337 34.3146 111.22 32.6689C110.923 28.9903 109.664 25.4548 107.567 22.4188C104.209 17.3995 99.6828 13.2726 94.3771 10.3937C90.3378 8.09975 85.9852 6.4088 81.4574 5.37446C81.1033 5.28079 80.7309 5.28079 80.3768 5.37446C75.0036 7.07673 69.7887 9.24386 64.791 11.8513L64.0863 12.251ZM87.0011 3.69354V3.8581C95.8446 6.00855 103.979 10.4193 110.609 16.659C110.772 15.3925 110.831 14.1148 110.785 12.8387C110.706 10.6091 109.845 8.47838 108.354 6.82029C106.533 4.94526 104.164 3.69798 101.589 3.25861C97.4291 2.46522 93.1573 2.46522 88.9978 3.25861C88.3518 3.42318 87.6706 3.61125 87.0011 3.69354Z" fill="white"/>
<path d="M89.9372 34.1735C88.9866 34.3481 88.0252 34.4581 87.0597 34.5027C86.0567 34.5027 85.088 34.1379 84.3338 33.4761C83.5797 32.8144 83.0917 31.9009 82.9606 30.9057C82.767 29.1282 82.767 27.3349 82.9606 25.5573C83.0993 24.5624 83.5861 23.6489 84.3346 22.9795C85.083 22.3101 86.0445 21.9281 87.0479 21.9016C88.4642 21.8145 89.884 22.0021 91.2292 22.4541C91.5958 22.5432 91.9173 22.7632 92.1336 23.0726C92.3498 23.382 92.4458 23.7598 92.4037 24.135C92.4037 27.7202 92.4037 31.3054 92.4037 34.8906C92.4346 35.529 92.3307 36.1667 92.0988 36.7622C91.8669 37.3578 91.5123 37.8977 91.0579 38.3469C90.6036 38.796 90.0598 39.1443 89.4619 39.3691C88.8641 39.5938 88.2256 39.69 87.5882 39.6512C86.4432 39.6737 85.3064 39.4533 84.2526 39.0047C84.0868 38.9652 83.9316 38.89 83.7978 38.7844C83.664 38.6787 83.5547 38.5453 83.4776 38.3931C83.4005 38.241 83.3574 38.074 83.3512 37.9035C83.3451 37.7331 83.3761 37.5633 83.4421 37.4061C83.6888 36.7831 84.3465 36.595 85.1334 36.8301C85.8697 37.0997 86.6341 37.285 87.412 37.3826C87.7384 37.4269 88.0705 37.398 88.3843 37.298C88.6981 37.198 88.9858 37.0293 89.2264 36.8043C89.467 36.5792 89.6546 36.3034 89.7755 35.9968C89.8964 35.6902 89.9476 35.3605 89.9255 35.0316C89.949 34.7495 89.9372 34.4204 89.9372 34.1735ZM89.9372 27.9435C89.9372 26.9444 89.9372 25.9452 89.9372 24.9461C89.9372 24.6052 89.8668 24.3936 89.4792 24.3701C88.821 24.2745 88.1586 24.2117 87.4942 24.182C87.2061 24.1633 86.9172 24.206 86.6467 24.3071C86.3762 24.4083 86.1302 24.5657 85.9249 24.769C85.7196 24.9722 85.5596 25.2167 85.4556 25.4863C85.3516 25.7559 85.3058 26.0445 85.3214 26.3331C85.3214 27.6026 85.3214 28.8721 85.3214 30.1417C85.3033 30.4293 85.3475 30.7175 85.4512 30.9864C85.5548 31.2553 85.7153 31.4986 85.9217 31.6996C86.1281 31.9006 86.3755 32.0545 86.647 32.1508C86.9184 32.2471 87.2074 32.2835 87.4942 32.2575C88.156 32.1953 88.8072 32.0491 89.4322 31.8226C89.6112 31.7634 89.763 31.6418 89.86 31.48C89.957 31.3182 89.9927 31.1269 89.9607 30.941C89.9137 29.9183 89.949 28.9427 89.9372 27.9553V27.9435Z" fill="white"/>
<path d="M24.0706 33.8327V37.2533C24.0706 37.653 24.0706 38.0526 24.0706 38.4288C24.0814 38.5831 24.0617 38.7381 24.0126 38.8849C23.9636 39.0316 23.8861 39.1673 23.7847 39.284C23.5799 39.5199 23.2898 39.6647 22.9783 39.6865C22.6668 39.7083 22.3594 39.6054 22.1237 39.4004C21.888 39.1954 21.7433 38.9051 21.7215 38.5933C21.6787 38.3687 21.659 38.1402 21.6628 37.9116V24.2996C21.6628 23.0418 21.9799 22.6187 23.1779 22.2895C24.5487 21.8457 26.0003 21.7093 27.4297 21.8899C28.382 22.0191 29.2633 22.4649 29.9321 23.1555C30.6009 23.8462 31.0184 24.7417 31.1177 25.6984C31.2939 27.3118 31.2939 28.9397 31.1177 30.5531C31.0431 31.214 30.8193 31.8493 30.4632 32.4108C30.107 32.9723 29.6279 33.4454 29.0621 33.7942C28.4963 34.143 27.8586 34.3585 27.1973 34.4242C26.536 34.4899 25.8684 34.4042 25.2451 34.1736C24.834 34.1736 24.4934 33.9855 24.0706 33.8327ZM24.0706 27.8142V30.3768C24.0706 31.47 24.1763 31.6228 25.2451 31.9872C25.4215 32.0505 25.602 32.1015 25.7854 32.14C27.4649 32.4809 28.7099 31.7168 28.8156 30.1534C28.9096 28.7209 28.9096 27.2837 28.8156 25.8512C28.8107 25.4135 28.6411 24.9938 28.3407 24.6757C28.0403 24.3576 27.6311 24.1646 27.1948 24.135C26.3919 24.0901 25.5868 24.1097 24.787 24.1938C24.3172 24.1938 24.1176 24.4289 24.141 24.9461C24.0706 25.9452 24.0706 26.8621 24.0706 27.8142Z" fill="white"/>
<path d="M7.70945 22.4188C7.70945 21.6195 7.70945 20.9142 7.70945 20.2089C7.70945 19.8972 7.83319 19.5982 8.05345 19.3777C8.27372 19.1573 8.57246 19.0334 8.88396 19.0334C9.19546 19.0334 9.49421 19.1573 9.71447 19.3777C9.93473 19.5982 10.0585 19.8972 10.0585 20.2089C10.0585 24.2525 10.0585 28.2962 10.0585 32.3398C10.0892 32.6547 10.0133 32.9708 9.84285 33.2373C9.67243 33.5038 9.41745 33.7052 9.11886 33.8091C7.47019 34.4791 5.6624 34.6547 3.91576 34.3146C2.95403 34.1047 2.09523 33.5665 1.48663 32.7923C0.87802 32.018 0.557534 31.056 0.580129 30.0711C0.580129 28.8957 0.580129 27.6497 0.580129 26.4507C0.549229 25.7129 0.699677 24.9787 1.01828 24.3126C1.33688 23.6466 1.8139 23.0689 2.40752 22.6303C3.00114 22.1917 3.69321 21.9055 4.42305 21.7969C5.1529 21.6883 5.89822 21.7606 6.59365 22.0074L7.70945 22.4188ZM7.70945 28.4607V25.9452C7.70945 24.7698 7.54501 24.4994 6.3705 24.1585C5.95563 24.0339 5.52314 23.9783 5.09027 23.9939C4.80542 23.9825 4.52126 24.0299 4.25546 24.1331C3.98967 24.2362 3.74792 24.393 3.54523 24.5936C3.34255 24.7943 3.18327 25.0345 3.07728 25.2994C2.9713 25.5643 2.92088 25.8481 2.92916 26.1333C2.92916 27.4616 2.92916 28.8016 2.92916 30.1299C2.92495 30.4118 2.9797 30.6915 3.08989 30.951C3.20008 31.2105 3.36328 31.444 3.56901 31.6366C3.77474 31.8292 4.01845 31.9766 4.28448 32.0694C4.55051 32.1622 4.83299 32.1982 5.11376 32.1752C5.79735 32.1554 6.47947 32.1005 7.15742 32.0107C7.23985 32.0164 7.32248 32.0028 7.39869 31.9709C7.47489 31.9389 7.54255 31.8895 7.59623 31.8266C7.64991 31.7638 7.68811 31.6892 7.70778 31.6089C7.72744 31.5285 7.72801 31.4447 7.70945 31.3642C7.68595 30.3885 7.70945 29.4011 7.70945 28.4255V28.4607Z" fill="white"/>
<path d="M79.4138 26.8151C79.7427 25.1459 78.9558 24.0998 77.3702 24.1821C76.5613 24.2615 75.7692 24.4636 75.0211 24.7815C74.2107 25.0989 73.553 25.0519 73.2124 24.4407C73.1367 24.2807 73.0956 24.1065 73.0918 23.9295C73.088 23.7526 73.1216 23.5768 73.1903 23.4137C73.259 23.2506 73.3614 23.1038 73.4907 22.983C73.62 22.8622 73.7733 22.7701 73.9406 22.7127C75.4681 21.9174 77.2238 21.6765 78.9088 22.0309C79.7434 22.1775 80.5014 22.6089 81.0539 23.2519C81.6064 23.8949 81.9192 24.7096 81.939 25.5574C81.939 27.9083 81.939 30.177 81.939 32.4926C81.9478 32.8079 81.8508 33.117 81.6634 33.3705C81.476 33.6241 81.2092 33.8075 80.9055 33.8915C79.2161 34.5111 77.3949 34.6812 75.6201 34.3852C74.6745 34.284 73.8023 33.8279 73.1794 33.1087C72.5565 32.3894 72.2292 31.4606 72.2634 30.5094C72.2977 29.5582 72.691 28.6554 73.364 27.9829C74.0371 27.3105 74.9398 26.9183 75.8903 26.8856C76.8182 26.7916 77.7578 26.8034 78.6974 26.7798L79.4138 26.8151ZM79.4961 29.1661C78.3215 29.1661 77.3114 29.1661 76.2779 29.1661C76.0827 29.1629 75.8888 29.199 75.7078 29.2723C75.5268 29.3456 75.3624 29.4546 75.2244 29.5928C75.0863 29.7309 74.9774 29.8955 74.9042 30.0766C74.8309 30.2578 74.7948 30.4518 74.798 30.6472C74.7751 30.8409 74.7927 31.0372 74.8495 31.2238C74.9063 31.4104 75.0012 31.5832 75.1281 31.7312C75.2551 31.8792 75.4113 31.9993 75.587 32.0838C75.7626 32.1684 75.9539 32.2155 76.1487 32.2223C77.1936 32.2336 78.2379 32.1668 79.2729 32.0225C79.3397 31.9884 79.3971 31.9384 79.4401 31.8769C79.4832 31.8154 79.5104 31.7443 79.5195 31.6698C79.5078 30.847 79.4961 30.0241 79.4961 29.1543V29.1661Z" fill="white"/>
<path d="M95.8567 29.401C95.657 31.4111 96.8198 32.5513 98.746 32.2457C99.3942 32.1137 100.031 31.9289 100.649 31.6932C100.795 31.6088 100.958 31.5569 101.126 31.5411C101.294 31.5254 101.464 31.5461 101.623 31.6019C101.782 31.6577 101.928 31.7472 102.05 31.8644C102.171 31.9816 102.266 32.1236 102.328 32.2809C102.393 32.4329 102.425 32.5968 102.423 32.762C102.42 32.9273 102.382 33.0901 102.313 33.2398C102.243 33.3895 102.142 33.5229 102.017 33.6311C101.893 33.7393 101.746 33.82 101.588 33.8678C100.116 34.5325 98.473 34.7175 96.8903 34.3968C95.9856 34.2325 95.1591 33.7775 94.536 33.1009C93.9129 32.4243 93.5271 31.5628 93.4372 30.647C93.3256 29.1955 93.3256 27.7375 93.4372 26.286C93.4612 25.6002 93.6376 24.9284 93.9536 24.3193C94.2695 23.7103 94.7171 23.1793 95.2637 22.7651C95.8104 22.3508 96.4424 22.0636 97.1138 21.9244C97.7852 21.7852 98.4792 21.7975 99.1453 21.9603C100.186 22.1087 101.14 22.6187 101.843 23.401C102.545 24.1833 102.95 25.188 102.986 26.239C103.015 26.7597 103.015 27.2817 102.986 27.8024C102.995 28.0172 102.958 28.2314 102.879 28.431C102.799 28.6307 102.678 28.8113 102.524 28.9611C102.37 29.1109 102.186 29.2264 101.984 29.3002C101.783 29.374 101.568 29.4043 101.353 29.3893C99.7561 29.3893 98.1587 29.3893 96.5496 29.3893L95.8567 29.401ZM100.555 27.0501C100.555 25.9451 100.402 24.9342 99.3802 24.3935C98.9784 24.1637 98.5176 24.0578 98.0558 24.0892C97.594 24.1205 97.1517 24.2878 96.7846 24.5698C96.423 24.8804 96.1445 25.2763 95.9743 25.7216C95.8041 26.167 95.7475 26.6478 95.8097 27.1206L100.555 27.0501Z" fill="white"/>
<path d="M13.4999 29.26C13.4059 31.5169 14.6039 32.5513 16.7063 32.1047C17.2701 31.9871 17.8104 31.7403 18.3624 31.5992C18.6518 31.5007 18.9656 31.5007 19.255 31.5992C19.594 31.799 19.858 32.1046 20.0067 32.4691C20.0878 32.6954 20.078 32.9443 19.9794 33.1635C19.8808 33.3827 19.7012 33.5552 19.4782 33.6445C18.6424 34.0982 17.7234 34.3779 16.7768 34.4668C15.8301 34.5557 14.8752 34.4519 13.9697 34.1617C13.1787 33.917 12.4829 33.4329 11.9781 32.7762C11.4733 32.1194 11.1843 31.3222 11.1508 30.4943C10.9946 28.9309 10.9946 27.3558 11.1508 25.7924C11.2225 25.1675 11.4236 24.5644 11.7412 24.0216C12.0588 23.4788 12.4859 23.0083 12.9954 22.64C13.5049 22.2716 14.0855 22.0137 14.7002 21.8825C15.3148 21.7513 15.9501 21.7498 16.5654 21.8781C17.7167 21.9939 18.7805 22.5448 19.5399 23.4185C20.2994 24.2921 20.6974 25.4228 20.6527 26.5799C20.6527 26.9561 20.6527 27.3479 20.6527 27.7554C20.6649 27.9752 20.6302 28.1951 20.551 28.4004C20.4717 28.6058 20.3498 28.7919 20.1931 28.9465C20.0365 29.101 19.8488 29.2204 19.6425 29.2968C19.4362 29.3731 19.216 29.4047 18.9966 29.3893H13.4999V29.26ZM18.1979 27.0031C18.2956 26.5037 18.2479 25.9868 18.0605 25.5138C17.8731 25.0407 17.5539 24.6315 17.1409 24.3348C16.721 24.1012 16.2439 23.9905 15.7641 24.0155C15.2843 24.0404 14.8212 24.2 14.4278 24.4759C14.0732 24.785 13.8022 25.1787 13.6401 25.6204C13.4779 26.0622 13.4297 26.5378 13.4999 27.0031H18.1979Z" fill="white"/>
<path d="M42.0055 28.155C41.9591 29.105 41.8532 30.0511 41.6883 30.9879C41.4598 31.9498 40.9155 32.8072 40.1426 33.4231C39.3697 34.0389 38.4128 34.3776 37.4248 34.385C36.6551 34.4287 35.8832 34.3573 35.1345 34.1734C34.2788 33.9561 33.5131 33.4746 32.946 32.7974C32.3789 32.1201 32.0392 31.2814 31.9751 30.4001C31.8517 28.9883 31.8517 27.5685 31.9751 26.1567C32.21 23.1945 34.7 21.4548 37.6832 21.8897C38.8793 22.0001 39.9877 22.5648 40.7806 23.4677C41.5735 24.3706 41.9908 25.5431 41.9467 26.7444C41.9467 27.2146 41.9467 27.6965 41.9467 28.1785L42.0055 28.155ZM39.4685 28.155C39.4685 27.5437 39.4685 26.9795 39.4685 26.3448C39.4582 26.0179 39.3822 25.6964 39.245 25.3996C39.1077 25.1028 38.9121 24.8367 38.6698 24.6172C38.4275 24.3978 38.1435 24.2295 37.8348 24.1224C37.526 24.0152 37.1988 23.9715 36.8728 23.9938C36.5548 23.9665 36.2345 24.0043 35.9316 24.105C35.6287 24.2057 35.3494 24.3672 35.1109 24.5795C34.8724 24.7918 34.6796 25.0505 34.5443 25.3399C34.409 25.6292 34.3341 25.9432 34.3241 26.2625C34.3241 27.4967 34.3241 28.7192 34.3241 29.9535C34.3375 30.2808 34.419 30.6018 34.5636 30.8957C34.7081 31.1897 34.9125 31.4502 35.1635 31.6605C35.4145 31.8708 35.7067 32.0262 36.0213 32.1169C36.3359 32.2075 36.6659 32.2313 36.9903 32.1868C37.3064 32.2092 37.6239 32.1672 37.9234 32.0635C38.223 31.9598 38.4985 31.7966 38.7333 31.5835C38.9681 31.3704 39.1574 31.112 39.2899 30.8238C39.4223 30.5356 39.495 30.2235 39.5037 29.9064C39.492 29.3187 39.4685 28.731 39.4685 28.155Z" fill="white"/>
<path d="M55.3948 30.3532L57.0626 24.946C57.2858 24.2525 57.4854 23.5589 57.7086 22.8654C57.7415 22.6916 57.8111 22.5268 57.9126 22.3819C58.0142 22.2371 58.1454 22.1155 58.2975 22.0254C58.4496 21.9353 58.6192 21.8786 58.7949 21.8591C58.9706 21.8397 59.1485 21.8579 59.3166 21.9126C59.4847 21.9673 59.6393 22.0572 59.77 22.1763C59.9007 22.2954 60.0046 22.441 60.0747 22.6035C60.1448 22.7659 60.1795 22.9414 60.1766 23.1183C60.1737 23.2952 60.1331 23.4695 60.0576 23.6295C58.9536 26.8973 57.8456 30.1651 56.7338 33.4329C56.67 33.7433 56.5027 34.0228 56.2595 34.2257C56.0162 34.4286 55.7114 34.5428 55.3948 34.5496C55.069 34.5506 54.752 34.4441 54.493 34.2464C54.2339 34.0488 54.0472 33.7711 53.9619 33.4564L50.4383 23.7235C50.3646 23.5641 50.3254 23.3909 50.3233 23.2152C50.3212 23.0396 50.3562 22.8655 50.4261 22.7044C50.4959 22.5432 50.5991 22.3987 50.7287 22.2802C50.8583 22.1618 51.0114 22.0721 51.1781 22.017C51.3448 21.962 51.5212 21.9428 51.6958 21.9608C51.8703 21.9788 52.0392 22.0335 52.1911 22.1214C52.3431 22.2093 52.4748 22.3284 52.5775 22.4708C52.6803 22.6132 52.7518 22.7757 52.7874 22.9477C53.5704 25.2124 54.326 27.4811 55.0542 29.7537L55.2656 30.3414L55.3948 30.3532Z" fill="white"/>
<path d="M67.4334 26.7561C67.4334 28.9425 67.4334 31.1289 67.4334 33.3153C67.4414 33.4745 67.4169 33.6337 67.3615 33.7832C67.306 33.9326 67.2208 34.0692 67.1109 34.1847C67.001 34.3002 66.8688 34.392 66.7224 34.4547C66.5759 34.5175 66.4182 34.5497 66.2589 34.5495C66.0933 34.5695 65.9253 34.554 65.7661 34.504C65.6069 34.454 65.4602 34.3706 65.3357 34.2594C65.2112 34.1481 65.1119 34.0117 65.0443 33.859C64.9766 33.7063 64.9423 33.541 64.9435 33.374C64.9316 33.1665 64.9316 32.9585 64.9435 32.751V23.6999C64.9435 22.6185 64.9435 21.5253 64.9435 20.4438C64.9349 20.1542 64.9869 19.8659 65.0962 19.5975C65.2064 19.3612 65.392 19.1683 65.6237 19.0491C65.8555 18.9299 66.1203 18.8913 66.3764 18.9392C66.6711 18.9774 66.9405 19.126 67.1301 19.355C67.3197 19.5841 67.4155 19.8765 67.3982 20.1735L67.4334 26.7561Z" fill="white"/>
<path d="M69.0422 26.721C69.0422 24.6169 69.0422 22.5128 69.0422 20.4087C69.0422 19.4919 69.5355 18.9276 70.2872 18.9394C71.0389 18.9511 71.4617 19.5154 71.4617 20.3852C71.4617 24.6287 71.4617 28.8839 71.4617 33.1273C71.4617 34.0207 70.9919 34.5497 70.2872 34.5497C69.5825 34.5497 69.054 34.0325 69.054 33.0921C69.0422 30.9645 69.0422 28.8369 69.0422 26.721Z" fill="white"/>
<path d="M45.2942 29.2249V32.9981C45.2942 33.8562 44.8479 34.3617 44.1196 34.3734C43.9482 34.3864 43.7761 34.3615 43.6153 34.3006C43.4546 34.2397 43.3092 34.1442 43.1893 34.0209C43.0694 33.8976 42.9781 33.7495 42.9217 33.587C42.8653 33.4245 42.8452 33.2515 42.8629 33.0804C42.8629 30.4944 42.8629 27.9201 42.8629 25.3341C42.8482 24.8414 42.9393 24.3514 43.13 23.897C43.3207 23.4426 43.6067 23.0345 43.9685 22.7002C44.3304 22.366 44.7597 22.1133 45.2275 21.9593C45.6953 21.8053 46.1906 21.7536 46.6801 21.8076C47.2393 21.8314 47.7944 21.9141 48.3362 22.0545C48.479 22.09 48.6132 22.1537 48.731 22.2419C48.8489 22.3301 48.9479 22.441 49.0223 22.568C49.0967 22.695 49.145 22.8357 49.1643 22.9817C49.1836 23.1276 49.1736 23.276 49.1348 23.418C49.0735 23.6761 48.9206 23.903 48.7045 24.0565C48.4884 24.2101 48.2239 24.2798 47.9603 24.2526C47.5884 24.2099 47.2196 24.1431 46.8563 24.0528C46.6633 23.9843 46.4559 23.9675 46.2544 24.0041C46.053 24.0406 45.8646 24.1292 45.7079 24.261C45.5512 24.3929 45.4317 24.5635 45.3612 24.7558C45.2907 24.9481 45.2716 25.1556 45.3059 25.3576C45.2824 26.6388 45.2942 27.9318 45.2942 29.2249Z" fill="white"/>
<path d="M63.5461 28.2961V33.1626C63.5461 34.0677 63.0998 34.5849 62.3716 34.5849C62.1928 34.5899 62.0152 34.556 61.8508 34.4854C61.6865 34.4149 61.5395 34.3094 61.42 34.1764C61.3004 34.0433 61.2112 33.8858 61.1585 33.7148C61.1058 33.5438 61.0909 33.3634 61.1148 33.1861C61.1148 29.9065 61.1148 26.6152 61.1148 23.3356C61.0949 23.159 61.1126 22.9801 61.1668 22.8109C61.221 22.6416 61.3104 22.4857 61.4291 22.3536C61.5479 22.2214 61.6933 22.1159 61.8557 22.0441C62.0182 21.9722 62.194 21.9357 62.3716 21.9368C63.135 21.9368 63.5461 22.4658 63.5461 23.3709V28.2961Z" fill="white"/>
</svg>
