<svg width="393" height="154" viewBox="0 0 393 154" fill="none" xmlns="http://www.w3.org/2000/svg">
<g clip-path="url(#clip0_108_726)">
<path d="M286.732 80.3562H289.645L287.938 91.1271H285.025L286.732 80.3562ZM303.655 145.634C298.768 150.919 295.554 151.203 294.75 150.517C294.081 149.932 294.332 148.193 295.889 146.286C297.947 143.744 303.053 141.202 308.611 138.81C307.254 141.168 305.614 143.51 303.655 145.651M234.357 137.99C234.223 138.007 233.972 138.041 233.805 137.171C233.989 136.853 234.96 136.652 236.165 136.502C235.613 137.388 234.876 137.94 234.374 138.007M344.111 108.538C347.844 104.256 350.205 103.152 351.311 103.152C351.562 103.152 351.746 103.202 351.881 103.303C352.732 103.905 352.818 106.698 351.008 109.893C348.95 113.505 344.028 117.653 338.421 121.433C338.942 116.917 340.917 112.2 344.096 108.554M373.171 126.333C373.321 126.366 373.621 126.467 373.741 127.169C373.774 127.353 373.741 127.437 373.64 127.521C373.003 128.206 370.844 128.44 368.868 128.44C370.075 127.069 372.133 126.049 373.171 126.333ZM389.709 134.88C389.559 134.244 388.922 133.859 388.285 133.993C388.187 134.01 378.696 136.234 372.534 135.549C370.326 135.298 368.835 134.361 368.216 132.839C367.95 132.17 367.882 131.451 367.95 130.782C370.041 130.866 373.842 130.782 375.398 129.126C376.001 128.474 376.252 127.671 376.099 126.785C375.866 125.363 375.064 124.393 373.823 124.042C371.615 123.423 368.617 125.079 367.012 127.019C366.627 127.487 366.293 128.039 366.072 128.624C363.077 130.799 354.692 136.301 350.607 136.435C344.08 136.686 341.082 133.257 339.71 130.381C338.856 128.591 338.406 126.534 338.338 124.343C344.864 120.078 350.674 115.295 353.103 111.03C355.36 107.049 355.445 102.885 353.268 101.346C351.577 100.142 348.297 100.142 342.356 106.966C338.354 111.548 336.112 117.502 335.943 123.055C332.581 125.196 329.114 127.169 325.95 128.792C322.787 130.431 318.738 132.07 314.417 133.826C314.117 133.943 313.832 134.06 313.532 134.194C316.01 128.24 316.797 123.373 316.861 123.038C316.928 122.57 316.711 122.085 316.31 121.851C315.89 121.6 315.373 121.617 314.987 121.918C305.597 128.875 303.136 128.139 302.601 127.755C301.647 127.052 302.098 124.242 302.701 122.553C302.902 121.984 302.651 121.366 302.115 121.098C301.58 120.831 300.927 120.998 300.592 121.499C300.492 121.65 290.867 135.716 278.33 132.873C276.02 132.354 274.43 131.167 273.509 129.26C271.266 124.661 273.274 117.134 274.948 112.451H291.972C292.49 112.451 292.926 112.033 292.926 111.498C292.926 110.963 292.507 110.545 291.972 110.545H275.652C276.204 109.157 276.606 108.304 276.622 108.27C276.89 107.702 276.673 107.032 276.12 106.731C275.585 106.43 274.881 106.598 274.547 107.133C273.911 108.136 273.241 109.307 272.521 110.562H260.369C259.85 110.562 259.415 110.979 259.415 111.515C259.415 112.05 259.833 112.468 260.369 112.468H271.433C267.667 119.041 262.461 127.37 252.268 131.668C248.468 133.274 243.714 133.575 239.898 133.809C239.68 133.809 239.463 133.843 239.245 133.859C239.245 133.792 239.245 133.725 239.245 133.659C239.061 129.109 236.65 118.238 236.55 117.787C236.433 117.285 236.014 116.917 235.495 116.867C234.96 116.817 234.491 117.134 234.307 117.603C227.26 135.314 206.32 137.94 205.45 138.024C204.914 137.957 204.395 138.292 204.211 138.827C204.01 139.445 204.345 140.114 204.964 140.315C205.985 140.633 226.256 137.857 234.977 121.734C235.713 125.363 236.768 130.949 236.885 133.742C236.885 133.843 236.885 133.926 236.885 134.026C234.491 134.261 232.767 134.646 231.947 135.716C231.512 136.268 231.361 136.953 231.512 137.689C231.93 139.863 233.47 140.466 234.642 140.332C236.332 140.131 238.123 138.492 238.877 136.234C239.295 136.201 239.68 136.184 240.048 136.151C244.049 135.9 249.02 135.582 253.188 133.826C261.876 130.163 267.115 123.875 270.864 118.004C269.96 122.202 269.676 126.835 271.367 130.297C272.622 132.856 274.781 134.512 277.794 135.181C287.687 137.438 295.654 130.782 299.688 126.366C299.755 127.638 300.14 128.875 301.178 129.645C303.404 131.3 307.471 130.029 313.866 125.614C313.262 128.022 312.16 131.635 310.316 135.498C303.32 138.392 296.792 141.402 294.047 144.781C291.336 148.109 291.704 151.002 293.194 152.29C293.796 152.809 294.65 153.143 295.704 153.143C298.014 153.143 301.312 151.605 305.379 147.222C308.243 144.128 310.436 140.65 312.093 137.322C313.161 136.887 314.233 136.435 315.305 136.017C319.657 134.244 323.776 132.588 327.022 130.899C329.935 129.394 333.016 127.654 336.029 125.798C336.228 127.788 336.73 129.678 337.551 131.384C339.912 136.351 344.598 138.994 350.659 138.777C354.977 138.626 362.14 134.127 365.588 131.802C365.637 132.455 365.79 133.09 366.042 133.692C366.593 135.047 368.133 137.405 372.283 137.873C378.846 138.609 388.438 136.368 388.839 136.284C389.473 136.134 389.859 135.498 389.724 134.863M297.897 91.1271L299.186 82.982H297.579L297.998 80.3562H304.191L303.772 82.982H302.098L300.81 91.1271H297.897ZM271.936 86.7452C271.936 85.8755 272.003 85.1228 272.019 84.37H271.986C271.802 85.1228 271.634 85.8755 271.367 86.7452L270.061 91.1103H267.232L266.529 80.3394H269.408L269.374 84.688C269.374 85.4906 269.324 86.2767 269.308 87.0797H269.341C269.559 86.2767 269.676 85.4906 269.96 84.688L271.4 80.3394H273.911L273.961 84.688C273.961 85.4741 273.927 86.2434 273.911 87.0295H273.944C274.145 86.3606 274.296 85.5243 274.563 84.688L275.903 80.3394H278.748L274.881 91.1103H272.069L271.969 86.7452H271.936ZM315.121 91.1271L315.807 86.7617H314.417L313.731 91.1271H310.819L312.527 80.3562H315.44L314.837 84.2195H316.227L316.827 80.3562H319.74L318.034 91.1271H315.121ZM223.176 70.7561C225.151 59.4166 235.546 41.3703 246.71 31.4522C246.158 33.7102 245.271 37.2225 244.149 41.3033C238.14 63.0125 231.947 76.6934 227.177 78.8342C226.373 79.202 225.653 79.202 224.917 78.8342C222.523 77.6634 222.657 73.7833 223.192 70.7561M249.673 29.2447C249.673 29.2447 249.707 29.0774 249.707 28.9938C253.138 26.4349 256.586 24.7624 259.817 24.3944C262.177 24.1268 263.817 24.4948 264.202 25.3645C264.671 26.4182 263.717 28.6927 261.022 31.0174C256.954 34.5297 250.51 37.8412 247.112 39.4636C248.719 33.5095 249.673 29.2781 249.69 29.2279M314.953 11.4159C315.155 11.4159 315.339 11.4159 315.523 11.4493C317.045 11.65 317.097 12.319 317.112 12.5699C317.363 15.9483 308.862 24.1603 291.185 31.0511C298.834 19.9121 309.716 11.4159 314.953 11.4159ZM326.636 73.4489C322.652 73.9841 321.464 73.1811 321.13 72.7965C320.71 72.3115 320.879 71.6591 320.913 71.5422C321.565 68.5985 332.244 60.5036 345.97 59.2661C348.448 59.0485 350.925 58.9313 353.384 58.9313H353.485C347.327 65.6049 338.556 71.8097 326.636 73.4654M223.862 80.9581C224.549 81.2929 225.268 81.46 225.988 81.46C226.708 81.46 227.411 81.3094 228.13 80.9918C234.993 77.9144 241.622 59.0317 246.074 43.21C249.255 43.9627 257.875 43.762 281.075 36.9716C282.648 36.5034 284.171 36.0349 285.661 35.5499C283.134 40.2164 281.309 45.15 280.639 50.084C279.769 56.6235 282.196 59.1489 284.389 60.1189C292.373 63.6312 309.832 52.1412 317.581 43.7785C318.619 45.1167 320.211 45.8694 321.917 45.6687C325.381 45.2504 327.322 42.3737 329.013 39.8314C329.702 38.8112 330.37 37.8078 331.04 37.1221C330.587 38.9954 330.171 41.8385 332.596 43.695C337.015 47.0567 347.36 46.2541 353.905 40.2999C353.804 40.9857 353.871 41.6377 354.138 42.2231C354.674 43.4275 355.929 44.0796 357.537 44.0129C361.068 43.8455 364.048 40.7347 366.225 37.9082C365.405 40.1662 364.183 43.0261 362.593 45.9698C360.967 49.0304 358.643 52.8101 355.494 56.6235C352.248 56.5399 348.983 56.64 345.719 56.9411C332.176 58.1789 319.608 66.3742 318.603 70.9568C318.386 71.6426 318.267 73.1478 319.271 74.3351C320.227 75.4725 321.85 76.041 324.177 76.041C324.998 76.041 325.917 75.9743 326.921 75.8403C340.415 73.9841 350.022 66.6251 356.548 59.0317C366.124 59.3998 375.465 61.4402 383.614 65.0195C384.218 65.287 384.922 65.0195 385.173 64.4173C385.439 63.8151 385.173 63.1293 384.57 62.8619C376.668 59.3998 367.665 57.3258 358.425 56.774C361.169 53.2449 363.279 49.7997 364.801 46.923C366.443 43.8455 370.828 34.3289 369.588 32.5061C369.337 32.138 368.801 31.8874 368.366 31.9372C367.597 32.0211 367.162 32.6398 366.008 34.2622C364.216 36.8045 360.869 41.5209 357.436 41.6879C357.151 41.6879 356.484 41.6879 356.315 41.3033C356.131 40.8853 356.315 39.7981 357.62 38.4768C359.43 36.6539 358.976 35.6337 358.542 35.1989C357.552 34.1952 356.079 34.9645 352.717 38.2258C346.742 44.0129 337.416 44.4141 334.054 41.8385C332.679 40.7849 332.997 39.0621 333.499 37.0887C333.803 35.9012 334.069 34.881 333.248 34.212C332.428 33.5431 331.374 34.0783 330.973 34.2788C329.365 35.0817 328.244 36.7543 327.056 38.5269C325.568 40.7516 324.027 43.0429 321.651 43.3272C320.579 43.4441 319.574 42.8422 319.072 41.7718C318.285 40.049 319.072 37.9082 321.13 36.0184C323.307 34.0447 324.998 33.8941 325.617 34.2788C326.235 34.6637 325.95 35.8176 325.849 36.1521C325.666 36.7708 326.018 37.44 326.655 37.6239C327.273 37.791 327.944 37.4566 328.128 36.821C328.713 34.8308 328.244 33.1248 326.888 32.272C325.047 31.1178 322.168 31.9039 319.556 34.2622C316.827 36.7375 316.193 39.3801 316.545 41.4037C309.195 49.8499 291.988 60.8549 285.36 57.9448C283.251 57.0081 282.464 54.4659 283 50.3851C283.719 44.9829 285.996 39.4804 289.042 34.3791C308.543 27.3547 319.893 17.9553 319.458 12.4026C319.391 11.5497 318.904 9.54266 315.823 9.12454C309.848 8.30501 295.989 18.7916 287.486 32.4226C285.26 33.2084 282.899 33.9611 280.405 34.6971C261.524 40.2164 252.837 41.2197 249.02 41.2197H248.953C252.602 39.4468 258.544 36.2858 262.545 32.8406C265.893 29.9471 267.349 26.7359 266.345 24.4446C265.742 23.0732 264.068 21.5512 259.532 22.0697C243.597 23.8927 223.778 53.5127 220.849 70.3714C219.644 77.3121 221.82 79.9716 223.862 80.975" fill="#FAF8F8"/>
<path fill-rule="evenodd" clip-rule="evenodd" d="M0.0666504 114.743V0.143311H114.76L143.349 28.7095V143.309H28.6562L0.0666504 114.743ZM46.349 55.1184L44.6919 62.7449H48.3408L46.6837 55.1184H46.349ZM41.3942 46.806H51.4542L60.3758 71.8098H50.7513L49.9309 68.699H43.0681L42.3316 71.8098H32.7071L41.3942 46.806ZM71.7582 65.8391H70.7372V61.6913H71.6241C73.0806 61.6913 75.4072 61.6913 75.4072 63.7486C75.4072 65.8055 73.2478 65.8391 71.7582 65.8391ZM74.3862 54.5664C74.3862 56.2892 72.8797 56.4229 71.5573 56.4229H70.7204V52.8436H71.3564C71.4399 52.8436 71.5247 52.8431 71.6104 52.8426C72.8998 52.8347 74.3862 52.8256 74.3862 54.5664ZM62.3175 46.806H62.3009L62.3175 46.7894V46.806ZM72.8797 46.806H62.3175V71.7933H74.6875C79.073 71.7933 83.8435 70.0372 83.8435 64.9025C83.8435 61.9086 82.1027 59.9184 79.3909 58.9652V58.7644C81.5836 58.0787 82.6718 55.9211 82.6718 53.7301C82.6718 47.9602 77.7172 46.806 72.8797 46.806ZM23.1492 46.806H14.0601V71.8098H30.782V63.7819H23.1492V46.806ZM60.8612 39.1627H68.7953L77.6168 14.1589H68.1595L65.0125 29.0776H64.8116L61.3969 14.1589H54.4337L51.019 29.0776H50.8181L47.6714 14.1589H38.2474L47.0016 39.1627H54.735L57.7145 25.5654H58.0159L60.8612 39.1627ZM27.7021 22.4712L26.0449 30.0978H29.694L28.0368 22.4712H27.7021ZM22.7475 14.1589H32.8072L41.7292 39.1627H32.1044L31.2842 36.0519H24.4213L23.6848 39.1627H14.0601L22.7475 14.1589Z" fill="#FAF8F8"/>
</g>
<defs>
<clipPath id="clip0_108_726">
<rect width="392" height="153" fill="white" transform="translate(0.0666504 0.143311)"/>
</clipPath>
</defs>
</svg>
