<svg width="496" height="112" viewBox="0 0 496 112" fill="none" xmlns="http://www.w3.org/2000/svg">
<g clip-path="url(#clip0_121_22)">
<path d="M495.334 78.574C494.075 76.9074 492.724 75.2222 491.077 73.1481C489.856 71.6296 489.023 71.5 486.969 73.1666C483.823 75.7407 475.292 82.4814 473.108 84C469.592 86.6666 466.316 85.8518 467.908 81.7407C470.795 74.3518 479.456 53.1481 483.971 42.8333C484.008 42.7407 484.045 42.6481 484.082 42.537C484.175 42.3333 484.267 42.1111 484.36 41.9074C484.36 41.9074 484.323 41.9444 484.286 41.9814C485.285 38.4259 481.991 36.4259 475.81 37.3148C464.688 38.9074 459.673 38.5 451.382 37.3148C449.032 36.9814 445.923 37.3148 444.479 40.1481C443.036 42.9814 441.648 44.9074 441.648 44.9074C441.648 44.9074 421.735 25.6851 387.332 43.7222C370.233 52.6851 363.459 64.6481 360.739 74.7407C360.647 75.1111 349.45 82.6296 341.604 86C337.329 87.6666 334.59 87.037 337.199 80.3888C339.809 73.7407 350.006 51.037 350.006 51.037C350.006 51.037 356.834 51 360.443 50C363.922 49.0555 365.976 48.5 368.105 47C370.233 45.5 370.954 44.8703 369.455 41.9444C367.845 38.7963 367.549 37.9814 366.772 36.5555C365.976 35.1296 365.236 34.4629 363.293 35.3703C360.924 36.4814 358.87 37.1111 357.593 37.1851C355.761 37.2963 355.058 36.9444 356.335 34.0185C357.056 32.3703 362.59 18.7592 363.996 14.8703C364.94 12.2592 363.626 7.9444 358.777 6.79626C354.743 5.85181 350.468 9.16663 348.581 12.0185C340.327 24.4074 333.628 25.5555 330.074 26.0185C327.021 26.4259 316.639 25.074 312.364 37.1666C312.364 37.1666 303.352 37.2592 301.853 37.2407C299.965 37.2407 299.65 37.574 299.132 39.2777C298.614 40.9259 297.115 45.537 296.504 47.6111C295.838 49.6851 296.745 50.2037 297.726 50.2037C299.41 50.2037 307.793 50.2037 307.793 50.2037C307.793 50.2037 301.797 63.4259 296.801 74.6481C283.421 84.4259 277.628 86.8333 272.928 88.8888C270.8 89.8333 265.803 90.5555 268.653 83.9074C271.188 77.9814 280.848 53.7777 285.604 42.8888C287.381 38.7963 284.068 36.4259 277.425 37.3889C266.303 38.9814 261.287 38.574 252.997 37.3889C250.646 37.0555 247.537 37.3888 246.094 40.2222C244.65 43.0555 243.262 44.9814 243.262 44.9814C243.262 44.9814 223.331 25.7592 188.947 43.7963C170.996 53.2037 164.297 66.1111 161.984 76.2963C158.116 79.1481 153.73 82.0555 148.77 84.2407C148.807 84.1296 148.826 84.0185 148.863 83.9074C149.566 81.2963 155.747 54.7037 133.91 48.0555C140.036 46.5 144.44 44.6296 147.197 42.8333C157.912 34.9629 157.135 25.7407 155.507 20.2777C153.378 13.1666 142.941 5.55552 129.172 2.2407C92.6415 -5.83337 67.8618 9.37033 56.8137 15.2963C45.0993 21.574 30.0724 34.1296 26.6673 37.0185C26.3526 37.2777 26.1861 37.7592 26.5562 38.1296C28.4808 39.9814 33.8661 45.2963 34.1807 45.5926C34.5693 45.9814 34.8654 46.0926 35.3836 45.6111C40.8614 41.074 46.4132 36.9444 53.4826 32.3703L31.886 82.6851C24.502 99.6296 14.1016 91.2222 14.1016 91.2222C14.1016 91.2222 11.0851 89.537 6.16251 83.6296C5.62584 82.9814 4.97812 83.2777 4.79306 83.7407C4.70053 83.9814 0.40712 93.2963 0.22206 93.7592C0.0369988 94.2407 -0.222086 94.6666 0.240566 95.2777C6.38459 103.074 12.0289 105.852 17.8954 108.778C26.4267 113.056 47.9122 114.463 61.7733 102.611C68.8056 96.3518 70.2121 93.6296 74.8201 83.1481L99.7293 24.9814C103.042 17.8518 108.742 10.7407 115.626 12.4074C121.548 13.8333 120.845 23.0926 120.845 23.0926C119.901 32.5926 114.886 39 105.429 41.3703C103.412 41.8703 100.414 41.9074 98.8595 41.8703C98.0637 41.8889 97.7861 42.037 97.453 42.7963C97.1199 43.5555 94.6956 49.5926 94.3995 50.4259C94.1034 51.2777 94.492 52.5 95.6949 52.4629C96.7868 52.4629 98.0822 52.4259 99.1371 52.4259C102.598 52.4259 108.038 54.6481 109.149 59.3888C109.926 62.7592 110.648 66.2777 107.335 75.7777C104.134 84.9259 100.895 89.0185 96.8978 91.4444C91.6051 94.6666 86.0348 94.7037 78.9839 88.8333C78.3918 88.2407 77.9106 88.6666 77.7996 88.9444C77.744 89.0925 74.1724 97.5185 73.9133 98.0926C73.6542 98.6666 73.4136 99.2777 73.9503 99.7963C83.6475 109.148 92.4009 111.852 105.91 111.852C115.163 111.852 122.029 110.167 128.118 107.944C142.46 102.759 152.12 97.5185 161.206 91.3888C161.318 92.1851 161.41 92.6296 161.41 92.6296C162.594 98.0925 168.054 111.852 186.56 111.852C202.697 111.852 213.449 103.611 222.388 95.2407C225.478 110.185 236.138 111.852 240.172 111.852C244.206 111.852 251.091 110.667 258.678 108.056C265.174 105.815 276.351 101.148 289.546 93.6111C288.676 98.9259 289.324 107.056 295.968 110.148C303.981 113.889 318.027 110.333 322.32 108.611C326.096 107.111 339.901 100.741 351.19 94.537C353.392 93.3148 357.538 91.1296 359.425 90.1666C359.462 90.6666 359.647 91.7407 359.795 92.537C360.98 98 366.439 111.759 384.945 111.759C401.082 111.759 411.834 103.518 420.754 95.1481C423.845 110.093 434.523 111.759 438.539 111.759C456.656 111.759 471.257 101.944 494.816 81.8148C495.87 80.8518 496.574 80.1296 495.315 78.4814M432.617 63.4444C428.619 72.4444 420.754 82.6666 412.926 87.4259C402.97 94.5555 395.845 83.6296 402.489 70.8148C406.283 63.6851 410.298 57.9444 419.089 52.537C429.526 46.1296 437.354 52.7777 432.617 63.4629M234.25 63.5555C230.253 72.5555 222.388 82.7777 214.56 87.537C204.603 94.6666 197.478 83.7407 204.122 70.9259C207.916 63.7963 211.913 58.0555 220.722 52.6481C231.159 46.2407 238.988 52.8888 234.25 63.574" fill="#FAF8F8"/>
</g>
<defs>
<clipPath id="clip0_121_22">
<rect width="496" height="112" fill="white"/>
</clipPath>
</defs>
</svg>
