<svg width="401" height="88" viewBox="0 0 401 88" fill="none" xmlns="http://www.w3.org/2000/svg">
<g clip-path="url(#clip0_108_817)">
<path d="M278.223 70.1825H295.436L283.163 49.7375C289.999 47.0094 293.789 41.5657 293.789 34.73C293.789 24.29 286.705 17.4543 272.568 17.4543H245.442V70.2757H260.294V51.8814H267.845L278.223 70.1825ZM278.695 34.7611C278.695 38.3964 276.1 41.1307 270.43 41.1307H260.052V28.3914H270.43C276.085 28.3914 278.695 31.1195 278.695 34.7611ZM218.727 32.2629V49.0726C218.727 56.8093 214.936 59.2951 209.778 59.2951C204.838 59.2951 200.83 56.5701 200.83 49.0726V32.0143H185.729V49.7251C185.729 63.5829 193.746 71.3197 210.027 71.3197C226.308 71.3197 234.076 63.5829 234.076 49.9426V32.2318H218.727V32.2629ZM200.799 27.4779V17.4729H185.698V27.4779H200.799ZM218.727 27.4779H233.828V17.4729H218.727V27.4779ZM123.027 52.4594L115.259 17.3486H100.158L114.078 70.1701H130.111L139.557 35.6808L149.003 70.1701H165.036L178.956 17.3486H163.855L156.087 52.4594L146.641 17.3486H132.473L123.027 52.4594ZM384.648 36.3333H366.254V17.4729H351.153V70.2943H366.254V48.2647H384.648V70.2943H399.998V17.4729H384.648V36.3333ZM313.495 29.0626V70.3876H328.596V29.0626H342.764V17.4729H299.264V29.0626H313.495Z" fill="#FAF8F8"/>
<path d="M79.0547 35.0716H0.133301V0.893066H33.069V14.2538H46.3365V0.893066H79.2722V35.0716H79.0547ZM46.119 74.5324V87.8931C65.0726 84.3199 79.0547 67.8831 79.0547 49.3645V48.6499H0.133301V49.3645C0.133301 67.7277 14.1154 84.1645 33.069 87.8931V74.5324H46.0879H46.119Z" fill="#FAF8F8"/>
</g>
<defs>
<clipPath id="clip0_108_817">
<rect width="400" height="87.0536" fill="white" transform="translate(0.133301 0.0717773)"/>
</clipPath>
</defs>
</svg>
