<svg width="400" height="137" viewBox="0 0 400 137" fill="none" xmlns="http://www.w3.org/2000/svg">
<path d="M172.152 81.1659C171.97 80.7407 171.909 80.2548 171.909 79.7688C171.909 77.3996 173.788 75.5163 176.151 75.4556C177.969 75.4556 179.606 76.5492 180.212 78.3109L189.242 105.526L197.605 78.4325C198.211 76.7316 199.787 75.5164 201.605 75.5164C203.968 75.5164 205.968 77.4605 206.029 79.8296C206.029 80.3156 205.968 80.7407 205.786 81.1659L194.029 115.914C193.363 117.919 191.484 119.316 189.363 119.316C187.363 119.195 185.605 117.919 184.818 116.096L172.212 81.2267L172.152 81.1659Z" fill="#191918"/>
<path d="M209.12 79.7688C209.12 77.3996 211.059 75.4556 213.422 75.4556C215.725 75.4556 217.665 77.3388 217.665 79.6472V114.942C217.665 117.25 215.847 119.194 213.544 119.255H213.422C211.059 119.255 209.12 117.311 209.12 114.942V79.7688Z" fill="#191918"/>
<path d="M222.573 69.5628C222.573 67.1936 224.513 65.2495 226.876 65.2495C229.24 65.2495 231.118 67.1936 231.118 69.5628V114.942C231.118 117.311 229.179 119.194 226.876 119.194C224.573 119.194 222.573 117.25 222.573 114.942V69.5628Z" fill="#191918"/>
<path d="M236.572 69.5628C236.572 67.1936 238.512 65.2495 240.875 65.2495C243.239 65.2495 245.117 67.1936 245.117 69.5628V114.942C245.117 117.311 243.178 119.194 240.875 119.194C238.572 119.194 236.572 117.25 236.572 114.942V69.5628Z" fill="#191918"/>
<path d="M281.177 112.027C281.177 114.335 279.722 116.34 277.54 117.069C273.238 118.527 268.692 119.256 264.086 119.256C259.844 119.499 255.602 118.223 252.208 115.611C249.36 113.12 247.784 109.475 247.905 105.709C247.784 102.003 249.36 98.48 252.208 96.1716C255.602 93.5594 259.784 92.2835 264.086 92.5264H272.631V89.6106C272.631 86.148 269.844 83.3538 266.389 83.3538C266.208 83.3538 265.965 83.3538 265.723 83.3538C262.571 83.1108 259.42 83.9005 256.753 85.6014C256.026 86.0267 255.238 86.3304 254.451 86.3304C252.269 86.3911 250.451 84.7509 250.39 82.564C250.39 80.9845 251.117 79.5266 252.451 78.7368C256.814 76.2461 261.784 75.092 266.814 75.3957C274.328 74.9705 280.752 80.802 281.177 88.3348C281.177 88.76 281.177 89.1246 281.177 89.5498V112.027ZM272.631 100.363H264.086C256.875 100.363 256.45 104.251 256.45 105.709C256.45 107.228 256.875 111.359 264.086 111.359C266.935 111.359 269.844 110.994 272.631 110.265V100.363Z" fill="#191918"/>
<path d="M308.751 117.129C306.266 118.466 303.479 119.195 300.63 119.316C291.903 119.741 284.51 113.059 284.025 104.311C284.025 103.764 284.025 103.157 284.025 102.61V92.1613C283.601 83.4136 290.267 76.0023 298.994 75.5164C299.539 75.5164 300.085 75.5164 300.63 75.5164C305.054 75.5164 309.478 76.2456 313.66 77.6428C315.842 78.3718 317.296 80.4369 317.296 82.6846V120.349C317.417 124.783 315.72 129.097 312.63 132.316C309.418 135.475 305.115 137.115 300.63 136.994C296.509 136.994 292.388 136.143 288.631 134.442C287.116 133.774 286.086 132.316 286.086 130.615C286.086 128.367 287.964 126.606 290.207 126.606C290.873 126.606 291.54 126.788 292.146 127.092C294.812 128.307 297.721 128.975 300.691 129.096C305.054 129.218 308.69 125.816 308.872 121.442C308.872 121.078 308.872 120.713 308.872 120.409V117.19L308.751 117.129ZM308.751 84.4466C306.084 83.7783 303.357 83.4139 300.63 83.3531C296.57 82.9886 292.994 85.9652 292.57 90.0353C292.57 90.5213 292.57 90.9464 292.57 91.4324V103.339C292.146 107.409 295.115 110.994 299.115 111.419C299.6 111.419 300.145 111.419 300.63 111.419C303.6 111.419 306.509 110.386 308.751 108.442V84.5074V84.4466Z" fill="#191918"/>
<path d="M328.992 101.395C328.811 103.886 329.356 106.377 330.629 108.564C332.204 110.508 334.568 111.54 336.992 111.419C340.083 111.358 343.174 110.568 345.961 109.232C346.507 108.989 347.113 108.807 347.719 108.807C349.9 108.807 351.658 110.568 351.779 112.694C351.84 114.274 351.052 115.732 349.598 116.461C345.658 118.344 341.355 119.316 336.992 119.316C328.265 119.741 320.872 113.059 320.387 104.311C320.387 103.764 320.387 103.157 320.387 102.61V92.101C319.963 83.3533 326.629 75.9416 335.356 75.4557C335.901 75.4557 336.447 75.4557 336.992 75.4557C341.477 75.2734 345.84 76.9745 349.052 80.1334C352.143 83.3531 353.84 87.6664 353.719 92.101V95.9886C353.719 98.9653 351.294 101.395 348.325 101.395H328.992ZM345.173 93.4981C345.173 86.5728 342.386 83.3532 337.053 83.3532C331.72 83.3532 328.992 86.512 328.992 93.4981H345.173Z" fill="#191918"/>
<path d="M379.959 57.6561C390.262 -6.73712 300.63 -3.57827 210.271 47.3288C289.6 -4.368 457.713 -54.4246 379.959 133.166C398.989 71.9319 301.418 -17.0642 168.212 23.455C168.212 23.455 288.752 -29.0318 379.959 57.6561Z" fill="#E42620"/>
<path d="M0.0392449 91.6757C-0.566785 83.0495 5.91773 75.6382 14.5234 75.0307C15.2506 75.0307 15.9172 75.0307 16.6445 75.0307C19.4928 75.1522 22.2806 75.8811 24.7653 77.2176V69.1988C24.7653 66.8903 26.5834 64.9462 28.8863 64.8855H29.0075C31.371 64.8855 33.3103 66.7688 33.3103 69.138V111.662C33.3103 113.97 31.8558 115.975 29.6741 116.704C25.4925 118.101 21.0685 118.891 16.6445 118.891C7.91763 119.316 0.524069 112.634 0.0392449 103.886C0.0392449 103.339 0.0392449 102.732 0.0392449 102.185V91.7365V91.6757ZM24.7653 85.9654C22.4624 84.0214 19.614 82.9888 16.6445 82.9888C12.5841 82.6243 9.00849 85.6008 8.58427 89.6709C8.58427 90.1569 8.58427 90.6428 8.58427 91.068V102.975C8.16005 107.045 11.1296 110.629 15.1294 111.054C15.6142 111.054 16.099 111.054 16.6445 111.054C19.3716 111.054 22.0987 110.751 24.7653 109.961V86.0262V85.9654Z" fill="#E42620"/>
<path d="M45.0067 101.031C44.8249 103.522 45.3703 106.012 46.643 108.199C48.2187 110.143 50.5822 111.176 53.0063 111.055C56.0971 110.994 59.1878 110.204 61.9756 108.867C62.521 108.624 63.127 108.503 63.7331 108.443C65.9148 108.443 67.6723 110.204 67.7935 112.33C67.8541 113.91 67.0662 115.368 65.6118 116.097C61.6726 117.98 57.3698 118.952 53.0063 118.952C44.2795 119.377 36.8253 112.695 36.4011 103.947C36.4011 103.4 36.4011 102.793 36.4011 102.246V91.7368C35.9163 82.989 42.6432 75.5774 51.3701 75.0914C51.9155 75.0914 52.4609 75.0914 53.0063 75.0914C57.491 74.9092 61.8544 76.6102 65.0057 79.7691C68.0965 82.9888 69.7934 87.3021 69.6722 91.7368V95.6244C69.6722 98.601 67.2481 101.031 64.2785 101.031H44.9461H45.0067ZM61.1877 93.1338C61.1877 86.2085 58.3394 82.989 53.0669 82.989C47.7945 82.989 45.0067 86.1478 45.0067 93.1338H61.1877Z" fill="#E42620"/>
<path d="M72.8843 82.3201C72.8843 80.0117 74.3388 77.9464 76.5205 77.2175C80.7021 75.8203 85.0655 75.0914 89.4895 75.0306C93.9741 74.8484 98.3376 76.5491 101.489 79.708C104.58 82.9276 106.277 87.241 106.155 91.6756V102.185C106.337 106.68 104.701 111.115 101.61 114.395C98.58 117.494 94.3983 119.134 90.0955 118.891C87.126 118.769 84.1565 118.04 81.4899 116.704V132.255C81.4899 134.625 79.5506 136.568 77.2477 136.568C74.8842 136.568 72.9449 134.625 72.9449 132.255V82.2593L72.8843 82.3201ZM97.6103 91.0071C97.9739 86.9369 95.0044 83.2923 90.944 82.9278C90.4592 82.9278 89.9743 82.9278 89.4895 82.9278C86.7624 82.9278 84.0958 83.2922 81.4293 83.9604V108.077C83.6716 109.961 86.52 110.994 89.4895 110.994C93.5499 111.419 97.1861 108.503 97.6103 104.493C97.6103 104.007 97.6103 103.461 97.6103 102.975V91.0679V91.0071Z" fill="#E42620"/>
<path d="M143.062 101.396C143.426 111.055 135.851 119.134 126.275 119.499C116.639 119.863 108.579 112.27 108.276 102.672C108.276 102.246 108.276 101.882 108.276 101.457V92.5871C107.913 82.9282 115.488 74.8488 125.063 74.5451C134.699 74.1806 142.759 81.7739 143.062 91.3721C143.062 91.7973 143.062 92.2226 143.062 92.5871V101.457V101.396ZM134.517 91.8582C134.82 87.2413 131.305 83.2321 126.7 82.9284C126.336 82.9284 125.972 82.9284 125.609 82.9284C121.185 82.4424 117.185 85.7228 116.7 90.1574C116.7 90.7042 116.7 91.2507 116.7 91.8582V102.185C116.7 107.106 120.7 111.055 125.609 111.055C130.518 111.055 134.457 107.045 134.457 102.185V91.8582H134.517Z" fill="#E42620"/>
<path d="M146.213 87.4233C146.032 80.741 151.365 75.213 158.031 75.0308C158.213 75.0308 158.395 75.0308 158.576 75.0308C160.637 75.0308 162.758 75.2737 164.819 75.6989C166.758 76.0634 168.212 77.7642 168.212 79.7689C168.212 81.9559 166.576 83.7174 164.394 83.7782H164.152C163.667 83.7782 163.182 83.7784 162.758 83.5961C161.425 83.2316 160.031 82.9887 158.637 82.928C156.516 82.928 154.88 84.629 154.819 86.7551V114.517C154.819 116.886 152.94 118.83 150.577 118.83C148.213 118.83 146.274 116.886 146.274 114.517V87.4233H146.213Z" fill="#E42620"/>
</svg>
