<svg width="300" height="102" viewBox="0 0 300 102" fill="none" xmlns="http://www.w3.org/2000/svg">
<g clip-path="url(#clip0_123_2)">
<path d="M57.6 33.9999C45.8 19.8999 26.5 19.8999 19.2 19.8999C14.7 19.8999 12 20.0999 10.1 20.2999L4.79998 20.7999L3.79998 25.9999V26.0999C2.69998 31.8999 0.599976 42.6999 0.599976 62.4999C0.599976 76.0999 1.49998 83.9999 1.79998 86.5999L2.49998 92.4999L8.49998 92.8999C8.69998 92.8999 8.99998 92.8999 9.19998 92.9999C10.6 93.0999 12.4 93.1999 15.9 93.1999C22.8 93.1999 34.3 93.1999 46.6 86.5999C51.7 83.8999 56.4 79.5999 59.7 74.6999C63.6 68.8999 65.7 62.3999 65.7 55.8999C65.8 45.1999 60.7 37.5999 57.6 33.9999ZM25.9 62.2999C26 56.1999 26 55.6999 26 52.5999C27.2 52.8999 30 53.8999 30 57.5999C30.1 60.8999 27.7 61.5999 25.9 62.2999Z" fill="#876FAE"/>
<path d="M137.7 101.3L131.9 95.8C125.5 89.9 120.6 83.9 116.9 77.7L115.1 74.7L116.9 71.6C119.1 67.7 123.8 59.5 131.1 49.5C138.7 38.9 143.4 34.5 146.9 31.2L152.1 26.3L155.7 32C155.9 31.8 156.1 31.5 156.3 31.3L160.7 26L165.3 31.2C174 41.1 189.8 66 198.3 86L201.2 92.9L191.9 94.5C186 95.5 180.5 96.5 172 98.1L167 99.1L165.3 94.3C164.2 91.4 163.4 89.2 162.8 87.4C161.2 89.2 159.5 91 157.8 92.6L153.5 96.5L149.6 92.2C147.9 90.3 146.5 88.7 145.2 87C144.1 89 142.8 91.4 141.4 94.1L137.7 101.3Z" fill="#876FAE"/>
<path fill-rule="evenodd" clip-rule="evenodd" d="M160.7 35.0999C159.1 36.9999 157.6 39.0999 155.2 42.9999C152.8 38.6999 152.3 38.0999 150.8 35.5999C147.5 38.6999 143 42.8999 135.7 52.9999C128.6 62.7999 124.1 70.6999 121.8 74.5999C125.6 80.8999 130.4 86.4999 135.8 91.4999C140 82.8999 143.3 78.0999 145 75.5999C147.6 80.7999 149.5 83.6999 153.6 88.1999C157.6 84.5999 161.7 79.2999 163.8 75.8999C166.3 80.4999 167.4 83.0999 170.7 92.2999C180.2 90.4999 186.1 89.3999 192.7 88.2999C184.4 69.1999 168.9 44.4999 160.7 35.0999Z" fill="#FFE405"/>
<path fill-rule="evenodd" clip-rule="evenodd" d="M160.7 35.0999C160 35.8999 159.4 36.7999 158.7 37.7999C163 43.2999 174 57.1999 175.8 61.2999C177.9 65.9999 186.4 82.4999 189.2 88.9999C190.4 88.7999 191.6 88.5999 192.9 88.3999C184.5 69.1999 168.9 44.4999 160.7 35.0999Z" fill="#FACA50"/>
<path fill-rule="evenodd" clip-rule="evenodd" d="M151.1 42.7999L153.4 39.8999C152.4 38.0999 151.8 37.2999 150.8 35.5999C150.2 36.1999 149.6 36.7999 148.9 37.4999L151.1 42.7999Z" fill="#FACA50"/>
<path fill-rule="evenodd" clip-rule="evenodd" d="M159.4 75L151 85.3C151.8 86.2 152.6 87.2 153.6 88.2C156.6 85.5 159.6 82 161.8 78.9L159.4 75Z" fill="#FACA50"/>
<path fill-rule="evenodd" clip-rule="evenodd" d="M135.8 91.5C138.3 86.4 140.5 82.6 142.2 79.8L140.3 76.7L131.6 87.4C133 88.8 134.4 90.2 135.8 91.5Z" fill="#FACA50"/>
<path d="M117.5 90.3001C116.7 90.3001 115.9 90.3001 115.1 90.3001C110.2 90.2001 108.4 90 106.1 89.5L100.9 88.6L100.1 83.3001C99.4 78.4001 98.6 70.8001 98.8 60.9001C99 49.0001 100.6 40.4 101.4 36.3L102.4 31L107.8 30.5C109.2 30.4 110.6 30.3 113.2 30.3C113.8 30.3 114.4 30.3 115.2 30.3C121.7 30.4 125.3 31 127.6 31.3L134.7 32.4001L133.5 39.8C132.8 44.3 131.4 52.7001 131.3 62.9001C131.2 71.4001 131.9 77.4 132.3 81L133.3 89L126.2 89.7C124 90 121.9 90.3001 117.5 90.3001Z" fill="#876FAE"/>
<path fill-rule="evenodd" clip-rule="evenodd" d="M108.8 38.0999C108 42.2999 106.6 50.4 106.4 61.5C106.2 71.4 107.2 79 107.7 82.8C109.7 83.2 111.2 83.4 115.6 83.4C121.4 83.5 123.6 83.2 125.6 82.9C125.2 79.3 124.3 72.7999 124.4 63.0999C124.6 52.1999 126.1 43.1 126.8 38.7C124.5 38.3 121.4 37.8 115.4 37.7C111.8 37.9 110.4 37.9999 108.8 38.0999Z" fill="#FFE405"/>
<path d="M120.4 27.9999C119.8 27.9999 119.2 27.9999 118.6 27.8999C109.3 27.0999 102.5 20.3999 103.2 12.5999C103.5 8.79993 105.7 5.29993 109.1 3.09993C112.4 0.899929 116.7 -0.10007 121 0.29993C130.3 1.09993 137.1 7.79993 136.4 15.5999C136.1 19.3999 133.9 22.8999 130.5 25.0999C127.7 26.9999 124.1 27.9999 120.4 27.9999Z" fill="#876FAE"/>
<path fill-rule="evenodd" clip-rule="evenodd" d="M112.6 15.3C112.9 11.5 117.6 8.69995 123 9.19995C128.4 9.69995 132.5 13.1999 132.2 16.9999C131.9 20.7999 127.2 23.6 121.8 23.1C116.4 22.6 112.3 19.1 112.6 15.3Z" fill="#FFE405"/>
<path fill-rule="evenodd" clip-rule="evenodd" d="M30.4 27.7C34.2 28.9 43.5 32.9 47.3 37.5C51.7 42.9 57 52.1 55.7 60C54.4 67.9 49.5 75.4999 44.9 78.0999C41.4 80.0999 31.1 84.8 19.6 85.9C25.9 85.8 34.3 84.8999 43.2 80.0999C51.1 75.9999 58.6 66.8 58.6 55.7C58.6 47.9 54.9 41.7999 52.1 38.5999C46.2 31.4999 37.6 28.7 30.4 27.7Z" fill="#FACA50"/>
<path fill-rule="evenodd" clip-rule="evenodd" d="M52.1999 38.6C42.4999 27 25.8999 27 19.2999 27C15.2999 27 12.6999 27.2 10.8999 27.3C9.79993 32.9 7.79993 43.3 7.79993 62.4C7.79993 74.7 8.59993 82.1 8.99993 85.7C10.3999 85.8 11.9999 85.9 16.0999 85.9C22.6999 85.9 32.5999 85.9 43.3999 80.1C51.1999 75.9 58.7999 66.7 58.7999 55.7C58.6999 47.9 54.9999 41.9 52.1999 38.6ZM25.9999 62.3C26.0999 56.2 26.0999 55.7 26.0999 52.6C27.2999 52.9 30.1999 53.9 30.1999 57.6C30.0999 60.9 27.6999 61.5 25.9999 62.3Z" fill="#FFE405"/>
<path fill-rule="evenodd" clip-rule="evenodd" d="M21.6999 48.6L17.7999 47.3L18.3999 67.5L21.4999 66.7L21.6999 48.6Z" fill="#FACA50"/>
<path d="M110.9 84.3999C110.5 83.7999 110 82.7999 109.4 81.7999C106.7 77.1999 104.1 72.5999 102 69.2999C103.7 66.0999 105.5 61.4999 105.5 55.8999C105.5 47.0999 100.7 38.6999 93.2 34.4999C86.1 30.4999 77.5 28.5999 66.8 28.5999C64.6 28.5999 62.8 28.6999 61.3 28.7999C60.9 28.7999 60.6 28.7999 60.2 28.8999L55.5 29.0999L54.7 33.7999C53.9 38.1999 52 48.5999 52 66.2999C52 75.3999 52.5 80.4999 52.9 83.9999L53.5 89.7999L58.4 90.1999C61.1 90.3999 64.6 90.4999 69.3 90.4999C73.6 90.4999 75.5 90.3999 77.4 90.2999L79.1 90.1999C79.4 90.6999 79.8 91.1999 80.1 91.7999L81.8 94.4999L85 94.5999C85.5 94.5999 86 94.5999 86.5 94.5999C89.4 94.5999 92.4 94.3999 95.8 94.1999C98.8 93.9999 102.2 93.7999 106 93.6999L116 93.3999L110.9 84.3999ZM77.8 58.8999L77.7 54.2999C78.9 53.7999 79.8 53.7999 80 53.7999C81.3 53.7999 82 54.6999 82 55.6999C82 56.9999 80.7 58.1999 77.8 58.8999Z" fill="#876FAE"/>
<path fill-rule="evenodd" clip-rule="evenodd" d="M95 69.4999C96.5 67.0999 99.6 62.2999 99.6 55.8999C99.6 48.3999 95.3 42.4999 90.3 39.5999C84.6 36.3999 77.1 34.3999 66.8 34.3999C64.1 34.3999 62.1 34.4999 60.5 34.5999C59.6 39.5999 57.9 49.2999 57.9 65.9999C57.9 75.5999 58.5 80.5999 58.9 83.8999C60.8 83.9999 63.8 84.1999 69.4 84.1999C74 84.1999 75.6 84.0999 77.8 83.8999C77.8 83.0999 77.7 78.6999 77.7 77.5999C80.6 81.1999 82.4 83.4999 85.3 88.0999C90.8 88.1999 97.1 87.4999 106 87.1999C103.7 83.7999 97.5 72.8999 95 69.4999ZM77.8 58.8999L77.7 54.2999C78.9 53.7999 79.8 53.7999 80 53.7999C81.3 53.7999 82 54.6999 82 55.6999C82 56.9999 80.7 58.1999 77.8 58.8999Z" fill="#FFE405"/>
<path fill-rule="evenodd" clip-rule="evenodd" d="M95 69.4999C96.5 67.0999 99.6 62.2999 99.6 55.8999C99.6 48.3999 95.3 42.4999 90.3 39.5999C86.5 37.4999 81.9 35.8999 76.1 35.0999C82.5 36.8999 89.9 39.9999 92.4 43.3999C95.5 47.5999 97.7 55.9999 97.5 58.7999C97.3 61.5999 94.6 67.0999 93.3 68.9999L102.8 87.5999C103.8 87.5999 104.8 87.4999 105.8 87.4999C103.8 83.7999 97.5 72.8999 95 69.4999Z" fill="#FACA50"/>
<path fill-rule="evenodd" clip-rule="evenodd" d="M77.6 79.5L74.4 79.7L74.6 84.3C75.7 84.2 76.6 84.2 77.6 84.1C77.7 83.5 77.7 81.2 77.6 79.5Z" fill="#FACA50"/>
<path fill-rule="evenodd" clip-rule="evenodd" d="M126.9 22.4999C129.8 21.4999 131.9 19.4999 132.1 16.9999C132.3 14.3999 130.5 11.8999 127.5 10.3999C128.9 11.4999 130 13.0999 130.4 15.2999C131.2 19.5999 128.7 21.5999 126.9 22.4999Z" fill="#FACA50"/>
<path fill-rule="evenodd" clip-rule="evenodd" d="M126.7 38.8998C124.4 38.4998 121.3 37.9998 115.3 37.8998C111.9 37.7998 110.5 37.8998 108.8 38.0998L124.5 41.6998L117.9 83.4998C122 83.4998 123.8 83.2998 125.5 82.9998C125.1 79.3998 124.2 72.8998 124.3 63.1998C124.5 52.2998 126 43.2998 126.7 38.8998Z" fill="#FACA50"/>
<path fill-rule="evenodd" clip-rule="evenodd" d="M74.6999 52.3999L72.2999 54.2999L72.4999 63.2999L74.8999 61.7999L74.6999 52.3999Z" fill="#FACA50"/>
<path fill-rule="evenodd" clip-rule="evenodd" d="M34.2 55C33.5 51.8 30.8 49.9 29 48.8C27.2 47.8 21.8 46.8 21.8 46.8L21.4 68.7C21.4 68.7 29.1 65.8001 31.6 63.9001C34.1 62.0001 34.9 58.2 34.2 55ZM25.9 62.3C26 56.2 26 55.7 26 52.6C27.2 52.9 30 53.9 30 57.6C30.1 60.9 27.7 61.5 25.9 62.3Z" fill="#876FAE"/>
<path d="M80 50.7C78.8 50.7 77.7 51 76.5 51.5L74.7 52.2999L75 62.5999L78.6 61.7C84.3 60.3 85.2 57.2999 85.2 55.5999C85.1 52.7999 82.9 50.7 80 50.7ZM77.8 58.9L77.7 54.2999C78.9 53.7999 79.8 53.7999 80 53.7999C81.3 53.7999 82 54.7 82 55.7C82 57 80.7 58.2 77.8 58.9Z" fill="#876FAE"/>
<path d="M248.7 101.3C276.59 101.3 299.2 78.6904 299.2 50.8C299.2 22.9097 276.59 0.300049 248.7 0.300049C220.81 0.300049 198.2 22.9097 198.2 50.8C198.2 78.6904 220.81 101.3 248.7 101.3Z" fill="#E20613"/>
<path d="M279.4 69.8001C279.4 69.5001 279.1 69.3001 279.1 69.1001C278.6 68.3001 277.7 67.6001 276.8 67.1001C276.5 67.1001 276.3 66.7001 275.9 66.7001C275.3 66.4001 274.6 66.3001 273.9 66.2001C273.8 66.2001 273.8 66.3001 273.7 66.2001C274.2 64.6001 274.5 62.7001 274.1 60.9001C273.9 60.3001 273.5 59.7001 273.1 59.3001C273.3 57.1001 273.3 55.4001 272.9 53.4001L273 53.3001C273.3 53.6001 273.7 53.6001 274 53.8001C274.6 53.8001 275.1 53.5001 275.4 53.1001C276.4 52.1001 274.6 51.8001 274.3 51.0001C273.6 50.0001 272.8 49.2001 272.5 48.0001C272.9 47.6001 273.1 46.8001 273 46.2001C272.9 46.1001 273 45.9001 272.9 45.8001C272.9 45.5001 272.8 45.2001 272.7 45.0001C272.5 44.8001 272.5 44.5001 272.3 44.3001C272.2 44.0001 271.9 43.6001 271.7 43.3001C271.7 42.3001 272.1 41.5001 272.3 40.6001C272.4 40.5001 272.5 40.3001 272.5 40.1001C272.4 39.1001 271.5 38.7001 270.7 38.3001C269.8 38.0001 268.9 37.7001 268 37.5001C269.4 35.8001 270 33.6001 270.6 31.4001C270.9 30.1001 270.5 28.5001 270.2 27.2001C270.3 26.8001 269.9 26.7001 270.1 26.4001C270 25.6001 269.6 24.9001 269.5 24.1001C269.4 24.0001 269.4 24.0001 269.4 23.9001C269.2 23.5001 269.2 23.0001 269 22.7001C268.8 22.6001 268.7 22.3001 268.4 22.4001C268.1 22.7001 267.7 22.8001 267.3 23.1001C266.6 23.4001 266 23.7001 265.3 23.7001C265.7 22.9001 266.6 22.4001 267.3 21.8001C267.6 21.7001 267.7 21.4001 268 21.3001C268.2 21.2001 267.9 20.9001 268.2 20.9001C268.2 20.1001 267.8 19.4001 267.6 18.5001C266.9 15.9001 266.4 13.2001 265.4 10.8001C265.3 10.5001 265 10.5001 265 10.3001C264.8 10.2001 264.6 9.90015 264.2 9.90015C264.2 10.0001 264.1 10.0001 264 10.0001C263.6 9.30015 262.9 8.80015 262.3 8.30015C261.1 7.60015 259.7 7.30015 258.3 7.50015C258.1 7.40015 258 7.70015 257.8 7.60015C257.1 7.80015 256.4 7.70015 255.7 8.00015C255.3 8.10015 255 8.10015 254.6 8.20015C254.3 8.20015 254.1 8.30015 253.7 8.40015C253.3 8.50015 252.7 8.50015 252.3 8.70015C251.8 8.70015 251.3 8.90015 250.8 8.90015C249.7 8.50015 248.8 7.50015 247.9 6.90015C247.4 6.50015 246.9 6.00015 246.3 5.90015V6.00015C245.6 5.90015 244.7 6.00015 244 6.20015C242.5 6.60015 241 7.50015 239.7 8.30015C239.1 8.60015 238.6 9.00015 238 9.40015C237.6 9.60015 237.4 10.0001 237 10.1001C236.8 10.5001 237.4 10.4001 237.5 10.5001C238.1 10.5001 238.7 10.9001 239.3 11.0001C239.9 11.4001 240.8 11.8001 241.2 12.4001C239.9 12.0001 238.6 11.6001 237.2 11.3001C236.7 11.2001 236.1 11.2001 235.6 11.1001C235.3 11.3001 235 11.4001 234.9 11.7001C234.5 11.8001 234.5 12.2001 234.2 12.3001C233.6 12.8001 233.3 13.4001 232.6 13.8001C232.4 14.2001 232 14.2001 231.8 14.5001C230.9 15.4001 229.8 15.8001 228.7 16.1001C228.4 16.2001 228.2 15.9001 228 15.7001C227.7 15.0001 227.3 14.3001 227.4 13.5001C227.4 13.3001 227.7 13.1001 227.5 13.0001C227.2 13.0001 226.9 13.0001 226.7 13.1001C226.2 13.3001 226.3 14.0001 226.3 14.5001C226.4 15.1001 226.6 15.8001 227 16.3001C227.9 17.4001 229.1 18.3001 230.4 18.8001C233.1 19.9001 236.4 19.7001 239.3 19.3001C241.4 19.2001 243.4 18.7001 245.5 18.7001C245.7 18.6001 246 18.9001 246.2 18.6001C245.7 17.4001 245 16.3001 244.7 15.0001C244.7 14.6001 244.5 14.2001 244.7 13.9001C246.2 14.4001 247.4 15.4001 248.7 16.3001C248.9 16.5001 249.1 16.5001 249.2 16.7001C250.2 16.9001 251.4 16.8001 252.4 16.7001C252.8 16.7001 253.3 16.6001 253.7 16.6001C253.9 16.7001 254 16.4001 254.2 16.6001L254.6 17.4001C254.8 18.1001 255.1 18.9001 255.2 19.7001C255.7 20.3001 256.4 20.6001 257 21.0001C258 21.6001 258.9 22.2001 259.8 23.0001H259.7C259.1 23.0001 258.5 22.7001 257.9 22.6001C257.4 22.3001 256.7 22.4001 256.2 21.9001C256 21.8001 255.7 21.7001 255.4 21.8001C255.3 21.9001 255.4 22.0001 255.5 22.1001C255.9 22.9001 256.4 23.6001 256.9 24.4001C258.1 26.3001 258.9 28.1001 260.5 29.8001C261.3 30.2001 262.2 30.8001 263.1 31.2001C262.5 31.3001 262 30.8001 261.4 30.9001C261.3 30.9001 261.2 31.0001 261.2 31.2001C263.1 33.0001 265.2 35.0001 266.8 37.2001V37.4001C266.7 37.4001 266.6 37.3001 266.5 37.3001C266 36.3001 265.3 35.7001 264.5 35.0001C263.3 34.1001 262 33.4001 260.6 32.8001C257 31.1001 253 30.9001 249 31.4001C248 31.6001 247.1 31.8001 246.2 32.0001C245.5 31.4001 244.7 30.8001 243.9 30.3001C243.5 30.2001 243.3 29.8001 243 29.7001C242.7 29.4001 242.3 29.2001 241.9 29.1001C241.3 28.8001 240.8 28.6001 240.3 28.3001C237.3 27.0001 233.9 26.4001 230.4 27.1001C230 27.1001 229.7 27.2001 229.4 27.4001C228 27.7001 226.7 28.2001 225.6 29.0001C225.5 29.1001 225.4 29.0001 225.4 29.1001C224.4 29.5001 223.8 30.3001 222.9 30.9001C222.8 31.1001 222.6 31.2001 222.4 31.3001C222.3 31.4001 222.4 31.6001 222.2 31.5001C221.2 32.4001 220.4 33.3001 219.6 34.3001C217.5 37.6001 215.6 41.1001 215.2 44.9001C215.3 45.3001 215 45.6001 215.1 45.9001C215.1 46.0001 214.9 46.1001 215.1 46.3001C215 46.8001 215 47.4001 215 47.9001C214.9 48.3001 215 48.8001 214.9 49.2001C215 49.7001 215 50.3001 215.2 50.9001C215.7 51.5001 214.7 51.9001 214.8 52.5001C214.9 52.6001 214.9 52.8001 215.1 52.8001C215.4 53.0001 215.6 52.7001 215.8 52.5001C216.5 50.8001 217.9 49.3001 219.1 47.9001C219.2 47.7001 219.3 47.7001 219.4 47.6001C219.7 47.2001 220.1 46.9001 220.4 46.6001C220.5 46.4001 220.5 46.6001 220.7 46.5001C220.6 46.8001 220.5 47.1001 220.4 47.5001C220.3 47.7001 220.4 48.0001 220.3 48.1001C220.2 48.9001 220 49.6001 219.9 50.4001C219.7 52.3001 220 54.4001 220.1 56.3001C220.1 56.7001 220.3 57.0001 220.3 57.4001C220.3 57.7001 220.4 58.0001 220.6 58.2001C220.7 58.7001 220.8 59.2001 221 59.5001C221.1 59.8001 221.3 60.3001 221.5 60.6001C221.6 61.0001 221.9 61.2001 222.1 61.5001C222 61.9001 221.9 62.4001 221.8 62.8001C221.8 62.9001 221.9 62.9001 221.9 63.0001C222 63.2001 222.2 63.2001 222.4 63.1001C222.6 63.0001 222.5 62.8001 222.5 62.7001C224.1 59.4001 226.1 56.1001 228.5 53.3001C228.5 53.7001 228.6 54.2001 228.6 54.6001C228.7 55.1001 228.6 55.7001 229.1 56.0001C229.3 56.1001 229.5 55.9001 229.7 55.8001C229.9 57.4001 230.2 59.3001 230.9 60.9001C230.1 61.3001 229.5 62.1001 229.5 63.0001C229.7 64.3001 230.4 65.5001 231.2 66.6001C230.6 67.5001 230.1 68.5001 230 69.6001C229.9 69.7001 230.1 69.9001 229.9 70.0001C227.1 70.8001 225.8 74.0001 225.6 76.6001C225.7 76.9001 225.5 77.2001 225.7 77.5001C225.9 77.5001 225.8 77.8001 226.1 77.8001C226.1 77.7001 226.3 77.7001 226.3 77.5001C226.9 76.6001 227.6 75.8001 228.4 75.0001C228.1 76.1001 227.8 77.3001 227.9 78.5001C227.8 79.6001 228.3 80.5001 228.8 81.4001C229.2 81.8001 229.4 82.4001 229.9 82.8001C230.7 84.0001 231.7 84.8001 232.8 85.8001L235.6 88.2001C235.6 88.2001 236.1 88.3001 237 88.5001C237 88.4001 237 88.3001 237 88.2001C237.1 87.5001 239.9 85.3001 240.5 84.8001C241.8 85.7001 243.4 86.3001 245 86.5001C246.2 86.6001 247.1 86.2001 248.1 86.0001C250.1 85.3001 252 84.0001 253.8 82.8001C255.8 81.2001 257.8 79.3001 259.4 77.2001C258.4 79.7001 257 84.4001 259.1 86.1001C260.8 87.4001 262.3 88.6001 263 89.5001C267.4 89.0001 270.6 87.8001 271.1 85.5001C271.1 85.5001 273.6 85.5001 273.8 84.6001C273.7 84.3001 274.1 84.1001 274 83.8001C274.1 83.4001 274 83.1001 273.9 82.7001C273.5 81.5001 272.6 80.2001 271.9 79.2001C272.1 79.3001 272.3 79.3001 272.4 79.3001C273.7 79.9001 275 80.8001 276.1 81.8001V82.0001C276.3 82.2001 276.6 82.3001 276.9 82.2001C277.2 81.9001 277.2 81.6001 277.3 81.3001C277.3 81.1001 277.5 80.9001 277.4 80.7001C277.4 80.6001 277.4 80.6001 277.5 80.5001C277.5 79.5001 277.8 78.4001 277.4 77.4001C277.3 76.9001 277.1 76.3001 277 75.8001C276.3 74.0001 274.9 72.3001 272.9 71.8001C273.3 71.6001 273.7 71.5001 274 71.3001C274.1 71.2001 274.3 71.3001 274.4 71.1001C274.7 71.2001 275 70.9001 275.3 71.0001C275.4 70.9001 275.4 71.0001 275.5 71.0001C275.7 70.9001 275.9 70.9001 276.2 70.9001H276.1C276.3 70.9001 276.5 70.8001 276.8 70.8001C277.1 70.7001 277.1 70.7001 277.4 70.7001C277.4 70.7001 277.4 70.7001 277.4 70.6001H277.5H277.6V71.0001C277.7 70.9001 277.5 71.0001 277.6 70.9001C277.7 70.8001 277.8 70.8001 277.9 70.9001C278.3 70.5001 278.8 71.3001 279.1 70.8001C279.4 70.4001 279.6 70.1001 279.4 69.8001Z" fill="black"/>
<path d="M247.6 8.00018C247.9 8.30018 248.4 8.40018 248.7 8.70018C248.9 8.80018 249.1 8.90018 249.2 9.00018C249.8 9.30018 250.3 9.70018 250.9 9.90018C250.6 10.0002 250.3 9.80018 250.1 10.2002C249.8 10.3002 249.6 10.5002 249.3 10.4002C249.2 10.5002 249.1 10.5002 249 10.6002C246.7 11.4002 244.8 12.3002 242.3 13.2002C241.4 11.8002 239.9 11.0002 238.3 10.4002C239.2 9.80018 240.2 9.40018 241.1 8.80018C241.3 8.80018 241.5 8.60018 241.7 8.60018C242.9 8.00018 244.1 7.40018 245.5 7.10018C246.2 7.00018 246.9 7.60018 247.6 8.00018Z" fill="#C51A1B"/>
<path d="M261.7 9.30019C261.7 9.40019 261.9 9.40019 262 9.40019C262.6 9.70019 263 10.2002 263.5 10.6002V10.7002C262.2 11.6002 260.8 12.5002 259.6 13.5002C259.5 13.5002 259.4 13.6002 259.3 13.7002C258.5 14.3002 257.6 15.0002 256.6 15.2002L255.7 15.4002L251.9 12.0002L251.8 12.1002C251.8 12.0002 251.7 12.1002 251.7 12.0002H251.8C251.7 11.8002 251.5 11.7002 251.3 11.6002V11.5002L250 10.5002C250.3 10.3002 250.7 10.1002 251.1 10.4002C253.5 11.4002 255.8 12.8002 257.8 14.5002H257.9C257.8 13.9002 257.2 13.6002 256.8 13.3002C255.3 12.3002 253.7 11.1002 252.1 10.5002C251.8 10.3002 251.6 10.3002 251.3 10.1002C252.1 9.7002 253.1 9.8002 254 9.6002C255.2 9.3002 256.4 9.20019 257.6 9.00019C258.8 8.80019 260.5 8.80019 261.7 9.30019Z" fill="#F0ED9C"/>
<path d="M250.2 11.3C252 12.6 253.5 14 255.1 15.5V15.6C253.3 16 251.4 16 249.6 16.3C248.1 15.4 246.9 14 245.3 13.5C245.1 13.3 244.7 13.4 244.4 13.4C243.8 14.3 244.4 15.7 244.8 16.7C245.1 17.3 245.4 18 245.8 18.5C244.2 18.3 242.6 18.6 241 18.8C239.8 19 238.3 19 237.1 19.2C235.5 19.2 233.5 19.2 231.9 18.6C231 18.3 230.3 18 229.6 17.4C232.2 17.4 234.5 16.3 237 15.7C238.5 15.3 240 14.5 241.5 13.9C241.8 13.8 242.1 13.5 242.5 13.5C242.9 13.1 243.6 13.1 244.1 12.8C245.1 12.4 246.2 12.1 247 11.6C247.8 11.4 248.5 11.1 249.4 10.8C249.5 10.8 249.9 11.1 250.2 11.3Z" fill="#C51A1B"/>
<path d="M264.7 11.7001C265.2 13.1001 265.6 14.4001 266 15.9001C265.5 16.5001 265.1 17.1001 264.7 17.8001C264 19.0001 263.4 20.1001 263.1 21.5001C263.2 21.6001 263.3 21.6001 263.4 21.5001C264.1 19.7001 265.1 18.1001 266.2 16.5001C266.4 17.1001 266.6 17.7001 266.7 18.3001C265.3 19.6001 264.1 21.4001 263.1 23.1001C262.2 20.7001 261.5 18.0001 260.5 15.6001C260.2 15.1001 260 14.6001 259.9 14.1001C261.2 13.0001 262.5 12.0001 263.9 11.1001C264.3 11.1001 264.6 11.4001 264.7 11.7001Z" fill="#D9D47F"/>
<mask id="mask0_123_2" style="mask-type:luminance" maskUnits="userSpaceOnUse" x="259" y="11" width="8" height="13">
<path d="M264.7 11.7001C265.2 13.1001 265.6 14.4001 266 15.9001C265.5 16.5001 265.1 17.1001 264.7 17.8001C264 19.0001 263.4 20.1001 263.1 21.5001C263.2 21.6001 263.3 21.6001 263.4 21.5001C264.1 19.7001 265.1 18.1001 266.2 16.5001C266.4 17.1001 266.6 17.7001 266.7 18.3001C265.3 19.6001 264.1 21.4001 263.1 23.1001C262.2 20.7001 261.5 18.0001 260.5 15.6001C260.2 15.1001 260 14.6001 259.9 14.1001C261.2 13.0001 262.5 12.0001 263.9 11.1001C264.3 11.1001 264.6 11.4001 264.7 11.7001Z" fill="white"/>
</mask>
<g mask="url(#mask0_123_2)">
<path fill-rule="evenodd" clip-rule="evenodd" d="M261.1 17.2L266 15.9C266 15.9 265.6 14.1 265 12.3C264.6 11 263.9 11 263.9 11L263.2 11.5L261.7 12.6L259.9 14.1L261.1 17.2Z" fill="#96A825"/>
</g>
<path d="M241.3 13.2002C241.4 13.3002 241.6 13.3002 241.7 13.4002C240.4 14.2002 238.9 14.6002 237.5 15.1002C235.2 15.8002 232.9 16.6002 230.4 16.8002C232.5 15.8002 233.9 13.9002 235.4 12.3002C236.4 11.8002 237.3 12.3002 238.3 12.4002C239.2 12.6002 240.3 12.8002 241.3 13.2002Z" fill="#C51A1B"/>
<path d="M259.5 14.4001C260.8 17.1001 261.5 20.1001 262.6 23.0001C264.1 27.4001 265.5 31.9001 267.1 36.3001C266 34.9001 265 33.5001 263.7 32.4001C263.5 32.2001 263.4 32.0001 263.1 31.8001C263.7 31.9001 264.3 32.1001 265 31.9001C265.1 31.9001 265 31.8001 265.1 31.7001C263.2 30.4001 260.7 29.9001 259.8 27.6001C259 26.0001 258.2 24.4001 257.3 22.9001C258.2 23.3001 259.1 23.5001 260.1 23.6001C260.3 23.5001 260.6 23.6001 260.8 23.4001C259.7 21.9001 258.2 21.1001 256.8 20.1001C256.6 19.8001 256.1 20.0001 256 19.6001C255.8 18.6001 255.7 17.5001 255.2 16.6001C256.7 16.2001 258.2 15.6001 259.5 14.4001Z" fill="#D9D47F"/>
<mask id="mask1_123_2" style="mask-type:luminance" maskUnits="userSpaceOnUse" x="255" y="14" width="13" height="23">
<path d="M259.5 14.4001C260.8 17.1001 261.5 20.1001 262.6 23.0001C264.1 27.4001 265.5 31.9001 267.1 36.3001C266 34.9001 265 33.5001 263.7 32.4001C263.5 32.2001 263.4 32.0001 263.1 31.8001C263.7 31.9001 264.3 32.1001 265 31.9001C265.1 31.9001 265 31.8001 265.1 31.7001C263.2 30.4001 260.7 29.9001 259.8 27.6001C259 26.0001 258.2 24.4001 257.3 22.9001C258.2 23.3001 259.1 23.5001 260.1 23.6001C260.3 23.5001 260.6 23.6001 260.8 23.4001C259.7 21.9001 258.2 21.1001 256.8 20.1001C256.6 19.8001 256.1 20.0001 256 19.6001C255.8 18.6001 255.7 17.5001 255.2 16.6001C256.7 16.2001 258.2 15.6001 259.5 14.4001Z" fill="white"/>
</mask>
<g mask="url(#mask1_123_2)">
<path fill-rule="evenodd" clip-rule="evenodd" d="M255 16.6002L255.6 18.0002L260.7 17.3002L259.5 14.5002L256.7 16.1002L255 16.6002Z" fill="#96A825"/>
</g>
<path d="M267.7 20.8C267.4 21.3 266.8 21.5 266.3 21.9C265.6 22.7 264.6 23.3 264.4 24.3C264.8 24.5 265.4 24.4 265.8 24.3C266.6 24.1 267.5 23.9 268.1 23.4C268.1 23.4 268.1 23.3 268.2 23.3H268.3C268.9 25.8 269.6 28.3 269.8 30.9C269.5 33 268.9 35 267.9 36.8C267.9 36.9 267.7 36.9 267.7 37C266.4 33.8 265.5 30.5 264.4 27.3C264.2 26.6 264 26.1 263.8 25.6C263.6 24.9 263.4 24.3 263.2 23.6C264.2 21.8001 265.2 20.1 266.7 18.8C267.1 19.4 267.3 20.1 267.7 20.8Z" fill="#D9D47F"/>
<path d="M238.8 28.7002C238.9 28.8002 239.3 28.9002 239.5 29.0002C240.2 29.3002 241 29.6002 241.7 30.0002C240.3 29.6002 238.8 29.1002 237.2 29.0002C237.2 29.0002 237.2 29.0002 237.2 28.9002C237.2 29.0002 236.9 29.0002 236.8 28.9002C236.4 28.8002 235.8 28.7002 235.4 28.7002C232.1 28.5002 228.8 29.4002 226 31.1002C222.6 33.2002 220.2 37.1002 218.7 40.7002C217.9 43.0002 217.5 45.8002 217.3 48.2002C217.3 48.6002 217.4 49.1002 217.4 49.5002L216.6 50.4002C216.1 47.6002 216.7 44.8002 217.4 42.2002C218 40.3002 218.9 38.3002 219.9 36.5002C220.1 36.5002 220 36.2002 220.1 36.1002C221.9 33.5002 224.2 31.1002 226.9 29.5002C227.6 29.2002 228.3 28.7002 229 28.6002C229.1 28.3002 229.6 28.5002 229.9 28.3002C231.8 27.8002 233.9 27.8002 235.9 28.2002C237 28.2002 237.8 28.5002 238.8 28.7002Z" fill="#508FCD"/>
<path d="M259 33.0001C260.2 33.5001 261.4 34.2001 262.6 34.8001H262.7C263.7 35.5001 264.7 36.2001 265.5 37.2001C265.1 37.3001 264.7 37.1001 264.2 37.1001C262.3 35.3001 259.8 34.4001 257.4 33.6001C254.8 32.9001 251.7 32.4001 248.9 32.9001C248.8 33.0001 248.6 33.0001 248.5 33.1001C248.5 33.2001 248.7 33.2001 248.7 33.3001C249.1 33.8001 249.2 34.5001 249.4 35.2001C248.7 34.2001 247.8 33.4001 247.1 32.6001H247.3C247.4 32.8001 247.5 32.5001 247.6 32.6001C248.4 32.2001 249.3 32.2001 250.2 32.1001C250.7 32.1001 251.2 32.0001 251.7 32.0001C254.2 31.9001 256.7 32.3001 259 33.0001Z" fill="#508FCD"/>
<path d="M246.6 37.7002C245.6 38.1002 245.1 39.1002 244 39.1002C243.7 39.2002 243.4 39.4002 243 39.3002C244.1 38.6002 245.2 37.9002 246.4 37.5002L246.6 37.7002Z" fill="#508FCD"/>
<path d="M263.5 37.7001C262.5 38.4001 261.5 39.0001 260.6 39.8001C258.6 41.3001 257.2 43.2001 255.5 45.0001C255.3 44.9001 255.1 44.5001 254.9 44.4001C254.3 43.4001 253.3 43.0001 252.5 42.1001C252.4 42.1001 252.3 41.9001 252.2 41.8001C251.3 41.2001 250.6 40.4001 249.7 39.8001C249.3 39.4001 248.6 39.2001 248.3 38.8001C253.3 37.9001 258.2 37.5001 263.5 37.7001Z" fill="#FCD421"/>
<path d="M265.6 39.3001C267.1 41.4001 267.9 43.8001 268.4 46.1001C267.7 46.0001 267 45.8001 266.3 45.7001C265.4 45.6001 264.5 45.4001 263.5 45.4001C262.6 45.3001 261.6 45.3001 260.7 45.2001C259.1 45.2001 257.2 45.0001 255.5 45.1001C256.1 45.1001 256.2 44.4001 256.6 44.0001C257 43.6001 257.4 43.2001 257.8 42.6001C258.7 42.0001 259.3 41.1001 260.1 40.5001C260.8 39.9001 261.5 39.4001 262.1 38.8001C262.7 38.6001 263.1 38.1001 263.6 37.8001L264 37.6001C264.7 38.2001 265 38.8001 265.6 39.3001Z" fill="#005694"/>
<path d="M271.3 39.6001C271.5 39.8001 271.8 40.0001 271.7 40.3001C271.6 40.8001 271.4 41.4001 271.3 41.9001C271 42.0001 271.4 42.3001 271.2 42.5001C270.9 42.2001 271 41.6001 270.7 41.3001C270.4 41.4001 270.6 41.9001 270.5 42.1001C270.7 42.8001 271.2 43.3001 271.4 43.9001C270.6 44.4001 269.7 44.8001 269 45.5001L268.7 45.7001C268.6 45.4001 268.7 45.0001 268.5 44.7001C268.4 44.3001 268.4 43.8001 268.1 43.5001C268.2 43.0001 267.7 42.6001 267.7 42.1001C267.4 41.6001 267.3 41.0001 267 40.5001C266.8 40.1001 266.6 39.7001 266.3 39.3001C266.1 38.6001 265.3 38.2001 264.9 37.6001C267.1 38.1001 269.3 38.6001 271.3 39.6001Z" fill="#FCD421"/>
<path d="M252.2 42.4002C253.2 43.3002 254.3 44.1002 255.1 45.2002C253.4 45.4002 251.8 45.6002 250.2 46.0002C246.7 46.7002 243.6 48.2002 240.4 49.7002C241 48.2002 241.8 46.7002 242.5 45.2002C242.5 45.0002 242.7 44.9002 242.8 44.8002C243 44.1002 243.5 43.6002 243.8 43.0002C244.4 42.3002 244.7 41.5002 245.3 41.0002C245.6 40.5002 246 39.9002 246.4 39.6002C246.4 39.4002 246.6 39.4002 246.7 39.2002C247 39.1002 247.4 39.0002 247.7 39.0002C249.2 39.9002 250.7 41.2002 252.2 42.4002Z" fill="#005694"/>
<path d="M241.9 45.6002C241.6 46.3002 241.2 47.1002 240.8 47.8002C240.4 48.6002 240.1 49.3002 239.7 50.1002C239.5 50.0002 239.4 49.8002 239.1 49.7002C238.7 49.3002 238.3 48.9002 237.9 48.5002H237.8C237.5 48.1002 237 47.7002 236.6 47.5002C236.4 47.1002 236 46.8002 235.6 46.6002L235.4 46.3002C236.9 44.8002 238.6 43.1002 240.1 41.8002C240.2 41.6002 241.4 40.8002 241.7 40.7002C243 40.1002 244.5 39.9002 245.8 39.5002C244.4 41.3002 243 43.4002 241.9 45.6002Z" fill="#FCD421"/>
<path d="M228.6 40.2002C228.6 40.7002 228.1 40.8002 227.9 41.1002C226.1 42.7002 224.5 44.1002 223.1 46.1002C223 46.1002 223 46.1002 223 46.1002L223.1 46.2002C221.9 48.3002 222 51.3002 222.4 53.6002C222.7 55.4002 223.4 57.0002 224.3 58.5002C224.1 58.8002 223.8 59.1002 223.8 59.5002C223.6 59.7002 223.2 60.1002 223.1 60.5002L223 60.6002C222.1 59.4002 221.9 57.9002 221.5 56.5002C221 53.3002 220.8 49.5002 221.8 46.4002C222 46.0002 222.2 45.6002 222.4 45.2002C222.5 45.2002 222.5 45.1002 222.5 45.1002L222.7 45.0002C223.7 44.1002 224.6 43.4002 225.6 42.6002C225.6 42.5002 225.7 42.5002 225.7 42.5002C225.6 42.3002 225.9 42.4002 226 42.2002C226.8 41.5002 227.6 40.7002 228.6 40.2002Z" fill="#508FCD"/>
<path d="M271.9 44.7001C272.2 45.3001 272.6 45.9001 272.3 46.7001C272.3 46.9001 272 47.1001 271.9 47.3001C270.9 46.9001 270 46.7001 268.9 46.3001C269 45.8001 269.6 45.8001 269.9 45.4001C270.3 45.0001 270.7 44.7001 271.2 44.4001C271.5 44.1001 271.7 44.5001 271.9 44.7001Z" fill="#005694"/>
<path d="M256.2 46C258.7 48.6 260.5 51.4 262.7 54.2L263.2 55.1C263.4 58.4 263.6 62.2 263.1 65.5C263.3 65.7 262.9 66.1 263.4 66.1C263.5 65.8 263.8 65.6 263.9 65.2V65.1C265.2 63.1 266.9 61.1 268.7 59.4C269 59.2 269.4 59.1 269.7 58.9C270.5 59.1 271.2 59.2 271.8 59.8C272.5 60.3 273.3 60.8 273.4 61.8C273.9 65.1 272.4 68.2 270.3 70.8C268.9 72.6 266.9 73.9 264.9 74.5C264.1 74.8 263.3 74.4 262.8 73.8C262.9 73.6 262.6 73.7 262.5 73.6C262.3 73.5 262.1 73.1 261.8 73.2C261.6 73.4 261.4 73.6 261.4 73.9C258.1 78.9 253.6 83.1 248.1 85.6C246.7 86.1 245.1 86.3 243.6 85.7C242.9 85.4 242.1 85.1 241.5 84.7C240.8 84.2 240 83.8 239.3 83.2C236.8 81.4 234.8 79.1 233.1 76.4C232.1 74.7 231.4 73.1 231.1 71.2C231.1 69.5 231.6 67.9 232.6 66.6C233.2 65.8 233.9 64.9 234.9 64.4C235.1 64 234.7 63.6 234.6 63.2C233.4 60.6 232.7 58 232.5 55.1L232.4 54.7C232.8 54.4 233.2 54.2 233.7 54C233.6 54.7 233.8 55.4 234.3 55.9C234.4 55.9 234.6 56 234.7 55.9C235.1 54.6 235.7 53.1 237 52.3C241.6 50.1 246.1 47.5 251.2 46.8C252.9 46.3 254.4 45.9 256.2 46Z" fill="#EEC88D"/>
<mask id="mask2_123_2" style="mask-type:luminance" maskUnits="userSpaceOnUse" x="231" y="45" width="43" height="42">
<path d="M256.2 46C258.7 48.6 260.5 51.4 262.7 54.2L263.2 55.1C263.4 58.4 263.6 62.2 263.1 65.5C263.3 65.7 262.9 66.1 263.4 66.1C263.5 65.8 263.8 65.6 263.9 65.2V65.1C265.2 63.1 266.9 61.1 268.7 59.4C269 59.2 269.4 59.1 269.7 58.9C270.5 59.1 271.2 59.2 271.8 59.8C272.5 60.3 273.3 60.8 273.4 61.8C273.9 65.1 272.4 68.2 270.3 70.8C268.9 72.6 266.9 73.9 264.9 74.5C264.1 74.8 263.3 74.4 262.8 73.8C262.9 73.6 262.6 73.7 262.5 73.6C262.3 73.5 262.1 73.1 261.8 73.2C261.6 73.4 261.4 73.6 261.4 73.9C258.1 78.9 253.6 83.1 248.1 85.6C246.7 86.1 245.1 86.3 243.6 85.7C242.9 85.4 242.1 85.1 241.5 84.7C240.8 84.2 240 83.8 239.3 83.2C236.8 81.4 234.8 79.1 233.1 76.4C232.1 74.7 231.4 73.1 231.1 71.2C231.1 69.5 231.6 67.9 232.6 66.6C233.2 65.8 233.9 64.9 234.9 64.4C235.1 64 234.7 63.6 234.6 63.2C233.4 60.6 232.7 58 232.5 55.1L232.4 54.7C232.8 54.4 233.2 54.2 233.7 54C233.6 54.7 233.8 55.4 234.3 55.9C234.4 55.9 234.6 56 234.7 55.9C235.1 54.6 235.7 53.1 237 52.3C241.6 50.1 246.1 47.5 251.2 46.8C252.9 46.3 254.4 45.9 256.2 46Z" fill="white"/>
</mask>
<g mask="url(#mask2_123_2)">
<path fill-rule="evenodd" clip-rule="evenodd" d="M256.9 45.9001L252 46.5001C252 46.5001 257.5 52.1001 257.1 54.9001C257.3 54.7001 259.4 67.9001 257.3 72.7001C257.4 72.8001 252.8 82.4001 247.7 84.7001C247.8 84.7001 259.6 79.1001 261.7 68.9001C261.7 68.8001 263.7 57.4001 261.1 51.2001C259.9 49.2001 256.9 45.9001 256.9 45.9001Z" fill="#E4B980"/>
</g>
<path d="M221 46.6001C221.1 46.5001 221 46.5001 221 46.6001Z" fill="white"/>
<path d="M238.1 49.0001C238.4 49.4001 238.9 49.8001 239.2 50.2001C236.6 51.4001 234 52.8001 231.4 54.2001C231.6 53.8001 231.8 53.3001 231.8 52.8001C232.2 52.1001 232.1 51.3001 232.5 50.7001C232.6 49.9001 232.9 49.2001 233.1 48.5001C233.8 47.8001 234.4 47.0001 235.1 46.4001C236.1 47.4001 237.1 48.2001 238.1 49.0001Z" fill="#005694"/>
<path d="M270.5 47.7002C271.8 51.2002 272.6 55.1002 272.5 59.1002C272.1 58.9002 271.7 58.8002 271.3 58.6002C271.8 56.7002 271.8 54.8002 271.3 52.9002C271.2 52.4002 270.9 51.8002 270.9 51.3002C270.7 50.9002 270.6 50.4002 270.3 50.1002C270.2 49.6002 269.9 49.3002 269.6 48.8002C269.4 48.1002 269 47.6002 268.8 47.0002C269.3 47.1002 270.1 47.0002 270.5 47.7002Z" fill="#508FCD"/>
<path d="M271.8 47.8001C271.9 48.2001 271.9 48.7001 272.2 49.0001C272.4 49.5001 272.8 50.1001 273.1 50.5001C273.6 51.3001 274.4 52.0001 275.1 52.6001C275 52.9001 274.8 53.1001 274.4 53.2001C274 53.4001 273.7 53.2001 273.4 53.1001C272.7 52.5001 272.4 51.6001 272.3 50.8001C272.2 50.4001 272 49.9001 271.9 49.5001C271.8 49.2001 271.7 48.8001 271.6 48.5001C271.6 48.4001 271.4 48.5001 271.5 48.4001V48.3001C271.4 48.1001 271.2 47.9001 271.2 47.6001C271.5 47.7001 271.7 47.7001 271.8 47.8001Z" fill="#F0ED9C"/>
<path d="M232.4 49.4001C232 51.2001 231.5 52.9001 230.9 54.7001C230.6 54.9001 230.2 55.1001 229.9 55.3001C229.7 55.0001 229.7 54.6001 229.7 54.2001C229.7 53.7001 229.6 53.0001 229.7 52.5001C230.5 51.4001 231.5 50.4001 232.4 49.4001Z" fill="#FCD421"/>
<path d="M234.4 55.1002C234.1 54.7002 234.3 54.1002 234 53.7002C234.4 53.3002 234.9 53.2002 235.3 53.0002C234.9 53.7002 234.4 54.3002 234.4 55.1002Z" fill="#508FCD"/>
<path d="M252.7 53.8C254.7 55.6 254.7 58.6001 254.7 61.2001C254.6 62.5001 254.4 63.8 254.1 65C254.5 65.2 255.2 64.9001 255.3 65.4001C255.2 65.5001 255.3 65.5 255.3 65.7C255.2 65.7 255 65.6 254.8 65.6C253 65.4 251.1 65.7 249.7 66.6C249.6 66.6 249.6 66.4001 249.7 66.3001C249.8 66.2001 250.2 66.1001 250.1 65.8001C248.8 63.6001 248.8 60.6 249.1 58C249.4 56.8 249.9 55.5 250.6 54.5C250.5 54.4 250.3 54.2 250.3 54C250.3 53.6 250.8 53.6 250.9 53.3C251.6 53.3 252.2 53.5 252.7 53.8Z" fill="black"/>
<path d="M253.8 56.3001C254.1 57.2001 254.2 58.2001 254.2 59.2001C254.1 59.0001 253.9 58.9001 253.7 58.8001C253.2 58.7001 253.1 59.1001 252.7 59.3001C251.8 61.1001 251.7 63.3001 252.2 65.3001C251.5 65.4001 251 65.7001 250.4 65.9001C249.4 63.8001 249.1 61.4001 249.2 59.0001C249.3 57.6001 249.9 56.3001 250.6 55.1001C251 54.7001 251.4 54.5001 251.9 54.4001C253 54.5001 253.4 55.5001 253.8 56.3001Z" fill="white"/>
<path d="M231.2 55.3C231 58.2 232.2 60.8 233.7 63.1C233.9 63.5 234.2 63.8 234.5 64.1L233.8 64.5C233.1 63.8 232.8 62.9 232.4 62C231.5 60 231 57.9 230.9 55.6C230.8 55.5 231 55.4 231.2 55.3Z" fill="#508FCD"/>
<path d="M253.9 59.7001C254.1 59.9001 253.9 60.1001 254 60.4001C253.9 60.5001 253.8 60.8 253.6 60.8C253.3 60.9 253.2 60.6001 253.1 60.4001C252.8 60.0001 253.2 59.6 253.5 59.3C253.7 59.3 253.8 59.6001 253.9 59.7001Z" fill="white"/>
<path d="M231.5 61.8C232 62.8 232.6 63.9001 233.3 64.8001C232.8 65.3001 232.1 65.8 231.8 66.5C231.3 65.4 230.6 64.3 230.5 63.1C230.5 62.6 230.9 62 231.5 61.8Z" fill="#EEC88D"/>
<path d="M275.3 67.4001C276.5 68.0001 277.9 68.7001 278.4 70.1001C277.7 70.3001 276.9 70.4001 276.1 70.5001C275.5 69.3001 274.1 68.7001 272.9 68.4001C273.2 67.9001 273.3 67.4001 273.6 66.9001C274.2 67.0001 274.8 67.2001 275.3 67.4001Z" fill="#508FCD"/>
<path d="M230.3 71.5002L230.4 72.0002C229.3 72.6002 228.3 73.8002 228.2 75.0002C227.7 75.5002 227.3 76.0002 226.8 76.5002C226.7 76.4002 226.7 76.1002 226.7 75.9002C227.2 73.9002 227.9 71.7002 229.8 70.8002C230.5 70.6002 230.1 71.3002 230.3 71.5002Z" fill="#508FCD"/>
<path d="M250.1 71.1001C250.2 71.2001 250.5 71.3001 250.6 71.4001C251.2 71.8001 251.9 71.9001 252.4 72.4001C252.6 72.3001 252.5 72.5001 252.5 72.7001C252.4 72.8001 252.3 72.7001 252.1 72.7001C251.9 72.6001 251.7 72.5001 251.4 72.5001C250.1 75.2001 248.7 77.8001 246.8 80.1001C245.9 81.1001 244.6 81.6001 243.4 81.5001C243.3 81.5001 243.2 81.2001 243.1 81.4001C242.8 81.3001 242.5 81.3001 242.3 81.0001C241.9 80.6001 242.8 80.2001 242.1 79.9001C241.9 79.7001 241.7 79.3001 241.4 79.0001C241.4 78.8001 241.2 78.7001 241.1 78.5001C240.4 77.4001 239.7 76.3001 239 75.1001C238.3 74.7001 237.8 74.3001 237.2 73.7001C237 73.3001 236.5 72.8001 236.8 72.4001L237.1 72.5001C237.7 73.2001 238.2 74.1001 239.1 74.4001C240.4 75.3001 242.2 75.7001 243.7 75.4001C244.7 75.1001 245.6 74.8001 246.6 74.3001C247.8 73.7001 248.7 72.9001 249.7 71.9001C249.5 71.6001 249 71.7001 248.9 71.3001C248.9 71.1001 249 70.9001 249.3 70.9001C249.8 70.9001 249.9 71.0001 250.1 71.1001Z" fill="black"/>
<path d="M251.2 72.4001C251 72.8001 250.7 73.3001 250.5 73.7001C250.2 74.0001 250.1 74.5001 249.8 74.8001C249.7 75.0001 249.5 75.2001 249.4 75.5001C249.4 75.8001 249.1 75.9001 249.1 76.2001C248.9 76.1001 248.7 76.2001 248.5 76.3001C248.4 76.4001 248.2 76.5001 248.3 76.7001C248.4 76.8001 248.6 76.8001 248.7 76.8001C248.6 76.9001 248.5 77.0001 248.6 77.2001C248.5 77.3001 248.2 77.5001 248.2 77.7001C247.8 78.4001 247.3 79.0001 246.8 79.6001C246.7 79.6001 246.6 79.8001 246.5 79.9001C245.8 80.7001 244.3 81.0001 243.2 80.6001C242.4 79.8001 241.9 79.0001 241.4 78.1001C241.5 78.0001 241.8 78.1001 241.9 77.9001C241.9 77.7001 241.8 77.6001 241.6 77.5001L241 77.4001C240.7 76.7001 240.2 76.2001 240 75.6001C242.3 76.4001 245 76.0001 247 74.7001C248.2 74.0001 249.4 73.0001 250.3 71.9001L251.2 72.4001Z" fill="white"/>
<path d="M274.6 73.4001C277.1 75.2001 277.4 78.7001 276.7 81.5001L276.6 81.4001C276.1 80.9001 275.5 80.4001 274.9 80.0001C275.1 79.6001 275.1 79.1001 275.2 78.5001C275.2 78.3001 275.2 78.1001 275.2 78.0001C275.2 76.1001 274 74.5001 272.5 73.2001C272.3 73.1001 272.1 73.0001 271.9 72.9001C272.6 72.2001 273.6 72.9001 274.3 73.1001L274.6 73.4001Z" fill="#508FCD"/>
<path d="M230.8 75.3001C230.6 76.3001 230.4 77.4001 230.5 78.5001C230.5 79.5001 230.8 80.6001 231.3 81.3001C231.8 82.2001 232.5 82.9001 233.2 83.7001C233.7 84.0001 234 84.6001 234.5 84.9001C234.9 85.2001 235.3 85.6001 235.7 85.9001L234.7 86.4001C232.8 84.9001 231 83.2001 229.5 81.2001C229.3 80.9001 229.1 80.5001 228.9 80.2001C228.7 78.3001 228.9 76.2001 229.7 74.7001C230.1 74.5001 230.5 74.2001 231 74.1001C231.3 74.3001 230.8 74.9001 230.8 75.3001Z" fill="#508FCD"/>
<path d="M277.7 71.1001C277.8 71.0001 277.8 71.0001 277.7 71.1001Z" fill="#EB3439"/>
<path d="M271.6 79.6002C272.7 81.1002 274.2 83.1002 272.9 85.0002C272.6 85.5002 273 85.3002 272.7 85.8002C272.6 85.7002 271.8 86.1002 271.6 86.0002C271.5 85.7002 271.2 85.6002 271.4 85.2002C271.6 84.8002 271.4 84.5002 271.6 84.1002C271.5 83.4002 271.8 82.7002 271.4 82.0002C271.4 81.7002 271.2 81.4002 271 81.1002C270.4 80.2002 269.5 79.3002 268.7 78.7002C269.7 78.8002 271 78.8002 271.6 79.6002Z" fill="#508FCD"/>
<path fill-rule="evenodd" clip-rule="evenodd" d="M250 54.5002C250 54.5002 247.1 55.5002 247.1 59.8002C247.1 59.8002 247.3 64.9002 248.6 66.9002C248.6 66.8002 250 65.9002 250 65.9002C250 65.9002 247.1 60.2002 250.2 55.0002C250.1 55.0002 250 54.5002 250 54.5002Z" fill="#E4B980"/>
<path fill-rule="evenodd" clip-rule="evenodd" d="M249.6 67.1001C249.6 67.1001 251.7 64.9001 255.2 66.1001L249.6 67.1001Z" fill="#F2E0C4"/>
<path fill-rule="evenodd" clip-rule="evenodd" d="M241.6 65.3001L242.4 66.3001C242.4 66.3001 239.4 65.9001 238.6 68.5001C238.6 68.6001 238.1 68.3001 238.1 68.3001C238.1 68.3001 237.9 65.4001 241 65.1001L241.6 65.3001Z" fill="#F2E0C4"/>
<path fill-rule="evenodd" clip-rule="evenodd" d="M236.5 56.0002C236.5 56.0002 234 58.1002 236.3 64.5002C236.3 64.4002 237.8 65.2002 237.8 65.2002C237.8 65.2002 235.6 60.6002 236.4 57.2002C236.4 57.3002 236.5 56.0002 236.5 56.0002Z" fill="#E4B980"/>
<path fill-rule="evenodd" clip-rule="evenodd" d="M237.9 66.2002C237.9 66.2002 234.3 64.3002 233.8 66.0002C233.9 66.0002 237.9 66.2002 237.9 66.2002Z" fill="#F2E0C4"/>
<path fill-rule="evenodd" clip-rule="evenodd" d="M238.3 68.4001C238.3 68.4001 239.7 69.7001 241.8 70.0001C242 70.0001 242.7 70.9001 242.7 70.9001L243.2 70.5001C243.2 70.5001 244.5 70.2001 244.4 71.0001C244.4 71.0001 243.3 71.8001 243.2 71.2001C243.3 71.2001 242.6 70.9001 242.6 70.9001C242.6 70.9001 241.5 72.0001 240.3 71.1001C240.3 71.1001 239 70.4001 238.7 69.6001C238.8 69.6001 238.3 68.4001 238.3 68.4001Z" fill="#E4B980"/>
<path d="M252.6 46.9002C253.4 47.1002 254 47.6002 254.7 48.1002C255.4 48.5002 256 49.2002 256.6 49.7002C257 50.9002 257 52.4002 257 53.7002C257.1 54.3002 256.9 54.9002 256.8 55.5002C256.7 55.6002 256.6 55.2002 256.5 55.4002C256.4 55.3002 256.3 55.2002 256.3 55.0002C256.2 54.8002 256.3 54.6002 256.2 54.3002C256 53.3002 255.5 52.3002 254.8 51.5002C253.6 50.4002 252.1 49.4002 250.7 48.6002C250.6 47.8002 251 47.1002 251.4 46.5002C251.8 46.5002 252.3 46.7002 252.6 46.9002Z" fill="black"/>
<path d="M254.5 48.6C255.2 49.1 256 49.6001 256.4 50.4001C256.7 51.6001 256.6 52.9001 256.6 54.2001C256.4 53.2001 255.9 52.2 255.2 51.5C254.2 50.3 252.7 49.3 251.4 48.5C251.5 48.1 251.6 47.6 252.1 47.3C252.9 47.5 253.6 48.1 254.5 48.6Z" fill="#508FCD"/>
<path d="M242.5 70.0002C242.7 70.2002 242.9 70.7002 243.3 70.6002C243.5 70.4002 243.6 70.0002 243.9 69.8002C244.1 70.0002 243.6 70.2002 243.8 70.5002C243.5 70.6002 243.6 71.0002 243.2 71.1002C242.5 71.2002 242.3 70.5002 242 70.1002C242 70.0002 242 69.8002 242.1 69.7002C242.2 69.7002 242.4 69.9002 242.5 70.0002Z" fill="black"/>
<path d="M239.5 56.3001C240.8 59.0001 241 62.0001 240.7 65.0001C241.1 65.0001 241.6 65.0001 241.9 65.3001C241.8 65.4001 241.7 65.5001 241.5 65.5001C240.8 65.2001 240.3 65.6001 239.7 65.8001C238.9 66.5001 238.3 67.5001 238.6 68.6001C238.9 69.6001 239.6 70.6001 240.6 71.2001C240.5 71.5001 240.2 71.4001 239.9 71.5001C238.7 71.0001 238.1 69.6001 237.9 68.3001C238 67.9001 237.8 67.4001 238.2 67.1001C238.3 66.7001 238.5 66.4001 238.8 66.1001C237.9 65.4001 236.7 65.3001 235.7 65.1001C235.6 64.8001 235.9 64.9001 236.1 64.8001C236.5 64.9001 236.9 64.9001 237.3 65.0001C236.1 62.4001 235.5 59.4001 236.3 56.5001C236.6 56.3001 236.2 56.1001 236.2 55.8001C236.1 55.5001 236.2 55.2001 236.3 55.0001C236.7 54.6001 237.3 54.7001 237.8 54.8001C238.6 54.8001 239.2 55.6001 239.5 56.3001Z" fill="black"/>
<path d="M239.5 57C239.9 58 240.2 59 240.3 60.1C240.1 60 239.8 60 239.6 60.1C238.7 61.1 238.9 62.6 239.1 63.8L239.5 65.4001L239.2 65.6C238.6 65.2 237.6 65.2001 237.5 64.3001C236.6 62.0001 236 59.2 236.8 56.5C237.1 55.9 237.5 55.4 238.2 55.3C238.8 55.6 239.1 56.4 239.5 57Z" fill="white"/>
<path d="M240.3 61.4001C240.1 61.5001 240 61.8001 239.7 61.6001C239.6 61.2001 239.3 60.9001 239.6 60.6001C240.2 60.4001 240.1 61.1001 240.3 61.4001Z" fill="white"/>
<path fill-rule="evenodd" clip-rule="evenodd" d="M263.5 70.8002L263.8 69.3002L268.7 62.3002C268.7 62.3002 270 60.5002 271.8 62.3002C272.3 63.2002 271.9 64.9002 271.9 64.9002C271.9 64.9002 270 70.1002 265.7 71.0002C265.7 70.9002 267.6 68.6002 267.6 68.6002L267.3 67.4002L264.6 70.0002L263.5 70.8002Z" fill="#E4B980"/>
<path d="M271.6 63.3C271.7 63.3 271.8 63.4 271.8 63.5C271.8 63.7 271.7 63.9 271.6 64H271.2C270.7 63.8 270.2 62.9 269.5 63.5L269.6 63.6H269.5C269.1 64.2 268.5 64.8 268 65.5C267.9 65.8 267.3 66.1001 267.6 66.4001C267.8 67.2001 268 68.1001 267.9 68.9001C267.8 69.1001 267.7 69.3 267.5 69.5C267.4 69.7 267.4 69.7001 267.2 69.8001H267.3C267.2 69.9001 267 69.9 267 70.1H266.9V70.2C266.8 70.2 266.9 70.1 266.8 70.1C266.8 70.2 266.6 70.2001 266.5 70.4001C266.4 70.5001 266.1 70.6 266 70.7V70.8001C265.9 70.8001 265.9 70.8 265.9 70.7C265.8 70.2 266.5 70.2001 266.6 69.8001H266.7C266.8 69.8001 266.7 69.7 266.7 69.7H266.8V69.6C266.9 69.5 267 69.6001 267 69.4001C267.1 69.3001 267.1 69.2 267.3 69.2C267.8 68.5 267.3 67.5 267.2 66.7V66.6C266.1 67.6 265.4 69 264.2 70H264.1L264 69.9001C265.8 67.5001 267.7 65.2 269.5 62.8C269.7 62.6 270 62.4 270.3 62.3C270.7 62.6 271.4 62.6 271.6 63.3Z" fill="black"/>
<path fill-rule="evenodd" clip-rule="evenodd" d="M268.8 59.4001L270.8 59.9001C270.8 59.9001 269 60.1001 268.4 60.9001C268.5 60.9001 262.7 68.1001 262.7 68.1001C262.7 68.1001 263.5 64.5001 268.1 60.1001L268.8 59.4001Z" fill="#F2E0C4"/>
</g>
<defs>
<clipPath id="clip0_123_2">
<rect width="300" height="101.6" fill="white"/>
</clipPath>
</defs>
</svg>
