<svg width="596" height="91" viewBox="0 0 596 91" fill="none" xmlns="http://www.w3.org/2000/svg">
<mask id="mask0_116_140" style="mask-type:luminance" maskUnits="userSpaceOnUse" x="0" y="2" width="594" height="87">
<path d="M593.668 2.2749H0V88.7249H593.668V2.2749Z" fill="white"/>
</mask>
<g mask="url(#mask0_116_140)">
<path d="M77.5488 28.4795H59.521V8.1856C59.521 4.93723 56.8521 2.2749 53.596 2.2749C50.3396 2.2749 47.6707 4.93723 47.6707 8.1856V34.39C47.6707 37.6384 50.3396 40.3008 53.596 40.3008H77.5488C80.8052 40.3008 83.4738 37.6384 83.4738 34.39C83.4738 31.1419 80.8052 28.4795 77.5488 28.4795Z" fill="#1A1449"/>
<path d="M77.5488 62.5202H59.521V82.8141C59.521 86.0625 56.8521 88.7248 53.596 88.7248C50.3396 88.7248 47.6707 86.0625 47.6707 82.8141V56.6097C47.6707 53.3613 50.3396 50.699 53.596 50.699H77.5488C80.8052 50.699 83.4738 53.3613 83.4738 56.6097C83.4738 59.8578 80.8052 62.5202 77.5488 62.5202Z" fill="#7DC4A5"/>
<path d="M5.92527 62.5202H23.9528V82.8141C23.9528 86.0625 26.6217 88.7248 29.8781 88.7248C33.1346 88.7248 35.8035 86.0625 35.8035 82.8141V56.6097C35.8035 53.3613 33.1346 50.699 29.8781 50.699H5.92527C2.66888 50.699 0 53.3613 0 56.6097C0 59.8578 2.66888 62.5202 5.92527 62.5202Z" fill="#1A1449"/>
<path d="M5.92527 28.4795H23.9528V8.1856C23.9528 4.93723 26.6217 2.2749 29.8781 2.2749C33.1346 2.2749 35.8035 4.93723 35.8035 8.1856V34.39C35.8035 37.6384 33.1346 40.3008 29.8781 40.3008H5.92527C2.66888 40.3008 0 37.6384 0 34.39C0 31.1419 2.66888 28.4795 5.92527 28.4795Z" fill="#7DC4A5"/>
<path d="M106.99 28.4626H132.991V35.2775H114.493V42.5278H130.792V49.3427H114.493V62.5368H106.973V28.4626H106.99Z" fill="#1A1449"/>
<path d="M146.789 28.2117H153.721L168.358 62.5203H160.502L157.38 54.8851H142.945L139.823 62.5203H132.168L146.805 28.2117H146.789ZM154.695 48.2713L150.162 37.2199L145.63 48.2713H154.712H154.695Z" fill="#1A1449"/>
<path d="M173.629 28.4626H189.239C193.586 28.4626 196.943 29.685 199.193 31.912C201.09 33.8039 202.113 36.4832 202.113 39.698V39.7984C202.113 45.3072 199.142 48.7567 194.795 50.3641L203.137 62.5368H194.358L187.04 51.6366H181.131V62.5368H173.612V28.4626H173.629ZM188.752 45.006C192.411 45.006 194.51 43.0634 194.51 40.1836V40.0832C194.51 36.8682 192.26 35.2104 188.601 35.2104H181.131V44.989H188.752V45.006Z" fill="#1A1449"/>
<path d="M208.912 28.4626H217.002L225.982 42.8626L234.963 28.4626H243.053V62.5368H235.584V40.3007L225.966 54.8513H225.764L216.247 40.4514V62.5538H208.878V28.4626H208.912Z" fill="#1A1449"/>
<path d="M262.96 28.2117H269.893L284.53 62.5203H276.674L273.552 54.8851H259.116L255.994 62.5203H248.34L262.977 28.2117H262.96ZM270.866 48.2713L266.334 37.2199L261.802 48.2713H270.883H270.866Z" fill="#1A1449"/>
<path d="M286.091 45.5921V45.4914C286.091 35.8135 293.41 27.8767 303.901 27.8767C310.346 27.8767 314.189 30.0199 317.361 33.1342L312.578 38.6264C309.944 36.2488 307.256 34.7752 303.85 34.7752C298.093 34.7752 293.947 39.5473 293.947 45.391V45.4914C293.947 51.3351 297.992 56.2079 303.85 56.2079C307.761 56.2079 310.145 54.6505 312.83 52.2227L317.613 57.0451C314.107 60.7958 310.194 63.1233 303.615 63.1233C293.561 63.1233 286.091 55.3873 286.091 45.6088V45.5921Z" fill="#1A1449"/>
<path d="M323.959 28.4626H331.479V62.5368H323.959V28.4626Z" fill="#1A1449"/>
<path d="M351.704 28.2117H358.637L373.275 62.5203H365.418L362.298 54.8851H347.86L344.74 62.5203H337.087L351.722 28.2117H351.704ZM359.61 48.2713L355.079 37.2199L350.548 48.2713H359.628H359.61Z" fill="#1A1449"/>
<path d="M375.708 57.5641L380.157 52.2561C383.228 54.7847 386.451 56.392 390.347 56.392C393.418 56.392 395.282 55.1696 395.282 53.177V53.0766C395.282 51.1847 394.105 50.1968 388.397 48.7398C381.516 46.9817 377.086 45.0898 377.086 38.3252V38.2245C377.086 32.0459 382.069 27.9604 389.036 27.9604C394.023 27.9604 398.253 29.5177 401.725 32.2971L397.815 37.94C394.792 35.847 391.806 34.5745 388.936 34.5745C386.065 34.5745 384.539 35.8803 384.539 37.538V37.6385C384.539 39.8822 385.998 40.6023 391.906 42.1093C398.84 43.9178 402.732 46.3957 402.732 52.3231V52.4235C402.732 59.1882 397.562 62.9892 390.194 62.9892C385.025 62.9892 379.804 61.1808 375.708 57.5307V57.5641Z" fill="#1A1449"/>
<path d="M409.279 28.4626H422.607C433.35 28.4626 440.751 35.8135 440.751 45.4076V45.5083C440.751 55.1024 433.332 62.5368 422.607 62.5368H409.279V28.4626ZM416.799 35.2274V55.7722H422.607C428.749 55.7722 432.897 51.6366 432.897 45.592V45.4913C432.897 39.4635 428.749 35.2274 422.607 35.2274H416.799Z" fill="#1A1449"/>
<path d="M447.784 28.4626H455.304V62.5368H447.784V28.4626Z" fill="#1A1449"/>
<path d="M463.831 28.4626H479.442C483.791 28.4626 487.148 29.685 489.395 31.912C491.292 33.8039 492.317 36.4832 492.317 39.698V39.7984C492.317 45.3072 489.346 48.7567 484.998 50.3641L493.342 62.5368H484.563L477.244 51.6366H471.336V62.5368H463.816V28.4626H463.831ZM478.956 45.006C482.614 45.006 484.712 43.0634 484.712 40.1836V40.0832C484.712 36.8682 482.465 35.2104 478.804 35.2104H471.336V44.989H478.956V45.006Z" fill="#1A1449"/>
<path d="M499.098 28.4626H524.863V35.1267H506.567V42.0421H522.665V48.7064H506.567V55.8562H525.116V62.5201H499.114V28.4626H499.098Z" fill="#1A1449"/>
<path d="M530.285 45.5921V45.4914C530.285 35.8135 537.604 27.8767 548.095 27.8767C554.541 27.8767 558.385 30.0199 561.557 33.1342L556.773 38.6264C554.137 36.2488 551.452 34.7752 548.043 34.7752C542.287 34.7752 538.142 39.5473 538.142 45.391V45.4914C538.142 51.3351 542.187 56.2079 548.043 56.2079C551.957 56.2079 554.341 54.6505 557.026 52.2227L561.809 57.0451C558.3 60.7958 554.389 63.1233 547.809 63.1233C537.756 63.1233 530.285 55.3873 530.285 45.6088V45.5921Z" fill="#1A1449"/>
<path d="M575.757 35.3779H565.367V28.4626H593.668V35.3779H583.277V62.5368H575.757V35.3779Z" fill="#1A1449"/>
</g>
</svg>
