<svg width="343" height="119" viewBox="0 0 343 119" fill="none" xmlns="http://www.w3.org/2000/svg">
<g clip-path="url(#clip0_1_346)">
<path d="M279.9 59.5104C279.9 76.4253 293.832 90.138 311.019 90.138C328.206 90.138 342.133 76.4253 342.133 59.5104C342.133 42.5955 328.201 28.8828 311.019 28.8828C293.837 28.8828 279.9 42.5955 279.9 59.5104Z" fill="url(#paint0_linear_1_346)"/>
<mask id="mask0_1_346" style="mask-type:luminance" maskUnits="userSpaceOnUse" x="279" y="28" width="64" height="63">
<path d="M279.9 59.5104C279.9 76.4253 293.832 90.138 311.019 90.138C328.206 90.138 342.133 76.4253 342.133 59.5104C342.133 42.5955 328.201 28.8828 311.019 28.8828C293.837 28.8828 279.9 42.5955 279.9 59.5104Z" fill="white"/>
</mask>
<g mask="url(#mask0_1_346)">
<path d="M342.133 28.8828H279.9V90.138H342.133V28.8828Z" fill="url(#paint1_linear_1_346)"/>
</g>
<path d="M311.079 23.143C317.489 23.143 322.686 18.0279 322.686 11.7182C322.686 5.40844 317.489 0.293396 311.079 0.293396C304.669 0.293396 299.473 5.40844 299.473 11.7182C299.473 18.0279 304.669 23.143 311.079 23.143Z" fill="url(#paint2_linear_1_346)"/>
<mask id="mask1_1_346" style="mask-type:luminance" maskUnits="userSpaceOnUse" x="299" y="0" width="24" height="24">
<path d="M311.079 23.143C317.489 23.143 322.686 18.0279 322.686 11.7182C322.686 5.40844 317.489 0.293396 311.079 0.293396C304.669 0.293396 299.473 5.40844 299.473 11.7182C299.473 18.0279 304.669 23.143 311.079 23.143Z" fill="white"/>
</mask>
<g mask="url(#mask1_1_346)">
<path d="M322.686 0.293396H299.473V23.138H322.686V0.293396Z" fill="url(#paint3_linear_1_346)"/>
</g>
<path d="M50.5799 29.5272H58.841V90.6526C58.841 94.4242 58.0259 97.961 56.3907 101.263C54.7555 104.565 52.5552 107.463 49.7798 109.955C47.0045 112.448 43.8491 114.406 40.3086 115.82C36.7681 117.234 33.0876 117.943 29.2771 117.943C25.1866 117.943 21.2311 117.009 17.4156 115.141C13.6001 113.272 10.2846 110.79 7.47427 107.682C4.6639 104.58 2.66363 101.138 1.48348 97.3666L9.09448 93.8897C9.83958 96.837 11.2498 99.4996 13.315 101.878C15.3803 104.255 17.8206 106.139 20.631 107.537C23.4414 108.931 26.3267 109.631 29.2771 109.631C31.9925 109.631 34.6178 109.131 37.1532 108.127C39.6885 107.123 41.9688 105.759 43.9991 104.031C46.0243 102.302 47.6295 100.289 48.8097 97.991C49.9899 95.693 50.5799 93.2452 50.5799 90.6526V77.6242C48.5347 81.3159 45.7693 84.3032 42.2888 86.5862C38.8084 88.8642 34.7679 90.0031 30.1623 90.0031C26.0317 90.0031 22.1462 89.1989 18.5107 87.5853C14.8702 85.9767 11.6748 83.7437 8.92446 80.8963C6.1691 78.0488 4.01881 74.7568 2.46361 71.0251C0.908403 67.2935 0.133301 63.282 0.133301 59.0009C0.133301 54.7197 0.908403 50.6983 2.46361 46.9467C4.01881 43.195 6.1691 39.893 8.92446 37.0455C11.6798 34.1981 14.8752 31.9651 18.5107 30.3565C22.1462 28.7479 26.0317 27.9387 30.1623 27.9387C34.7629 27.9387 38.8084 29.0676 42.2888 31.3306C45.7693 33.5886 48.5347 36.5859 50.5799 40.3176V29.5322V29.5272ZM30.2223 81.9853C34.3128 81.9853 37.8433 80.9263 40.8137 78.8032C43.784 76.6801 46.0743 73.8726 47.6896 70.3757C49.2998 66.8788 50.1099 63.0872 50.1099 59.0009C50.1099 54.9145 49.2948 50.9531 47.6596 47.4762C46.0243 43.9993 43.714 41.2068 40.7286 39.1037C37.7383 37.0006 34.2378 35.9515 30.2273 35.9515C26.2167 35.9515 22.5663 36.9806 19.2808 39.0437C15.9954 41.1069 13.39 43.8894 11.4648 47.3863C9.53954 50.8831 8.57441 54.7547 8.57441 59.0009C8.57441 63.2471 9.55954 67.1036 11.5248 70.5855C13.4901 74.0624 16.1154 76.8349 19.4008 78.8981C22.6863 80.9612 26.2967 81.9903 30.2273 81.9903H30.2223V81.9853Z" fill="#40B498"/>
<path d="M121.149 29.5272H129.41V88.4745H121.089L120.854 77.5093C118.924 81.241 116.234 84.2583 112.768 86.5562C109.308 88.8542 105.177 90.0031 100.376 90.0031C96.0508 90.0031 91.9953 89.1889 88.2198 87.5553C84.4443 85.9268 81.1189 83.6738 78.2485 80.8064C75.3781 77.9389 73.1328 74.6169 71.5226 70.8453C69.9074 67.0737 69.1023 63.0273 69.1023 58.7011C69.1023 54.375 69.8874 50.4685 71.4626 46.7368C73.0378 43.0052 75.2381 39.7231 78.0735 36.8907C80.9088 34.0582 84.1693 31.8502 87.8698 30.2616C91.5653 28.668 95.5408 27.8737 99.7863 27.8737C104.742 27.8737 109.053 29.0427 112.708 31.3806C116.369 33.7185 119.259 36.7758 121.384 40.5474L121.149 29.5222V29.5272ZM100.556 81.9853C104.807 81.9853 108.432 80.9362 111.443 78.8331C114.453 76.73 116.744 73.9125 118.319 70.3757C119.894 66.8389 120.619 62.9473 120.504 58.7061C120.384 54.4599 119.459 50.6234 117.729 47.1814C115.998 43.7445 113.608 41.012 110.558 38.9888C107.507 36.9656 103.922 35.9515 99.7913 35.9515C95.6608 35.9515 91.7553 37.0055 88.3148 39.1037C84.8744 41.2068 82.169 44.0143 80.2038 47.5311C78.2385 51.048 77.3134 54.9695 77.4284 59.2906C77.5834 63.4968 78.7336 67.3184 80.8788 70.7554C83.0241 74.1923 85.8245 76.9248 89.285 78.948C92.7454 80.9712 96.5009 81.9853 100.556 81.9853Z" fill="#40B498"/>
<path d="M144.747 88.4695V0.0535889H153.008V88.4695H144.747Z" fill="#40B498"/>
<path d="M172.541 18.0325C171.201 18.0325 170.071 17.5929 169.151 16.7087C168.225 15.8245 167.765 14.7155 167.765 13.3767C167.765 12.0379 168.225 10.9288 169.151 10.0446C170.076 9.16043 171.206 8.72083 172.541 8.72083C173.876 8.72083 174.951 9.16043 175.876 10.0446C176.802 10.9288 177.262 12.0379 177.262 13.3767C177.262 14.7155 176.797 15.8245 175.876 16.7087C174.951 17.5929 173.841 18.0325 172.541 18.0325ZM168.35 29.5272H176.612V88.4745H168.35V29.5272Z" fill="#40B498"/>
<path d="M194.369 88.4695V0.0535889H202.63V88.4695H194.369Z" fill="#40B498"/>
<path d="M243.935 90.0031C238.505 90.0031 233.559 88.6094 229.093 85.8169C224.628 83.0294 221.067 79.2827 218.412 74.5869C215.757 69.8911 214.431 64.6958 214.431 58.9959C214.431 54.6747 215.197 50.6334 216.732 46.8817C218.267 43.1301 220.382 39.828 223.073 36.9806C225.768 34.1331 228.903 31.9001 232.484 30.2916C236.064 28.683 239.88 27.8737 243.93 27.8737C248.296 27.8737 252.316 28.7379 255.997 30.4664C259.672 32.1949 262.843 34.6127 265.498 37.7149C268.153 40.8221 270.159 44.4539 271.519 48.6202C272.874 52.7864 273.434 57.2874 273.199 62.1181H223.163C223.633 65.8497 224.823 69.1918 226.733 72.1391C228.638 75.0865 231.079 77.4144 234.049 79.1229C237.019 80.8313 240.315 81.7056 243.93 81.7455C247.866 81.7455 251.411 80.7264 254.582 78.6783C257.747 76.6351 260.297 73.8276 262.223 70.2508L270.604 72.1941C268.243 77.4194 264.683 81.6956 259.922 85.0126C255.162 88.3346 249.831 89.9931 243.93 89.9931V90.0031H243.935ZM222.928 55.464H264.878C264.603 51.8073 263.493 48.4603 261.543 45.413C259.597 42.3658 257.087 39.9329 254.022 38.1046C250.956 36.2762 247.591 35.362 243.93 35.362C240.27 35.362 236.929 36.2562 233.899 38.0446C230.869 39.833 228.393 42.2509 226.463 45.2931C224.538 48.3404 223.353 51.7274 222.923 55.459L222.928 55.464Z" fill="#40B498"/>
<path d="M73.3079 97.2566V101.463H78.1435V103.716H73.3079V117.568H71.0526V103.716H68.8423V101.463H71.0526V97.2566C71.0526 96.4723 71.2426 95.7629 71.6227 95.1235C72.0027 94.4841 72.5178 93.9745 73.1629 93.5949C73.8079 93.2152 74.523 93.0254 75.3081 93.0254C75.8782 93.0254 76.4283 93.1403 76.9634 93.3651C77.4934 93.5899 77.9735 93.9246 78.3885 94.3642L76.7733 95.9578C76.6033 95.743 76.3833 95.5781 76.1182 95.4582C75.8532 95.3383 75.5832 95.2834 75.3031 95.2834C74.7531 95.2834 74.283 95.4782 73.893 95.8628C73.4979 96.2475 73.3029 96.7171 73.3029 97.2666V97.2566H73.3079Z" fill="#40B498"/>
<path d="M93.6105 101.463H95.8658V117.568H93.6105L93.5305 114.571C93.0055 115.59 92.2654 116.414 91.3202 117.044C90.3751 117.673 89.245 117.988 87.9348 117.988C86.7546 117.988 85.6445 117.763 84.6144 117.319C83.5842 116.874 82.6741 116.26 81.889 115.475C81.1039 114.691 80.4888 113.782 80.0488 112.753C79.6087 111.724 79.3887 110.615 79.3887 109.436C79.3887 108.257 79.6087 107.188 80.0438 106.164C80.4788 105.145 81.0789 104.245 81.849 103.471C82.6191 102.697 83.5092 102.092 84.5243 101.658C85.5395 101.223 86.6296 101.003 87.7898 101.003C89.1349 101.003 90.3051 101.323 91.3052 101.962C92.3054 102.602 93.1005 103.436 93.6905 104.465L93.6105 101.453V101.463ZM87.8848 115.795C89.0349 115.795 90.0251 115.515 90.8502 114.951C91.6803 114.386 92.3154 113.627 92.7604 112.673C93.2055 111.719 93.4305 110.665 93.4305 109.516C93.4305 108.367 93.2055 107.268 92.7554 106.318C92.3054 105.369 91.6653 104.615 90.8352 104.056C90.0051 103.496 89.0249 103.216 87.8848 103.216C86.7446 103.216 85.7045 103.496 84.7644 104.06C83.8243 104.625 83.0742 105.384 82.5241 106.338C81.969 107.293 81.694 108.352 81.694 109.511C81.694 110.67 81.979 111.744 82.5491 112.693C83.1192 113.642 83.8743 114.396 84.8144 114.956C85.7545 115.515 86.7796 115.795 87.8848 115.795Z" fill="#40B498"/>
<path d="M99.0912 117.568V101.463H101.346V103.686C101.917 102.872 102.657 102.222 103.572 101.738C104.487 101.253 105.482 101.013 106.552 101.013C107.177 101.013 107.777 101.093 108.357 101.253L107.437 103.491C106.987 103.351 106.547 103.281 106.117 103.281C105.247 103.281 104.447 103.496 103.722 103.926C102.997 104.355 102.417 104.93 101.987 105.649C101.557 106.369 101.341 107.168 101.341 108.047V117.568H99.0862H99.0912Z" fill="#40B498"/>
<path d="M110.458 117.568V101.463H112.713V103.686C113.293 102.872 114.033 102.222 114.938 101.738C115.843 101.253 116.829 101.013 117.904 101.013C119.119 101.013 120.229 101.313 121.244 101.908C122.254 102.502 123.044 103.296 123.614 104.285C124.185 103.296 124.97 102.507 125.97 101.908C126.97 101.313 128.075 101.013 129.29 101.013C130.505 101.013 131.611 101.308 132.611 101.898C133.611 102.487 134.406 103.281 134.996 104.28C135.586 105.279 135.881 106.383 135.881 107.597V117.568H133.626V108.097C133.626 107.238 133.416 106.443 132.996 105.714C132.576 104.985 132.016 104.395 131.31 103.951C130.605 103.506 129.825 103.281 128.965 103.281C128.105 103.281 127.325 103.486 126.62 103.901C125.915 104.315 125.355 104.885 124.935 105.609C124.515 106.334 124.305 107.163 124.305 108.097V117.568H122.049V108.097C122.049 107.163 121.839 106.334 121.419 105.609C120.999 104.885 120.434 104.315 119.724 103.901C119.014 103.486 118.229 103.281 117.369 103.281C116.509 103.281 115.738 103.506 115.028 103.951C114.318 104.395 113.753 104.985 113.333 105.714C112.913 106.443 112.703 107.238 112.703 108.097V117.568H110.448H110.458Z" fill="#40B498"/>
<path d="M152.043 101.463H154.298V117.568H152.043L151.963 114.571C151.438 115.59 150.698 116.414 149.753 117.044C148.808 117.673 147.678 117.988 146.367 117.988C145.187 117.988 144.077 117.763 143.047 117.319C142.017 116.874 141.107 116.26 140.322 115.475C139.537 114.691 138.921 113.782 138.481 112.753C138.041 111.724 137.821 110.615 137.821 109.436C137.821 108.257 138.041 107.188 138.476 106.164C138.911 105.145 139.512 104.245 140.282 103.471C141.052 102.697 141.942 102.092 142.957 101.658C143.972 101.223 145.062 101.003 146.222 101.003C147.568 101.003 148.738 101.323 149.738 101.962C150.738 102.602 151.533 103.436 152.123 104.465L152.043 101.453V101.463ZM146.322 115.795C147.473 115.795 148.463 115.515 149.288 114.951C150.118 114.386 150.753 113.627 151.198 112.673C151.643 111.719 151.868 110.665 151.868 109.516C151.868 108.367 151.643 107.268 151.193 106.318C150.743 105.369 150.103 104.615 149.273 104.056C148.443 103.496 147.463 103.216 146.322 103.216C145.182 103.216 144.142 103.496 143.202 104.06C142.262 104.625 141.512 105.384 140.962 106.338C140.407 107.293 140.132 108.352 140.132 109.511C140.132 110.67 140.417 111.744 140.987 112.693C141.557 113.642 142.312 114.396 143.252 114.956C144.192 115.515 145.217 115.795 146.322 115.795Z" fill="#40B498"/>
</g>
<defs>
<linearGradient id="paint0_linear_1_346" x1="279.9" y1="59.5104" x2="342.133" y2="59.5104" gradientUnits="userSpaceOnUse">
<stop stop-color="#6DBE9A"/>
<stop offset="0.08" stop-color="#67BC99"/>
<stop offset="0.66" stop-color="#4CB798"/>
<stop offset="0.99" stop-color="#40B498"/>
</linearGradient>
<linearGradient id="paint1_linear_1_346" x1="281.322" y1="59.4618" x2="343.637" y2="59.4618" gradientUnits="userSpaceOnUse">
<stop stop-color="#6DBE9A"/>
<stop offset="0.08" stop-color="#67BC99"/>
<stop offset="0.66" stop-color="#4CB798"/>
<stop offset="0.99" stop-color="#40B498"/>
</linearGradient>
<linearGradient id="paint2_linear_1_346" x1="299.473" y1="11.7182" x2="322.686" y2="11.7182" gradientUnits="userSpaceOnUse">
<stop stop-color="#6DBE9A"/>
<stop offset="0.08" stop-color="#67BC99"/>
<stop offset="0.66" stop-color="#4CB798"/>
<stop offset="0.99" stop-color="#40B498"/>
</linearGradient>
<linearGradient id="paint3_linear_1_346" x1="298.612" y1="11.7393" x2="321.85" y2="11.7393" gradientUnits="userSpaceOnUse">
<stop stop-color="#6DBE9A"/>
<stop offset="0.08" stop-color="#67BC99"/>
<stop offset="0.66" stop-color="#4CB798"/>
<stop offset="0.99" stop-color="#40B498"/>
</linearGradient>
<clipPath id="clip0_1_346">
<rect width="342" height="118" fill="white" transform="translate(0.133301 0.0535889)"/>
</clipPath>
</defs>
</svg>
