<svg width="400" height="75" viewBox="0 0 400 75" fill="none" xmlns="http://www.w3.org/2000/svg">
<g clip-path="url(#clip0_116_63)">
<path d="M204.54 0H185.398L181.813 13.2353L201.937 9.69427L204.54 0Z" fill="#84B62F"/>
<path d="M49.3278 25.774L36.5477 22.4071C33.7141 21.6525 29.6083 20.3754 30.9962 16.2538C32.0371 12.8289 36.6634 10.4489 42.5619 10.623C45.1642 10.7391 46.899 11.3196 48.1134 12.0162H48.1712C48.1712 12.0162 48.2869 12.1323 48.3447 12.1904C51.2362 14.2802 49.9639 17.8792 49.5013 19.2724H70.4931C70.6665 18.5178 70.8979 17.7631 71.0713 16.8924C71.9388 12.4806 71.4183 6.79177 63.1488 3.3088C59.3321 1.68341 53.8963 0.580473 46.1472 0.174126C24.2302 -0.754666 12.491 7.72057 9.48395 16.9504C5.60944 28.9086 17.9269 32.2175 22.6689 33.4365L39.4391 37.8483C44.0654 39.1254 44.875 40.9829 44.0654 43.6532C41.9258 50.1548 32.731 49.7484 30.9962 49.6904C18.91 49.1679 20.7027 42.4342 21.6858 39.7059H0.867501C0.289216 41.3312 -0.173413 43.7693 0.0579014 46.3816C0.289216 48.2391 0.925329 50.3289 2.54453 52.1865C7.3443 58.3398 19.4305 60.0232 27.0638 60.3715C45.4533 61.1842 61.2983 55.9017 65.4041 43.1888C69.3365 31.1145 58.4647 28.2121 49.3278 25.774ZM109.874 38.3707C108.197 44.4659 104.67 51.4899 96.2846 51.4899C87.0898 51.4899 88.9404 42.7244 89.8656 39.5317C90.4439 37.2097 93.2775 27.0511 103.455 27.0511C111.898 26.993 110.915 34.5395 109.874 38.4288M112.419 18.2275C101.605 18.2275 95.9954 22.9876 93.6823 24.9613L95.0124 19.2724H76.1024C75.6976 20.9559 75.6976 21.4203 74.6567 25.8901L61.1827 75L81.5383 71.4009L86.0489 54.8568C87.726 56.8885 90.8487 60.4876 99.9856 60.4876C111.725 60.4876 124.736 54.3924 128.958 38.661C133.584 22.0588 121.035 18.1695 112.419 18.1695M379.587 27.6316L381.611 19.2724H362.932L361.081 27.9218L352.407 59.7329H371.491L376.175 42.6083C377.447 38.2546 380.801 31.7531 392.482 31.7531C393.812 31.7531 394.333 31.8111 396.473 32.0433L400.058 19.0402C395.605 18.8661 386.295 18.6339 379.587 27.6896M329.507 26.1803C337.834 26.1803 336.851 32.2755 336.389 34.5394H317.941C318.751 32.5658 321.238 26.1803 329.507 26.1803ZM352.176 42.6664C354.084 35.6424 354.605 31.8111 353.217 28.3862C351.308 22.6973 346.046 18.2275 331.762 18.2275C312.91 18.2275 302.096 26.935 298.453 40.2864C294.694 53.5216 302.443 60.5456 320.255 60.5456C333.497 60.5456 346.566 56.6563 350.788 46.6138H332.977C331.473 50.387 327.657 52.4187 322.568 52.4187C312.795 52.4187 314.992 44.8723 315.513 42.7244L352.176 42.6083V42.6664ZM283.88 43.0147L287.697 29.0247H300.015L302.617 19.3885H290.473L293.133 9.69425L273.818 13.1192L272.083 19.3885H263.062L260.46 29.0247H269.134L263.872 48.4133C261.674 56.25 263.583 60.2554 278.849 60.2554C285.384 60.2554 288.854 59.849 291.514 59.5008L294.116 49.9806C291.803 50.2709 290.82 50.2709 289.316 50.2709C281.972 50.2709 282.666 48.0069 283.88 42.9566M242.07 18.3436C231.488 18.3436 226.283 22.349 223.045 25.4257L224.548 19.2144H205.407L203.557 27.8638L194.882 59.6169H213.966L220.327 36.4551C220.732 35.0038 222.756 27.9799 231.256 27.9799C239.121 27.9799 237.502 33.6687 236.75 36.4551L230.389 59.6169H249.53L256.238 35.1199C257.684 29.6633 260.749 18.3436 242.07 18.3436ZM180.136 19.2144L169.091 59.6169H188.232L199.277 19.2144H180.136ZM175.336 18.9241C170.941 18.8661 161.689 18.5758 154.923 27.6316L156.947 19.2724H138.268L136.418 27.9218L127.743 59.7329H146.827L151.511 42.6083C152.783 38.2546 156.137 31.7531 167.818 31.7531C169.149 31.7531 169.669 31.8111 171.809 32.0433C171.751 31.9272 175.336 18.9822 175.336 18.9822" fill="#020304"/>
</g>
<defs>
<clipPath id="clip0_116_63">
<rect width="400" height="75" fill="white"/>
</clipPath>
</defs>
</svg>
