<svg width="400" height="111" viewBox="0 0 400 111" fill="none" xmlns="http://www.w3.org/2000/svg">
<path d="M208.342 107.015C216.979 110.68 220.979 110.032 227.786 103.843C230.942 100.972 236.652 94.0169 243.689 82.8019C243.337 86.2618 242.821 91.2284 242.646 92.5171C242.117 96.4359 241.819 100.513 244.605 103.613C247.149 106.472 250.927 106.832 253.534 106.844H253.893C254.41 106.814 266.33 106.173 270.723 105.573C278.281 104.58 280.233 102.215 281.97 96.907L282.362 95.7361C284.666 89.0111 286.403 81.0922 287.704 73.0948C289.205 78.9372 292.858 83.9038 298.188 87.0348C306.351 91.8294 316.764 91.5235 326.035 86.2172C330.052 83.9173 333.277 80.9162 335.863 77.5321C336.126 77.9612 336.392 78.3335 336.636 78.68L336.848 78.9683C339.961 83.411 350 92.0785 365.713 93.2183C371.25 93.6257 381.656 93.3022 389.08 86.6057C390.974 84.9163 395.514 80.1988 397.014 73.1598C398.153 67.7709 397.191 62.4523 394.317 58.191C392.346 55.2725 389.814 52.8549 387.104 50.8298C388.02 50.3885 388.933 49.7713 389.83 48.9537C394 45.0998 396.103 38.651 392.416 34.5088C382.237 23.0352 365.109 21.5637 355.076 26.7712C350.894 28.9303 347.664 31.5551 345.329 34.6915C343.905 31.5199 340.838 29.484 336.879 29.3026C335.384 29.2376 332.787 29.3852 330.863 29.549C326.055 29.9551 322.6 33.3676 322.045 38.146C321.23 36.6272 319.963 35.3575 318.291 34.5101C316.995 33.8577 314.944 33.1037 312.176 32.1263C312.201 32.1263 309.725 31.2316 309.725 31.2316C309.749 31.2437 309.784 31.2613 309.813 31.2613C304.542 29.2552 299.733 30.7375 296.649 35.3386C295.229 37.4516 292.773 41.5451 290.679 47.3062C291.476 36.7802 291.629 29.0901 291.641 28.355C291.641 28.4376 291.629 28.5202 291.629 28.596C292.109 21.159 289.353 16.6581 282.106 13.0276C258.184 1.08287 235.666 0.887943 222.579 4.68902C208.958 8.65524 198.784 19.5224 196.473 32.5202C185.124 26.2487 174.658 26.9188 167.477 30.2488C167.586 28.73 167.345 27.0474 166.216 25.4826C164.079 22.5113 160.349 22.3285 158.944 22.2649C154.751 22.0537 151.037 22.0537 149.192 22.0537C148.964 22.0713 148.664 22.0537 148.345 22.0361C146.333 21.9414 141.618 21.7302 138.896 26.4017C138.869 26.4315 138.851 26.4789 138.828 26.5141C136.662 30.4803 134.158 34.8986 132.291 38.0811L123.026 26.3773C122.969 26.3124 122.893 26.219 122.831 26.154L122.717 26.0186C120.052 22.9715 116.73 22.3475 112.271 24.0599C109.155 25.2727 104.71 27.1313 101.751 28.5852C100.537 29.174 97.7027 30.5615 96.8689 33.7453C96.6639 34.5101 96.6167 35.2452 96.6706 35.9518C94.0049 34.7389 91.1233 33.9037 88.0704 33.48C83.2327 32.8086 78.4571 33.239 74.0619 34.6211C74.0943 32.3673 72.9894 25.9063 71.9182 23.8189C71.9007 23.7837 71.8481 23.6605 71.8049 23.5712C69.8164 19.1529 66.1429 17.3349 60.883 18.2229C42.6465 21.2226 36.0969 21.5651 16.0108 21.7289C8.77723 21.7938 6.9722 26.0998 6.53241 27.9476C5.86058 30.7253 5.88486 43.0165 6.30037 45.7049C7.44167 53.0661 14.4419 52.9361 16.7407 52.8833C20.1619 52.8251 22.5726 52.6721 24.5045 52.5598C24.8242 52.549 25.1169 52.5314 25.4043 52.5124C25.8036 58.6147 27.5803 72.3462 30.8814 85.627L30.9165 85.7569C33.0426 94.3878 40.1697 93.6054 42.3066 93.152C44.836 92.6281 53.6615 90.2348 56.9653 88.9935C60.0439 87.828 61.946 85.2033 62.0607 81.9437C62.0661 81.6973 62.0661 81.4388 62.0553 81.191C63.8523 82.9684 65.9163 84.521 68.2299 85.8097C75.0265 89.5742 83.6482 90.6761 90.7294 88.628C95.5428 87.2459 99.6156 85.3034 102.941 82.8208C103.548 84.0269 104.36 85.0557 105.06 85.8679C106.44 87.4571 113.706 95.487 120.978 96.4644C123.542 96.8244 124.906 96.3655 126.551 95.6819L126.718 95.617C132.045 93.4173 139.562 84.4845 149.068 69.0406C149.463 68.3922 149.865 67.7397 150.255 67.0873C149.783 68.2758 149.468 69.4711 149.331 70.558C148.803 74.7706 150.975 77.1883 152.664 78.6597C152.659 78.6421 153.232 79.147 153.232 79.147C156.962 82.4432 164.726 89.2967 179.107 89.9384C180.441 89.9857 185.174 90.0318 190.319 88.2747C190.246 91.598 192.433 94.0995 193.178 94.9523C193.207 94.9997 193.237 95.0295 193.272 95.0647C194.126 95.9933 201.833 104.219 208.342 107.015Z" fill="white"/>
<path d="M279.581 17.7749C258.284 7.13786 237.25 6.00755 224.163 9.80863C199.974 16.8517 192.475 46.6349 214.885 61.2273C216.241 62.1099 215.39 63.9685 213.689 66.9411C211.59 70.6299 207.691 77.8963 200.813 83.1336C196.665 86.2985 193.976 87.6047 197.385 91.506C197.385 91.506 204.964 99.72 210.559 102.115C217.308 104.974 218.997 104.498 224.021 99.9379C227.177 97.0736 233.438 89.2359 240.991 76.7687C244.907 70.2847 250.15 70.1601 249.435 80.8283C249.435 80.8283 248.403 91.0958 248.121 93.2184C247.276 99.3382 247.933 101.462 253.586 101.515C253.586 101.515 265.742 100.857 269.958 100.286C275.892 99.5034 275.57 98.5734 277.124 94.0373C285.427 69.8312 286.131 28.2739 286.131 28.2739C286.482 22.7117 284.665 20.3225 279.581 17.7749ZM264.03 40.1861C264.03 40.1861 256.49 45.1987 256.301 45.3286C255.662 45.8173 254.782 46.3872 254.665 48.706C254.619 49.6712 254.325 56.5139 254.307 57.3613C254.29 58.3075 253.868 60.8862 250.794 58.2547C250.794 58.2547 245.657 53.8946 244.895 53.2421C244.725 53.1013 242.959 51.171 240.215 52.3176L232.171 55.4296C232.171 55.4296 227.326 57.3424 229.133 53.1298C230.881 49.0349 232.053 45.6224 232.439 44.5273C232.839 43.3861 232.697 41.7739 231.719 40.6436C231.267 40.1373 227.41 35.1951 226.522 33.9714C226.522 33.9714 223.351 30.3111 228.639 30.5589C228.639 30.5589 237.67 30.7524 237.81 30.77C237.962 30.7822 239.651 30.8932 240.86 29.0522C242.349 26.7876 246.712 21.4799 245.803 22.6034C246.565 21.6802 248.336 19.3614 249.509 23.1977C249.509 23.1977 251.168 28.2576 251.955 30.3761C252.494 31.8123 252.834 32.7938 255.52 33.6235L263.817 36.5298C263.82 36.5326 267.695 37.6913 264.03 40.1861Z" fill="#0862AD"/>
<path d="M104.75 50.0002C100.882 43.7814 94.6849 39.78 87.2988 38.7688C77.8676 37.4802 68.7399 41.223 63.48 48.5003C59.619 53.8662 58.3752 60.315 59.9913 66.6813C63.8766 82.0196 79.4284 86.2971 89.1619 83.5073C100.144 80.3546 106.287 74.1223 107.956 64.4911C108.755 59.844 107.589 54.5715 104.75 50.0002ZM78.0052 70.7233C74.9294 69.7284 72.6427 64.9811 73.7543 59.8264C74.8592 54.6649 78.6001 51.0885 82.0753 52.1538C85.1619 53.1122 87.431 58.1559 86.3585 63.3215C85.2091 68.8174 81.5303 71.8712 78.0052 70.7233Z" fill="#F48120"/>
<path d="M301.271 38.2625C300.38 39.5864 293.355 49.9121 292.475 65.7932C292.093 72.8539 295.296 79.078 301.052 82.4608C307.437 86.2145 315.73 85.9086 323.224 81.608C339.321 72.3761 341.127 49.1297 340.675 38.6388C340.575 36.209 339.104 34.7552 336.635 34.6496C335.692 34.6022 333.651 34.674 331.347 34.8675C329.007 35.0611 327.606 36.6449 327.495 39.2101L327.471 39.8923C327.366 49.636 326.684 58.2913 322.311 63.6098C319.449 67.1239 316.031 68.5236 313.779 67.6112C311.768 66.8112 310.478 64.1986 310.794 61.5211C311.561 54.8611 314.466 49.6238 316.26 46.2762L317.028 44.8237C318.125 42.5699 317.573 40.1698 315.731 39.2453C314.664 38.7038 312.336 37.8686 310.278 37.1322L307.798 36.2375C306.033 35.5674 303.429 35.0435 301.271 38.2625Z" fill="#73BD45"/>
<path d="M357.681 31.4726C350.691 35.0977 347.102 40.0453 346.364 47.0464C345.36 56.4909 358.619 63.0738 361.773 64.7333C365.573 66.7381 365.714 69.0569 364.729 70.435C363.175 72.5886 358.87 71.9822 355.698 70.7409C352.216 69.4062 350.444 67.7872 347.577 64.5574C345.893 62.6636 340.78 68.0877 339.983 71.8712C339.615 73.5998 340.311 74.4188 341.397 75.9647C344.181 79.9187 353.142 86.9496 366.129 87.8972C369.712 88.1611 379.036 88.3682 385.327 82.6896C387.872 80.406 390.645 76.6063 391.607 72.081C392.263 68.9446 392.217 64.8498 389.696 61.1123C386.16 55.8588 380.267 52.3812 373.722 49.3923C364.176 45.0322 366.017 42.4548 368.151 41.2677C370.156 40.1387 376.947 40.932 382.272 45.8336C384.969 48.3162 390.563 40.6084 388.241 37.9851C379.74 28.4242 365.304 27.524 357.681 31.4726Z" fill="#EA1A5B"/>
<path d="M161.444 32.1372C156.123 48.8413 133.421 87.0334 124.558 90.6924C123.304 91.2108 123.051 91.357 121.749 91.1797C117.041 90.5218 111.174 84.6131 109.29 82.431C108.448 81.4658 106.636 79.2431 108.093 78.0641C113.631 73.6349 120.507 66.8734 120.835 62.9085C120.908 62.0436 120.638 61.1312 120.318 60.7021C119.803 60.0131 105.415 40.9901 103.968 38.9664C101.519 35.4888 101.531 34.6712 104.245 33.3473C106.957 32.0113 111.277 30.2001 114.303 29.0224C117.334 27.8637 117.797 28.6813 118.651 29.641L131.548 45.9147C132.477 46.5509 133.319 46.3736 133.996 45.5736C135.643 43.6257 142.607 31.0109 143.7 29.0224C144.984 26.8159 147.104 27.4224 149.235 27.4102C151.499 27.3926 154.999 27.4224 158.665 27.5984C162.189 27.7825 162.511 28.7774 161.444 32.1372Z" fill="#73BD45"/>
<path d="M167.897 36.1089C162.092 39.734 159.33 44.2877 159.198 50.4184C159.01 58.6974 170.444 64.1811 173.314 65.421C176.758 66.9101 177.245 68.6874 176.628 70.0221C175.728 72.0107 173.676 72.3748 171.265 71.8875C166.894 70.9873 163.484 67.151 160.045 65.2207C158.098 64.15 155.228 67.8685 154.809 71.2174C154.615 72.7349 155.085 73.5877 156.339 74.6584C159.558 77.4645 166.193 84.0135 179.354 84.597C182.482 84.7323 190.613 84.1083 195.667 78.7546C197.716 76.5833 199.862 73.7122 200.367 69.7108C200.707 66.9574 200.074 63.5977 197.908 60.315C196.096 57.5739 192.785 54.8314 186.986 52.4137C177.577 48.5301 180.549 44.6112 182.782 43.8762C184.694 43.2413 188.041 43.7354 193.609 47.0952C196.629 48.9186 200.626 41.7591 198.135 39.9641C185.646 30.9366 174.245 32.1549 167.897 36.1089Z" fill="#EA1A5B"/>
<path d="M16.0637 27.0652C36.4843 26.9068 43.3887 26.5115 61.81 23.4766C65.9624 22.7876 66.3023 24.8587 66.9809 26.1893C67.5435 27.2953 68.6254 33.0727 68.5526 34.5563C68.4757 36.0264 69.2095 38.1801 66.7232 38.8813C58.9662 41.0525 56.9332 41.7293 51.7825 43.259C49.4041 43.9764 49.5539 44.9768 49.6213 46.8015C49.9869 56.9215 53.3447 70.301 55.7217 77.7786C56.7241 80.9327 57.1733 83.1797 54.9771 84.0149C51.9255 85.1385 43.417 87.4573 41.1358 87.9351C37.1858 88.7636 36.6151 85.8573 36.2428 84.3682C32.8917 70.9075 31.2297 57.1976 30.9032 52.0727C30.7359 49.4601 29.8833 47.0127 27.4348 47.0777C24.9161 47.125 22.102 47.4364 16.6249 47.5365C13.6961 47.6015 12.1447 47.4188 11.7548 44.9064C11.3609 42.375 11.4701 30.9366 11.9005 29.1606C12.3349 27.3589 14.4097 27.0828 16.0637 27.0652Z" fill="#EA1A5B"/>
<path d="M397.32 35.4549C397.32 37.6086 395.526 39.3562 393.297 39.3562C391.086 39.3562 389.287 37.6086 389.287 35.4549C389.287 33.3134 391.086 31.5713 393.297 31.5713C395.526 31.5726 397.32 33.3134 397.32 35.4549Z" fill="white"/>
<path d="M396.604 35.455C396.604 33.6953 395.126 32.2712 393.296 32.2712C391.479 32.2712 390.002 33.6953 390.002 35.455C390.002 37.2378 391.48 38.6497 393.296 38.6497C395.127 38.651 396.604 37.2378 396.604 35.455Z" fill="#0862AD"/>
<path d="M396.2 35.455C396.2 37.0076 394.904 38.2787 393.297 38.2787C391.703 38.2787 390.406 37.0076 390.406 35.455C390.406 33.9254 391.703 32.6421 393.297 32.6421C394.904 32.6434 396.2 33.9254 396.2 35.455Z" fill="white"/>
<path d="M391.973 37.4802V33.1729H393.32C393.743 33.1729 394.072 33.2663 394.294 33.449C394.529 33.625 394.641 33.8849 394.641 34.249C394.641 34.8189 394.342 35.2264 393.744 35.4727L395.221 37.4788H394.448L393.187 35.6609H392.605V37.4788L391.973 37.4802ZM392.605 35.2142H392.805C393.602 35.2142 393.989 34.8961 393.989 34.2964C393.989 33.8551 393.66 33.625 393.005 33.625H392.605V35.2142Z" fill="#0862AD"/>
</svg>
