<svg width="417" height="95" viewBox="0 0 417 95" fill="none" xmlns="http://www.w3.org/2000/svg">
<g clip-path="url(#clip0_119_376)">
<path fill-rule="evenodd" clip-rule="evenodd" d="M302.016 65.0735C306.351 42.2629 333.196 30.6959 353.004 31.7976V31.7998C360.658 32.2324 367.258 34.5561 371.089 38.86L371.116 38.8332C371.125 38.8421 371.134 38.851 371.14 38.86C372.714 37.1919 374.29 35.5261 375.879 33.8715C376.806 32.9059 379.456 33.2181 381.81 33.644C384.474 34.1279 387.32 35.2295 389.141 35.2318C390.998 35.2318 395.384 33.8848 399.556 33.2582C403.727 32.6338 407.683 32.7297 407.003 34.4156L403.27 43.6701H403.341L391.138 73.8686C388.708 79.8829 398.224 78.2885 411.441 64.2997C413.706 65.7849 414.735 66.0637 416.998 71.6833C405.706 81.3926 394.927 88.3681 379.987 93.5171C366.553 98.1511 356.657 91.4432 353.543 80.2643C334.457 98.1488 307.864 97.957 300.23 77.7823C287.822 83.9192 272.989 90.4397 266.837 92.217C262.013 93.6108 257.623 94.5898 253.504 94.6165C246.895 94.6611 239.689 88.5063 241.962 79.4503C231.018 84.2983 222.326 87.4605 209.786 91.78C196.352 96.4139 188.625 91.4455 185.509 80.2643C166.418 98.1511 139.814 97.957 132.189 77.7644C124.693 81.3748 114.32 86.68 104.774 90.4219C89.4188 97.326 71.4249 95.9456 57.9824 81.8632L62.3778 74.9413C68.7056 81.6758 76.4243 81.2968 82.4735 75.8288C88.9151 70.0063 93.0029 58.7783 90.0719 49.5795C88.7836 45.5366 84.2277 42.4324 75.6821 42.9988L78.3278 35.9498C87.0651 35.6398 93.8989 34.4736 97.6702 28.9789C102.966 21.2608 103.057 9.36828 91.6945 9.6894C89.6863 9.74515 87.3236 10.1733 84.5732 11.0586C82.605 16.8856 79.1369 23.7629 76.3463 30.9881C69.9783 47.4744 62.8459 65.7738 54.5611 77.5682C44.6893 91.6194 34.1332 94.398 25.6277 93.8271C16.73 93.225 9.75353 90.5289 0.00210475 81.7316C-0.0447021 77.9986 0.327524 76.3752 1.03631 71.7412C4.44876 76.5491 16.2084 81.6669 20.0198 76.0741C28.5476 63.5527 37.9313 39.4018 44.9322 23.812C38.6044 25.9126 32.7312 29.766 24.4353 35.5217C24.5334 34.5672 21.667 32.4755 21.7807 29.6679C35.0694 14.3345 58.6065 4.95958 74.4562 1.6079C98.6799 -3.5144 124.673 3.93601 128.574 19.2538C131.175 29.4694 119.132 39.045 107.816 40.4276C114.329 44.2632 121.241 50.9242 122.973 59.0726C123.846 63.1847 123.606 67.6001 122.304 71.826C126.111 70.0576 130.711 67.7362 133.743 66.503C138.519 33.731 189.14 23.1898 203.108 38.86L207.896 33.8715C208.823 32.9059 211.473 33.2181 213.825 33.644C216.488 34.1279 219.337 35.2295 221.158 35.2318C223.014 35.2318 227.401 33.8848 231.571 33.2582C235.744 32.6338 239.698 32.7297 239.018 34.4156L223.106 73.8709C219.508 82.7775 245.925 66.9936 247.483 66.1395L258.833 42.0042L247.145 42.167L249.244 32.248L262.158 32.2547C264.282 29.4338 264.911 26.0464 267.731 23.9235C271.555 21.0423 280.279 22.5899 284.289 19.9719C287.755 17.7062 290.419 14.2943 293.621 9.04047C296.388 4.5002 306.451 5.66203 304.527 9.98599L295.523 32.5179L306.901 32.4108C312.309 32.694 307.666 41.6809 301.518 41.75L292.117 41.9217L281.2 70.2025C277.616 79.4682 291.562 71.2283 302.016 65.0735ZM197.482 45.7239C196.234 41.4311 192.503 40.2782 189.276 40.6217C181.633 41.4378 174.248 49.9252 170.459 55.8302C164.388 65.2943 165.828 79.2362 175.479 76.645C185.689 73.8976 199.295 51.9589 197.482 45.7239ZM365.517 45.7239C364.266 41.4311 360.537 40.2782 357.308 40.6217C349.665 41.4378 342.283 49.9252 338.491 55.8302C332.42 65.2943 333.862 79.2362 343.511 76.645C353.724 73.8976 367.327 51.9589 365.517 45.7239Z" fill="#E2001A"/>
</g>
<defs>
<clipPath id="clip0_119_376">
<rect width="417" height="95" fill="white"/>
</clipPath>
</defs>
</svg>
